{"glyphs":{"0":{"ha":757,"x_min":57,"x_max":700,"o":"m 247 708 q 222 664 247 708 q 196 457 196 619 q 247 205 196 294 q 380 115 297 115 q 511 204 463 115 q 560 458 560 293 q 509 709 560 622 q 378 796 458 796 q 247 708 299 796 m 378 922 q 453 922 378 922 q 614 797 528 922 q 700 458 700 672 q 616 117 700 244 q 380 -11 532 -11 q 142 117 228 -11 q 57 458 57 244 q 142 797 57 671 q 378 922 228 922 z "},"1":{"ha":472,"x_min":22,"x_max":372,"o":"m 372 0 l 238 0 l 238 760 l 22 628 l 22 774 l 249 908 l 372 908 l 372 0 z "},"2":{"ha":689,"x_min":50,"x_max":632,"o":"m 632 0 l 50 0 l 50 113 q 345 377 225 240 q 465 626 465 514 q 419 748 465 706 q 293 790 374 790 q 75 707 182 790 l 75 842 q 308 918 175 918 q 524 847 440 918 q 607 643 607 775 q 238 118 607 399 l 632 118 l 632 0 z "},"3":{"ha":654,"x_min":50,"x_max":589,"o":"m 589 250 q 508 65 589 138 q 286 -8 428 -8 q 50 39 144 -8 l 50 172 q 275 117 153 117 q 403 158 357 117 q 450 264 450 199 q 399 365 450 329 q 244 401 347 401 l 189 401 l 189 518 l 244 518 q 373 556 321 518 q 425 661 425 594 q 383 761 425 728 q 256 794 340 794 q 79 736 172 794 l 79 868 q 271 918 165 918 q 488 849 410 918 q 567 676 567 781 q 530 545 567 601 q 421 460 493 489 q 544 386 500 440 q 589 250 589 332 z "},"4":{"ha":758,"x_min":53,"x_max":728,"o":"m 600 0 l 464 0 l 464 213 l 53 213 l 53 331 l 379 910 l 600 910 l 600 331 l 728 331 l 728 213 l 600 213 l 600 0 m 464 331 l 464 826 l 190 331 l 464 331 z "},"5":{"ha":704,"x_min":72,"x_max":647,"o":"m 344 564 q 567 490 486 564 q 647 284 647 415 q 558 72 647 153 q 317 -10 468 -10 q 72 38 165 -10 l 72 169 q 286 115 161 115 q 506 293 506 115 q 456 403 506 364 q 313 443 407 443 q 115 394 218 443 l 115 910 l 586 910 l 586 792 l 250 792 l 250 553 q 344 564 301 564 z "},"6":{"ha":735,"x_min":65,"x_max":689,"o":"m 204 375 q 262 173 210 240 q 390 106 314 106 q 507 158 465 106 q 549 292 549 210 q 507 419 549 374 q 396 465 465 465 q 204 375 288 465 m 422 585 q 484 585 422 585 q 617 506 546 585 q 689 292 689 426 q 608 69 689 157 q 392 -18 528 -18 q 149 100 233 -18 q 65 413 65 218 q 181 786 65 640 q 492 932 297 932 q 624 911 561 932 l 624 779 q 497 807 569 807 q 301 720 375 807 q 208 497 228 633 q 422 585 299 585 z "},"7":{"ha":638,"x_min":19,"x_max":618,"o":"m 19 790 l 19 908 l 618 908 l 618 790 l 249 0 l 103 0 l 474 790 l 19 790 z "},"8":{"ha":747,"x_min":64,"x_max":683,"o":"m 374 804 q 336 804 374 804 q 258 763 299 804 q 218 656 218 721 q 262 553 218 590 q 373 517 306 517 q 483 555 440 517 q 525 658 525 593 q 487 764 525 724 q 374 804 449 804 m 372 392 q 330 392 372 392 q 245 348 288 392 q 203 243 203 304 q 246 143 203 182 q 372 104 289 104 q 501 146 456 104 q 546 249 546 188 q 501 351 546 310 q 372 392 457 393 m 683 242 q 594 57 683 126 q 371 -12 506 -12 q 150 55 236 -12 q 64 235 64 122 q 218 456 64 396 q 116 536 153 483 q 79 660 79 589 q 164 851 79 782 q 372 921 249 921 q 579 853 494 921 q 664 653 664 786 q 528 457 664 521 q 683 242 683 404 z "},"9":{"ha":711,"x_min":43,"x_max":656,"o":"m 656 508 q 551 125 656 261 q 250 -11 446 -11 q 90 15 161 -11 l 90 147 q 240 115 161 115 q 515 399 479 115 q 326 322 449 322 q 123 403 203 322 q 43 615 43 483 q 122 833 43 747 q 347 919 201 919 q 574 805 493 919 q 656 508 656 690 m 350 439 q 521 521 456 439 q 474 722 518 649 q 351 796 431 796 q 228 748 271 796 q 185 617 185 700 q 230 487 185 535 q 350 439 275 439 z "}," ":{"ha":342,"x_min":0,"x_max":0,"o":""},"!":{"ha":364,"x_min":86,"x_max":276,"o":"m 180 179 q 200 179 180 179 q 248 151 219 179 q 276 83 276 122 q 249 16 276 43 q 181 -11 221 -11 q 113 16 140 -11 q 86 83 86 43 q 113 151 86 124 q 180 179 140 179 m 249 297 l 115 297 l 115 936 l 249 936 l 249 297 z "},"\"":{"ha":447,"x_min":60,"x_max":388,"o":"m 178 607 l 60 607 l 60 946 l 178 946 l 178 607 m 388 607 l 269 607 l 269 946 l 388 946 l 388 607 z "},"#":{"ha":1004,"x_min":71,"x_max":935,"o":"m 593 338 l 647 593 l 417 593 l 363 338 l 593 338 m 71 229 l 71 338 l 242 338 l 294 593 l 138 593 l 138 704 l 318 704 l 367 936 l 489 936 l 440 704 l 671 704 l 719 936 l 839 936 l 790 704 l 935 704 l 935 593 l 767 593 l 713 338 l 869 338 l 869 229 l 690 229 l 642 0 l 521 0 l 569 229 l 339 229 l 290 0 l 171 0 l 219 229 l 71 229 z "},"$":{"ha":704,"x_min":65,"x_max":640,"o":"m 381 -156 l 264 -156 l 264 -7 q 71 50 150 4 l 71 199 q 325 117 181 117 q 447 152 401 117 q 492 250 492 188 q 481 300 492 283 q 463 326 469 317 q 440 345 456 335 q 415 362 424 356 q 384 378 406 368 q 353 394 363 389 q 317 410 343 399 q 125 525 185 465 q 65 690 65 585 q 139 863 65 794 q 333 942 213 931 l 333 1090 l 451 1090 l 451 939 q 592 899 535 926 l 592 757 q 381 815 500 815 q 261 781 304 815 q 218 692 218 747 q 278 592 218 631 q 388 533 318 564 q 492 483 458 501 q 564 432 525 464 q 640 256 640 369 q 569 74 640 143 q 381 -7 499 6 l 381 -156 z "},"%":{"ha":1228,"x_min":67,"x_max":1161,"o":"m 846 306 q 828 288 846 306 q 811 222 811 271 q 846 139 811 174 q 929 104 881 104 q 1012 139 978 104 q 1046 222 1046 174 q 1012 306 1046 271 q 929 340 978 340 q 846 306 881 340 m 928 456 q 977 456 928 456 q 1093 387 1025 456 q 1161 222 1161 318 q 1093 58 1161 125 q 928 -10 1025 -10 q 764 58 832 -10 q 696 222 696 125 q 764 387 696 318 q 928 456 832 456 m 299 839 q 274 839 299 839 q 216 804 250 839 q 182 722 182 769 q 216 639 182 674 q 299 604 250 604 q 382 639 347 604 q 417 722 417 674 q 382 805 417 771 q 299 839 347 839 m 299 954 q 348 954 299 954 q 464 886 396 954 q 532 722 532 818 q 464 557 532 625 q 299 489 396 489 q 135 557 203 489 q 67 722 67 625 q 135 886 67 818 q 299 954 203 954 m 422 -1 l 294 -1 l 800 940 l 929 940 l 422 -1 z "},"&":{"ha":993,"x_min":85,"x_max":989,"o":"m 225 244 q 225 215 225 244 q 288 147 225 186 q 455 108 350 108 q 638 164 560 108 l 382 404 q 263 338 300 374 q 225 244 225 303 m 729 76 q 449 -11 615 -11 q 184 63 283 -11 q 85 247 85 136 q 300 488 85 411 q 181 721 181 614 q 256 893 181 828 q 453 958 331 958 q 652 890 576 958 q 728 711 728 821 q 678 565 728 629 q 514 450 628 501 l 719 254 q 756 385 751 310 l 883 385 q 813 167 876 261 l 989 0 l 811 0 l 729 76 m 455 839 q 424 839 455 839 q 357 807 393 839 q 321 726 321 775 q 347 634 321 676 q 432 529 374 592 q 589 707 589 606 q 553 802 589 765 q 455 839 517 839 z "},"'":{"ha":238,"x_min":60,"x_max":178,"o":"m 178 607 l 60 607 l 60 946 l 178 946 l 178 607 z "},"(":{"ha":442,"x_min":86,"x_max":460,"o":"m 311 -272 q 86 360 86 10 q 301 982 86 710 l 449 982 q 287 680 342 843 q 232 358 232 517 q 290 35 232 200 q 460 -272 349 -131 l 311 -272 z "},")":{"ha":442,"x_min":-18,"x_max":356,"o":"m -18 -272 q 152 35 93 -131 q 211 358 211 201 q 156 678 211 515 q -6 982 100 842 l 142 982 q 356 361 356 711 q 132 -272 356 11 l -18 -272 z "},"*":{"ha":607,"x_min":40,"x_max":567,"o":"m 224 653 q 168 661 193 653 l 40 704 l 74 810 l 203 768 q 260 736 238 756 q 247 801 247 768 l 247 936 l 358 936 l 358 801 q 347 739 358 765 q 404 769 372 758 l 532 810 l 567 704 l 439 663 q 383 654 414 654 l 376 654 q 422 610 401 639 l 500 500 l 411 435 l 332 543 q 304 599 315 567 q 276 543 299 574 l 196 435 l 106 500 l 186 608 q 232 653 206 635 l 224 653 z "},"+":{"ha":783,"x_min":74,"x_max":708,"o":"m 708 410 l 451 410 l 451 151 l 325 151 l 325 410 l 74 410 l 74 533 l 325 533 l 325 793 l 451 793 l 451 533 l 708 533 l 708 410 z "},",":{"ha":340,"x_min":-11,"x_max":290,"o":"m 108 -172 l -11 -172 l 122 153 l 290 153 l 108 -172 z "},"-":{"ha":486,"x_min":74,"x_max":413,"o":"m 413 313 l 74 313 l 74 429 l 413 429 l 413 313 z "},".":{"ha":268,"x_min":40,"x_max":228,"o":"m 201 149 q 214 136 201 149 q 228 83 228 122 q 201 17 228 44 q 134 -11 174 -11 q 67 17 94 -11 q 40 83 40 44 q 67 149 40 122 q 134 176 94 176 q 201 149 174 176 z "},"/":{"ha":585,"x_min":-10,"x_max":635,"o":"m 131 -142 l -10 -142 l 494 982 l 635 982 l 131 -142 z "},":":{"ha":347,"x_min":81,"x_max":267,"o":"m 240 158 q 253 144 240 158 q 267 92 267 131 q 240 26 267 53 q 173 -1 213 -1 q 107 26 133 -1 q 81 92 81 53 q 108 158 81 131 q 174 185 135 185 q 240 158 213 185 m 240 609 q 253 595 240 609 q 267 543 267 582 q 240 477 267 504 q 173 450 213 450 q 107 476 133 450 q 81 542 81 503 q 108 609 81 582 q 174 636 135 636 q 240 609 213 636 z "},";":{"ha":340,"x_min":-11,"x_max":290,"o":"m 258 608 q 271 594 258 608 q 285 542 285 581 q 258 476 285 503 q 191 450 231 450 q 125 476 151 450 q 99 542 99 503 q 125 609 99 582 q 191 636 151 636 q 258 608 231 636 m 108 -172 l -11 -172 l 122 153 l 290 153 l 108 -172 z "},"<":{"ha":757,"x_min":74,"x_max":690,"o":"m 690 289 l 690 150 l 74 407 l 74 539 l 690 796 l 690 657 l 215 474 l 690 289 z "},"=":{"ha":783,"x_min":74,"x_max":708,"o":"m 708 268 l 74 268 l 74 386 l 708 386 l 708 268 m 708 560 l 74 560 l 74 676 l 708 676 l 708 560 z "},">":{"ha":757,"x_min":67,"x_max":682,"o":"m 682 407 l 67 150 l 67 289 l 542 474 l 67 657 l 67 796 l 682 539 l 682 407 z "},"?":{"ha":631,"x_min":71,"x_max":581,"o":"m 321 151 q 335 138 321 151 q 349 83 349 124 q 321 16 349 43 q 253 -11 293 -11 q 185 16 213 -11 q 158 83 158 43 q 186 151 158 124 q 253 179 214 179 q 321 151 293 179 m 440 683 q 399 788 440 749 q 265 828 357 828 q 71 761 174 828 l 71 896 q 291 947 161 947 q 501 880 421 947 q 581 694 581 813 q 500 510 581 575 q 321 438 419 444 l 319 297 l 190 297 l 189 521 q 440 683 440 521 z "},"@":{"ha":1286,"x_min":75,"x_max":1226,"o":"m 781 268 l 785 339 q 643 482 763 482 q 528 424 574 482 q 483 288 483 367 q 520 166 483 208 q 613 124 557 124 q 715 162 668 124 q 781 268 761 200 m 796 494 q 801 582 796 515 l 913 582 q 889 272 889 339 q 975 129 889 129 q 1070 194 1032 129 q 1108 363 1108 258 q 990 658 1108 554 q 679 761 872 761 q 344 619 486 761 q 201 278 201 478 q 317 -30 201 78 q 599 -137 432 -137 q 854 -76 739 -137 l 849 -203 q 597 -253 744 -253 q 215 -103 356 -253 q 75 274 75 46 q 159 582 75 443 q 385 798 243 721 q 693 875 526 875 q 1072 737 917 875 q 1226 371 1226 599 q 1149 116 1226 211 q 969 21 1071 21 q 792 150 831 21 q 585 18 725 18 q 418 94 479 18 q 357 293 357 171 q 436 501 357 415 q 629 588 515 588 q 796 494 743 588 z "},"A":{"ha":917,"x_min":43,"x_max":874,"o":"m 194 0 l 43 0 l 367 936 l 554 936 l 874 0 l 721 0 l 647 229 l 269 229 l 194 0 m 460 828 q 308 349 450 788 l 608 349 q 460 828 488 722 z "},"B":{"ha":807,"x_min":101,"x_max":750,"o":"m 414 414 l 244 414 l 244 118 l 428 118 q 604 264 604 118 q 556 374 604 335 q 414 414 508 414 m 397 818 l 244 818 l 244 531 l 374 531 q 528 573 478 531 q 579 679 579 615 q 534 781 579 743 q 397 818 489 818 m 461 0 l 101 0 l 101 936 l 408 936 q 640 867 556 936 q 725 686 725 799 q 681 550 725 608 q 569 475 638 492 q 698 404 646 461 q 750 244 750 347 q 674 70 750 140 q 461 0 599 0 z "},"C":{"ha":840,"x_min":64,"x_max":779,"o":"m 540 -11 q 197 119 331 -11 q 64 466 64 250 q 198 815 64 682 q 538 949 332 949 q 778 897 688 949 l 778 757 q 667 803 717 790 q 542 817 618 817 q 308 722 401 817 q 214 468 214 626 q 307 215 214 310 q 544 121 400 121 q 779 190 688 121 l 779 46 q 540 -11 693 -11 z "},"D":{"ha":926,"x_min":101,"x_max":868,"o":"m 390 814 l 247 814 l 247 121 l 394 121 q 638 221 554 121 q 721 472 721 321 q 631 718 721 622 q 390 814 540 814 m 396 0 l 101 0 l 101 936 l 393 936 q 735 807 601 936 q 868 474 868 678 q 742 135 868 269 q 396 0 617 0 z "},"E":{"ha":714,"x_min":101,"x_max":642,"o":"m 642 0 l 101 0 l 101 936 l 635 936 l 635 817 l 244 817 l 244 528 l 590 528 l 590 408 l 244 408 l 244 119 l 642 119 l 642 0 z "},"F":{"ha":686,"x_min":101,"x_max":632,"o":"m 585 390 l 244 390 l 244 0 l 101 0 l 101 936 l 632 936 l 632 817 l 244 817 l 244 510 l 585 510 l 585 390 z "},"G":{"ha":946,"x_min":64,"x_max":854,"o":"m 551 -11 q 198 118 332 -11 q 64 466 64 247 q 199 819 64 685 q 543 953 335 953 q 815 890 706 953 l 815 743 q 547 818 696 818 q 306 722 399 818 q 214 467 214 626 q 305 215 214 308 q 556 122 396 122 q 714 153 639 122 l 714 411 l 524 411 l 524 535 l 854 535 l 854 86 l 853 86 l 854 76 q 551 -11 733 -11 z "},"H":{"ha":911,"x_min":101,"x_max":808,"o":"m 808 0 l 665 0 l 665 410 l 244 410 l 244 0 l 101 0 l 101 936 l 244 936 l 244 533 l 665 533 l 665 936 l 808 936 l 808 0 z "},"I":{"ha":367,"x_min":113,"x_max":254,"o":"m 254 0 l 113 0 l 113 936 l 254 936 l 254 0 z "},"J":{"ha":511,"x_min":42,"x_max":413,"o":"m 413 253 q 349 62 413 124 q 190 0 286 0 q 42 29 93 0 l 42 161 q 156 126 99 126 q 269 247 269 126 l 269 936 l 413 936 l 413 253 z "},"K":{"ha":832,"x_min":101,"x_max":797,"o":"m 244 0 l 101 0 l 101 936 l 244 936 l 244 0 m 797 0 l 617 0 l 263 463 l 603 936 l 776 936 l 433 464 l 797 0 z "},"L":{"ha":667,"x_min":101,"x_max":628,"o":"m 628 0 l 101 0 l 101 936 l 244 936 l 244 126 l 628 126 l 628 0 z "},"M":{"ha":1206,"x_min":89,"x_max":1117,"o":"m 231 0 l 89 0 l 161 936 l 331 936 q 590 203 529 392 q 861 936 663 417 l 1031 936 l 1117 0 l 975 0 l 942 367 l 913 742 q 646 18 836 528 l 533 18 l 407 367 l 281 736 q 231 0 281 660 z "},"N":{"ha":944,"x_min":101,"x_max":843,"o":"m 244 0 l 101 0 l 101 936 l 271 936 q 708 172 631 325 q 700 543 700 299 l 700 936 l 843 936 l 843 0 l 674 0 q 233 765 319 596 q 244 392 244 626 l 244 0 z "},"O":{"ha":988,"x_min":64,"x_max":924,"o":"m 288 727 q 251 680 288 727 q 214 472 214 633 q 290 217 214 311 q 497 122 367 122 q 700 215 626 122 q 774 472 774 308 q 699 728 774 635 q 494 821 625 821 q 288 727 363 821 m 808 823 q 866 757 808 823 q 924 472 924 692 q 808 121 924 253 q 495 -11 692 -11 q 181 121 299 -11 q 64 472 64 253 q 181 822 64 690 q 495 954 297 954 q 808 823 693 954 z "},"P":{"ha":764,"x_min":101,"x_max":719,"o":"m 364 818 l 244 818 l 244 450 l 367 450 q 522 500 468 450 q 575 634 575 550 q 521 768 575 718 q 364 818 467 818 m 378 332 l 244 332 l 244 0 l 101 0 l 101 936 l 369 936 q 625 851 531 936 q 719 632 719 765 q 624 415 719 499 q 378 332 529 332 z "},"Q":{"ha":999,"x_min":64,"x_max":971,"o":"m 288 727 q 251 680 288 727 q 214 472 214 633 q 290 217 214 311 q 497 122 367 122 q 700 215 626 122 q 774 472 774 308 q 699 728 774 635 q 494 821 625 821 q 288 727 363 821 m 924 472 q 863 200 924 315 q 690 31 801 85 l 971 -137 l 813 -200 l 539 -10 q 494 -11 524 -11 q 181 121 299 -11 q 64 472 64 253 q 181 822 64 690 q 495 954 297 954 q 808 823 693 954 q 924 472 924 692 z "},"R":{"ha":789,"x_min":101,"x_max":758,"o":"m 244 0 l 101 0 l 101 936 l 363 936 q 611 858 524 936 q 699 644 699 779 q 649 477 697 546 q 514 378 600 408 l 758 0 l 588 0 l 368 356 l 244 356 l 244 0 m 367 817 l 244 817 l 244 475 l 374 475 q 508 522 463 475 q 554 646 554 568 q 367 817 554 817 z "},"S":{"ha":724,"x_min":81,"x_max":656,"o":"m 656 253 q 656 192 656 253 q 568 61 656 132 q 334 -10 481 -10 q 86 50 188 -10 l 86 199 q 340 117 196 117 q 461 152 417 117 q 506 250 506 188 q 479 319 506 288 q 422 366 453 350 q 343 404 392 382 q 280 433 294 426 q 232 458 265 440 q 183 489 199 476 q 143 524 167 501 q 108 568 119 546 q 81 685 81 629 q 167 874 81 804 q 386 943 254 943 q 607 899 518 943 l 607 757 q 396 815 514 815 q 276 781 319 815 q 232 692 232 747 q 275 603 232 636 q 392 538 318 569 q 498 488 465 506 q 572 436 531 469 q 656 253 656 374 z "},"T":{"ha":694,"x_min":31,"x_max":664,"o":"m 664 817 l 418 817 l 418 0 l 275 0 l 275 817 l 31 817 l 31 936 l 664 936 l 664 817 z "},"U":{"ha":906,"x_min":99,"x_max":807,"o":"m 807 358 q 713 82 807 176 q 453 -12 618 -12 q 193 80 288 -12 q 99 347 99 172 l 99 936 l 242 936 l 242 349 q 299 174 242 229 q 451 119 357 119 q 664 356 664 119 l 664 936 l 807 936 l 807 358 z "},"V":{"ha":893,"x_min":43,"x_max":851,"o":"m 528 0 l 358 0 l 43 936 l 196 936 q 444 128 390 331 q 578 564 489 294 l 699 936 l 851 936 l 528 0 z "},"W":{"ha":1315,"x_min":43,"x_max":1274,"o":"m 461 0 l 289 0 l 43 936 l 192 936 l 279 590 l 382 151 q 600 922 440 367 l 726 922 l 825 589 l 951 149 q 1129 936 1001 396 l 1274 936 l 1044 0 l 874 0 l 785 296 l 664 714 q 461 0 639 611 z "},"X":{"ha":872,"x_min":49,"x_max":822,"o":"m 219 0 l 49 0 l 349 474 l 65 936 l 231 936 l 429 600 l 625 936 l 796 936 l 513 472 l 822 0 l 654 0 l 432 351 l 219 0 z "},"Y":{"ha":844,"x_min":32,"x_max":813,"o":"m 492 0 l 349 0 l 349 349 l 32 936 l 196 936 q 419 465 394 525 q 581 799 432 507 l 649 936 l 813 936 l 492 349 l 492 0 z "},"Z":{"ha":811,"x_min":75,"x_max":736,"o":"m 736 0 l 75 0 l 75 113 l 547 818 l 82 818 l 82 936 l 717 936 l 717 826 l 243 118 l 736 118 l 736 0 z "},"[":{"ha":451,"x_min":101,"x_max":443,"o":"m 443 -258 l 101 -258 l 101 982 l 443 982 l 443 861 l 235 861 l 235 -137 l 443 -137 l 443 -258 z "},"\\":{"ha":583,"x_min":-51,"x_max":594,"o":"m 594 -143 l 454 -143 l -51 982 l 90 982 l 594 -143 z "},"]":{"ha":451,"x_min":10,"x_max":350,"o":"m 350 -258 l 10 -258 l 10 -137 l 218 -137 l 218 861 l 10 861 l 10 982 l 350 982 l 350 -258 z "},"^":{"ha":653,"x_min":57,"x_max":594,"o":"m 190 461 l 57 461 l 258 825 l 397 825 l 594 461 l 463 461 l 328 725 l 190 461 z "},"_":{"ha":774,"x_min":36,"x_max":738,"o":"m 738 -165 l 36 -165 l 36 -49 l 738 -49 l 738 -165 z "},"`":{"ha":617,"x_min":168,"x_max":451,"o":"m 451 883 l 335 883 l 168 1108 l 319 1108 l 451 883 z "},"a":{"ha":693,"x_min":60,"x_max":606,"o":"m 281 -6 q 120 52 181 -6 q 60 205 60 110 q 136 356 60 300 q 350 413 213 413 l 467 413 l 467 453 q 432 562 467 525 q 317 599 397 599 q 113 536 204 599 l 113 668 q 329 715 194 715 q 606 447 606 715 l 606 0 l 471 0 l 471 83 q 281 -6 417 -6 m 204 205 q 204 181 204 205 q 235 129 204 157 q 328 101 265 101 q 428 138 390 101 q 467 235 467 175 l 467 314 l 361 314 q 244 283 283 314 q 204 205 204 253 z "},"b":{"ha":808,"x_min":99,"x_max":751,"o":"m 428 594 q 390 594 428 594 q 294 536 351 594 q 236 355 236 478 q 292 171 236 232 q 426 110 347 110 q 558 176 506 110 q 611 353 611 242 q 558 530 611 465 q 428 594 506 594 m 236 0 l 99 0 l 99 982 l 236 982 l 236 597 q 447 714 311 714 q 667 614 582 714 q 751 357 751 514 q 671 95 751 200 q 450 -10 590 -10 q 236 107 310 -10 l 236 0 z "},"c":{"ha":654,"x_min":57,"x_max":593,"o":"m 419 -14 q 156 90 254 -14 q 57 348 57 194 q 156 609 57 501 q 425 717 256 717 q 593 678 517 717 l 593 553 q 427 596 525 596 q 263 526 329 596 q 197 349 197 457 q 263 173 200 242 q 438 104 325 104 q 593 150 521 104 l 593 28 q 419 -14 525 -14 z "},"d":{"ha":806,"x_min":57,"x_max":710,"o":"m 710 0 l 572 0 l 572 107 q 358 -10 499 -10 q 138 95 218 -10 q 57 357 57 200 q 142 614 57 514 q 362 714 226 714 q 572 597 497 714 l 572 982 l 710 982 l 710 0 m 380 594 q 341 594 380 594 q 250 530 303 594 q 197 353 197 465 q 249 175 197 240 q 381 110 301 110 q 517 171 461 110 q 572 355 572 232 q 515 536 572 478 q 380 594 457 594 z "},"e":{"ha":729,"x_min":57,"x_max":665,"o":"m 533 428 q 490 553 531 507 q 378 600 450 600 q 256 549 306 600 q 193 403 206 499 l 533 403 l 533 428 m 415 -7 q 154 92 251 -7 q 57 355 57 190 q 146 616 57 519 q 371 713 235 713 q 586 628 507 713 q 665 386 665 544 q 657 296 665 343 l 194 296 q 272 156 208 204 q 441 107 336 107 q 621 160 546 107 l 621 38 q 415 -7 543 -7 z "},"f":{"ha":464,"x_min":42,"x_max":458,"o":"m 439 599 l 290 599 l 290 0 l 154 0 l 154 599 l 42 599 l 42 704 l 154 704 l 154 758 q 213 931 154 868 q 379 994 272 994 q 458 983 418 994 l 458 864 q 392 878 426 878 q 290 757 290 878 l 290 704 l 439 704 l 439 599 z "},"g":{"ha":776,"x_min":60,"x_max":689,"o":"m 374 594 q 336 594 374 594 q 250 530 297 594 q 203 358 203 465 q 253 193 203 250 q 375 136 304 136 q 499 192 446 136 q 553 362 553 249 q 502 535 553 475 q 374 594 451 594 m 689 60 q 597 -185 689 -103 q 364 -268 504 -268 q 131 -222 224 -268 l 131 -85 q 346 -143 219 -143 q 553 61 553 -143 l 553 133 q 357 19 485 19 q 144 108 229 19 q 60 354 60 196 q 139 613 60 513 q 353 714 218 714 q 553 594 489 714 l 553 704 l 689 704 l 689 60 z "},"h":{"ha":765,"x_min":96,"x_max":678,"o":"m 678 0 l 542 0 l 542 444 q 505 556 542 517 q 403 596 468 596 q 285 543 339 596 q 232 382 232 490 l 232 0 l 96 0 l 96 982 l 232 982 l 232 583 q 450 714 292 714 q 615 650 553 714 q 678 472 678 586 l 678 0 z "},"i":{"ha":340,"x_min":85,"x_max":256,"o":"m 169 1006 q 188 1006 169 1006 q 231 981 206 1006 q 256 920 256 956 q 231 860 256 885 q 169 835 206 835 q 109 859 133 835 q 85 919 85 883 q 109 981 85 956 q 169 1006 133 1006 m 239 0 l 101 0 l 101 704 l 239 704 l 239 0 z "},"j":{"ha":336,"x_min":-61,"x_max":257,"o":"m 171 1006 q 189 1006 171 1006 q 232 981 207 1006 q 257 920 257 956 q 232 860 257 885 q 172 835 207 835 q 111 859 136 835 q 86 919 86 883 q 110 981 86 956 q 171 1006 135 1006 m 240 -62 q 188 -217 240 -161 q 40 -272 136 -272 q -61 -251 -4 -272 l -61 -136 q 28 -158 -17 -158 q 104 -60 104 -158 l 104 704 l 240 704 l 240 -62 z "},"k":{"ha":694,"x_min":96,"x_max":671,"o":"m 394 368 l 671 0 l 508 0 l 238 368 l 503 704 l 663 704 l 394 368 m 232 0 l 96 0 l 96 972 l 232 972 l 232 0 z "},"l":{"ha":340,"x_min":101,"x_max":239,"o":"m 239 0 l 101 0 l 101 982 l 239 982 l 239 0 z "},"m":{"ha":1153,"x_min":96,"x_max":1064,"o":"m 1064 0 l 928 0 l 928 444 q 806 596 928 596 q 697 542 744 596 q 649 382 649 488 l 649 0 l 513 0 l 513 444 q 389 596 513 596 q 281 542 329 596 q 232 382 232 488 l 232 0 l 96 0 l 96 704 l 232 704 l 232 592 q 431 714 292 714 q 633 578 589 714 q 718 678 663 643 q 843 714 774 714 q 1008 650 951 714 q 1064 474 1064 586 l 1064 0 z "},"n":{"ha":765,"x_min":96,"x_max":678,"o":"m 678 0 l 542 0 l 542 444 q 505 557 542 518 q 401 596 468 596 q 283 540 335 596 q 232 382 232 483 l 232 0 l 96 0 l 96 704 l 232 704 l 232 583 q 451 714 294 714 q 617 650 556 714 q 678 476 678 586 l 678 0 z "},"o":{"ha":783,"x_min":57,"x_max":726,"o":"m 394 599 q 346 599 394 599 q 249 527 299 599 q 199 351 199 456 q 250 174 199 246 q 393 103 301 103 q 534 172 485 103 q 583 350 583 242 q 536 528 583 458 q 394 599 489 599 m 639 612 q 683 561 639 612 q 726 351 726 510 q 637 90 726 193 q 391 -12 547 -12 q 146 89 235 -12 q 57 347 57 190 q 149 609 57 504 q 396 714 240 714 q 639 612 551 714 z "},"p":{"ha":806,"x_min":96,"x_max":749,"o":"m 426 594 q 387 594 426 594 q 290 537 347 594 q 232 356 232 479 q 290 171 232 232 q 425 110 347 110 q 556 174 503 110 q 608 352 608 239 q 557 530 608 465 q 426 594 506 594 m 232 -269 l 96 -269 l 96 704 l 232 704 l 232 596 q 446 714 304 714 q 668 613 588 714 q 749 355 749 513 q 666 94 749 197 q 444 -10 583 -10 q 232 107 306 -10 l 232 -269 z "},"q":{"ha":806,"x_min":57,"x_max":710,"o":"m 710 -269 l 572 -269 l 572 108 q 360 -10 497 -10 q 140 94 222 -10 q 57 355 57 197 q 138 613 57 513 q 358 714 219 714 q 572 599 497 714 l 572 704 l 710 704 l 710 -269 m 380 594 q 341 594 380 594 q 249 529 301 594 q 197 352 197 464 q 251 175 197 240 q 382 110 304 110 q 516 171 460 110 q 572 356 572 232 q 515 537 572 479 q 380 594 458 594 z "},"r":{"ha":471,"x_min":96,"x_max":460,"o":"m 232 0 l 96 0 l 96 704 l 232 704 l 232 581 q 417 711 283 711 q 460 707 436 711 l 460 574 q 394 586 431 586 q 278 524 324 586 q 232 375 232 461 l 232 0 z "},"s":{"ha":582,"x_min":76,"x_max":536,"o":"m 388 383 q 416 372 388 383 q 490 315 443 360 q 536 185 536 269 q 469 47 536 100 q 283 -7 403 -7 q 81 35 164 -7 l 81 164 q 282 104 178 104 q 366 126 336 104 q 396 182 396 149 q 372 240 396 215 q 324 276 349 264 q 242 313 300 288 q 76 513 76 381 q 146 658 76 606 q 324 711 215 711 q 497 681 433 711 l 497 557 q 322 597 429 597 q 245 575 274 597 q 217 517 217 553 q 253 451 217 474 q 270 440 264 444 q 291 428 276 435 q 313 417 306 421 q 388 383 333 407 z "},"t":{"ha":519,"x_min":25,"x_max":465,"o":"m 353 -7 q 135 214 135 -7 l 135 599 l 25 599 l 25 704 l 135 704 l 135 876 l 272 876 l 272 704 l 457 704 l 457 599 l 272 599 l 272 211 q 369 110 272 110 q 465 140 426 110 l 465 18 q 353 -7 419 -7 z "},"u":{"ha":765,"x_min":88,"x_max":669,"o":"m 669 0 l 533 0 l 533 121 q 314 -8 478 -8 q 149 53 210 -8 q 88 224 88 115 l 88 704 l 225 704 l 225 257 q 260 147 225 185 q 367 108 296 108 q 485 164 438 108 q 533 321 533 219 l 533 704 l 669 704 l 669 0 z "},"v":{"ha":714,"x_min":26,"x_max":688,"o":"m 432 0 l 276 0 l 26 704 l 169 704 q 356 107 338 181 q 447 407 368 175 l 546 704 l 688 704 l 432 0 z "},"w":{"ha":1106,"x_min":26,"x_max":1079,"o":"m 401 0 l 247 0 l 26 704 l 171 704 q 324 132 308 214 q 483 704 343 226 l 615 704 q 778 131 750 254 q 942 704 794 213 l 1079 704 l 856 0 l 700 0 q 550 556 575 440 q 401 0 532 469 z "},"x":{"ha":683,"x_min":31,"x_max":651,"o":"m 181 0 l 31 0 l 271 358 l 46 706 l 200 706 l 347 457 l 499 706 l 651 706 l 417 357 l 651 0 l 497 0 l 343 258 l 181 0 z "},"y":{"ha":700,"x_min":10,"x_max":682,"o":"m 118 -251 q 54 -244 81 -251 l 54 -128 q 101 -133 76 -133 q 290 15 236 -133 l 10 704 l 161 704 l 249 475 l 358 178 q 538 704 376 236 l 682 704 l 428 19 q 118 -251 326 -251 z "},"z":{"ha":640,"x_min":60,"x_max":581,"o":"m 581 0 l 60 0 l 60 104 l 401 590 l 72 590 l 72 704 l 563 704 l 563 607 l 217 115 l 581 115 l 581 0 z "},"{":{"ha":483,"x_min":64,"x_max":460,"o":"m 386 -269 q 250 -208 306 -269 q 194 -50 194 -147 q 207 47 194 -15 q 219 138 219 108 q 189 242 219 197 q 64 294 151 294 l 64 428 q 99 429 83 428 q 188 479 156 435 q 219 583 219 524 q 207 674 219 613 q 194 771 194 736 q 250 929 194 868 q 386 990 306 990 q 460 978 422 990 l 460 847 q 406 860 436 860 q 353 833 375 860 q 332 770 332 807 q 344 667 332 733 q 357 563 357 601 q 312 428 357 483 q 190 361 267 372 q 312 294 267 350 q 357 158 357 238 q 344 53 357 119 q 332 -49 332 -12 q 353 -112 332 -85 q 406 -139 375 -139 q 460 -126 436 -139 l 460 -257 q 386 -269 422 -269 z "},"|":{"ha":338,"x_min":106,"x_max":232,"o":"m 232 -269 l 106 -269 l 106 965 l 232 965 l 232 -269 z "},"}":{"ha":483,"x_min":24,"x_max":419,"o":"m 288 -50 q 233 -209 288 -149 q 96 -269 178 -269 q 24 -257 61 -269 l 24 -126 q 76 -139 44 -139 q 129 -112 107 -139 q 151 -49 151 -85 q 139 53 151 -12 q 126 158 126 119 q 171 294 126 238 q 292 361 215 350 q 171 428 215 372 q 126 563 126 483 q 139 667 126 601 q 151 769 151 733 q 129 833 151 806 q 76 860 107 860 q 24 847 44 860 l 24 978 q 96 990 61 990 q 233 930 178 990 q 288 771 288 869 q 275 674 288 736 q 263 583 263 613 q 294 479 263 524 q 385 429 326 435 q 419 428 399 428 l 419 294 q 297 246 331 294 q 263 138 263 197 q 275 47 263 108 q 288 -50 288 -15 z "},"~":{"ha":854,"x_min":47,"x_max":807,"o":"m 294 360 q 139 268 207 360 l 47 346 q 269 483 143 483 q 389 460 332 483 q 492 415 446 438 q 576 392 539 392 q 708 474 653 392 l 807 400 q 596 267 719 267 q 430 313 525 267 q 294 360 335 360 z "}," ":{"ha":342,"x_min":0,"x_max":0,"o":""},"¡":{"ha":364,"x_min":86,"x_max":276,"o":"m 249 691 q 263 677 249 691 q 276 624 276 664 q 248 556 276 583 q 180 528 219 528 q 113 556 140 528 q 86 624 86 583 q 113 691 86 664 q 181 718 140 718 q 249 691 221 718 m 249 -229 l 115 -229 l 115 410 l 249 410 l 249 -229 z "},"¢":{"ha":639,"x_min":57,"x_max":583,"o":"m 474 -154 l 357 -154 l 357 -7 q 138 114 219 15 q 58 349 57 213 q 138 585 58 485 q 357 707 218 685 l 357 857 l 474 857 l 474 710 q 583 678 532 703 l 583 556 q 442 593 517 593 q 265 524 332 593 q 197 349 199 456 q 265 175 200 243 q 442 107 329 107 q 583 146 517 107 l 583 24 q 474 -8 536 1 l 474 -154 z "},"£":{"ha":732,"x_min":78,"x_max":681,"o":"m 347 396 l 349 347 q 246 118 349 183 l 681 118 l 681 0 l 78 0 l 78 114 q 178 202 150 150 q 206 347 206 254 q 203 396 206 363 l 83 396 l 83 500 l 192 500 q 182 613 182 571 q 258 836 182 757 q 476 915 335 915 q 639 878 572 915 l 639 744 q 497 786 572 786 q 328 613 328 786 q 336 500 328 578 l 581 500 l 581 396 l 347 396 z "},"¤":{"ha":765,"x_min":44,"x_max":721,"o":"m 248 569 q 221 541 248 569 q 194 433 194 514 q 248 298 194 353 q 384 243 301 243 q 519 297 467 243 q 572 433 572 351 q 519 569 572 514 q 383 624 465 624 q 248 569 301 624 m 126 261 q 78 426 78 331 q 128 600 78 522 l 44 683 l 129 765 l 213 682 q 383 733 288 733 q 557 686 478 733 l 638 765 l 721 683 l 640 603 q 689 434 689 526 q 636 264 689 342 l 721 181 l 638 99 l 551 182 q 380 133 479 133 q 210 179 281 133 l 129 99 l 44 181 l 126 261 z "},"¥":{"ha":833,"x_min":36,"x_max":793,"o":"m 731 201 l 485 201 l 485 0 l 342 0 l 342 201 l 97 201 l 97 296 l 342 296 l 342 353 l 311 408 l 97 408 l 97 503 l 258 503 l 36 908 l 200 908 l 413 492 l 631 908 l 793 908 l 568 503 l 731 503 l 731 408 l 515 408 l 485 353 l 485 296 l 731 296 l 731 201 z "},"¦":{"ha":338,"x_min":106,"x_max":232,"o":"m 232 -222 l 106 -222 l 106 240 l 232 240 l 232 -222 m 232 510 l 106 510 l 106 972 l 232 972 l 232 510 z "},"§":{"ha":746,"x_min":74,"x_max":665,"o":"m 607 117 q 660 -25 660 54 q 574 -210 660 -144 q 342 -275 489 -275 q 93 -215 194 -275 l 93 -67 q 347 -149 203 -149 q 470 -117 426 -149 q 514 -31 514 -86 q 472 58 514 25 q 314 142 431 90 q 135 252 197 193 q 74 407 74 311 q 133 572 74 503 q 83 701 83 625 q 168 881 83 817 q 384 944 253 944 q 604 900 515 944 l 604 758 q 393 817 507 817 q 274 788 315 817 q 232 706 232 758 q 272 631 232 658 q 362 582 307 607 q 456 538 417 557 q 528 500 496 519 q 597 450 561 481 q 665 285 665 389 q 607 117 665 182 m 501 197 q 528 284 528 232 q 488 368 528 336 q 397 425 449 400 q 335 456 346 450 q 243 499 301 469 q 213 408 213 460 q 256 322 213 356 q 381 254 300 289 q 501 197 461 219 z "},"¨":{"ha":617,"x_min":71,"x_max":546,"o":"m 215 1058 q 227 1045 215 1058 q 239 999 239 1033 q 215 940 239 964 q 155 915 192 915 q 94 939 118 915 q 71 999 71 963 q 94 1058 71 1035 q 155 1082 118 1082 q 215 1058 192 1082 m 522 1058 q 534 1047 522 1058 q 546 999 546 1035 q 522 939 546 963 q 461 915 497 915 q 401 940 425 915 q 378 999 378 964 q 401 1058 378 1033 q 461 1082 425 1082 q 522 1058 497 1082 z "},"©":{"ha":1072,"x_min":57,"x_max":1015,"o":"m 270 733 q 216 678 270 733 q 161 467 161 624 q 270 201 161 310 q 537 92 379 92 q 803 201 694 92 q 911 467 911 310 q 802 733 911 624 q 536 843 693 843 q 270 733 379 843 m 874 806 q 945 736 874 806 q 1015 468 1015 665 q 874 129 1015 271 q 536 -12 733 -12 q 198 129 339 -12 q 57 468 57 271 q 198 806 57 665 q 536 947 339 947 q 874 806 733 947 m 563 214 q 381 286 451 214 q 310 465 310 358 q 379 647 310 572 q 567 721 449 721 q 685 692 632 721 l 685 590 q 574 621 638 621 q 467 578 510 621 q 424 467 424 536 q 467 355 425 399 q 572 311 508 311 q 685 346 636 311 l 685 243 q 563 214 635 214 z "},"ª":{"ha":507,"x_min":6,"x_max":465,"o":"m 192 539 q 56 586 107 539 q 6 715 6 633 q 70 846 6 797 q 251 894 135 894 l 349 894 l 349 925 q 319 1017 349 986 q 208 1049 290 1049 q 50 997 125 1049 l 50 1107 q 236 1147 121 1147 q 465 922 465 1147 l 465 544 l 351 544 l 351 618 q 192 539 297 539 m 125 719 q 125 698 125 719 q 151 653 125 676 q 229 631 178 631 q 315 662 281 631 q 349 738 349 693 l 349 808 l 269 808 q 163 785 200 808 q 125 719 125 761 z "},"«":{"ha":711,"x_min":38,"x_max":665,"o":"m 394 126 l 246 126 l 38 351 l 246 576 l 394 576 l 190 351 l 394 126 m 463 351 l 665 126 l 518 126 l 308 351 l 518 576 l 665 576 l 463 351 z "},"¬":{"ha":785,"x_min":43,"x_max":731,"o":"m 731 213 l 610 213 l 610 458 l 43 458 l 43 575 l 731 575 l 731 213 z "},"­":{"ha":486,"x_min":74,"x_max":413,"o":"m 413 313 l 74 313 l 74 429 l 413 429 l 413 313 z "},"®":{"ha":642,"x_min":14,"x_max":628,"o":"m 151 959 q 118 926 151 959 q 86 788 86 893 q 151 617 86 682 q 322 551 215 551 q 492 617 428 551 q 557 788 557 682 q 492 959 557 893 q 322 1025 428 1025 q 151 959 215 1025 m 541 1007 q 584 964 541 1007 q 628 788 628 921 q 541 568 628 654 q 321 482 454 482 q 101 568 188 482 q 14 788 14 654 q 101 1007 14 921 q 321 1093 188 1093 q 541 1007 454 1093 m 321 896 l 292 896 l 292 808 l 325 808 q 365 852 365 808 q 321 896 365 896 m 292 644 l 226 644 l 226 950 l 315 950 q 432 853 432 950 q 382 767 432 792 l 460 644 l 382 644 l 315 756 l 292 756 l 292 644 z "},"¯":{"ha":617,"x_min":97,"x_max":519,"o":"m 519 946 l 97 946 l 97 1040 l 519 1040 l 519 946 z "},"°":{"ha":528,"x_min":42,"x_max":486,"o":"m 179 809 q 163 791 179 809 q 146 724 146 774 q 181 638 146 674 q 265 603 215 603 q 349 638 315 603 q 382 724 382 674 q 347 809 382 774 q 263 844 313 844 q 179 809 213 844 m 265 943 q 313 943 265 943 q 423 881 360 943 q 486 724 486 818 q 422 567 486 631 q 263 504 357 504 q 105 566 168 504 q 42 722 42 628 q 106 879 42 815 q 265 943 171 943 z "},"±":{"ha":783,"x_min":74,"x_max":708,"o":"m 708 42 l 74 42 l 74 158 l 708 158 l 708 42 m 708 457 l 451 457 l 451 235 l 325 235 l 325 457 l 74 457 l 74 575 l 325 575 l 325 797 l 451 797 l 451 575 l 708 575 l 708 457 z "},"²":{"ha":507,"x_min":60,"x_max":454,"o":"m 454 544 l 60 544 l 60 624 q 324 954 324 819 q 297 1024 324 1000 q 224 1049 269 1049 q 78 993 153 1049 l 78 1103 q 235 1149 151 1149 q 377 1100 319 1149 q 435 967 435 1051 q 371 797 435 882 q 203 635 307 711 l 454 635 l 454 544 z "},"³":{"ha":463,"x_min":49,"x_max":414,"o":"m 289 849 q 378 804 342 843 q 414 699 414 765 q 361 585 414 632 q 213 539 308 539 q 49 574 118 539 l 49 671 q 186 632 122 632 q 306 715 306 632 q 175 801 306 801 l 146 801 l 146 892 l 175 892 q 257 913 225 892 q 289 975 289 935 q 197 1054 289 1054 q 67 1008 133 1054 l 67 1111 q 211 1149 126 1149 q 347 1102 296 1149 q 399 993 399 1056 q 289 849 399 872 z "},"´":{"ha":617,"x_min":168,"x_max":451,"o":"m 285 883 l 168 883 l 300 1108 l 451 1108 l 285 883 z "},"µ":{"ha":774,"x_min":96,"x_max":678,"o":"m 232 -249 l 96 -249 l 96 704 l 232 704 l 232 257 q 277 147 232 186 q 392 108 322 108 q 501 163 461 108 q 542 321 542 218 l 542 704 l 678 704 l 678 0 l 542 0 l 542 100 q 368 -8 492 -8 q 232 32 289 -8 l 232 -249 z "},"¶":{"ha":776,"x_min":29,"x_max":678,"o":"m 678 -206 l 563 -206 l 564 936 l 678 936 l 678 -206 m 413 -206 l 299 -206 l 299 464 q 100 531 171 464 q 29 697 29 599 q 101 866 29 796 q 308 936 172 936 l 413 936 l 413 -206 z "},"·":{"ha":336,"x_min":75,"x_max":263,"o":"m 235 483 q 249 469 235 483 q 263 417 263 456 q 235 350 263 378 q 169 322 208 322 q 103 350 131 322 q 75 417 75 378 q 102 483 75 456 q 169 510 129 510 q 235 483 208 510 z "},"¸":{"ha":617,"x_min":197,"x_max":418,"o":"m 393 -71 q 418 -177 418 -106 q 361 -302 418 -249 q 197 -357 304 -356 l 197 -262 q 311 -167 311 -256 q 276 -71 311 -122 l 393 -71 z "},"¹":{"ha":358,"x_min":14,"x_max":269,"o":"m 269 544 l 165 544 l 165 1025 l 14 942 l 14 1046 l 183 1143 l 269 1143 l 269 544 z "},"º":{"ha":549,"x_min":-1,"x_max":550,"o":"m 276 1054 q 238 1054 276 1054 q 158 993 199 1054 q 118 842 118 932 q 160 692 118 753 q 276 632 201 632 q 390 691 350 632 q 429 842 429 750 q 392 994 429 935 q 276 1054 354 1054 m 278 1150 q 342 1150 278 1150 q 478 1064 407 1150 q 550 844 550 978 q 477 623 550 710 q 274 536 404 536 q 72 622 144 536 q -1 840 -1 707 q 74 1062 -1 974 q 278 1150 149 1150 z "},"»":{"ha":714,"x_min":46,"x_max":674,"o":"m 193 126 l 46 126 l 249 351 l 46 576 l 193 576 l 403 351 l 193 126 m 674 351 l 465 126 l 318 126 l 521 351 l 318 576 l 465 576 l 674 351 z "},"¼":{"ha":1154,"x_min":68,"x_max":1107,"o":"m 1025 0 l 924 0 l 924 132 l 651 132 l 651 217 l 867 596 l 1025 596 l 1025 217 l 1107 217 l 1107 132 l 1025 132 l 1025 0 m 924 217 l 924 518 l 756 217 l 924 217 m 324 389 l 219 389 l 219 869 l 68 788 l 68 892 l 238 988 l 324 988 l 324 389 m 306 0 l 192 0 l 808 989 l 922 989 l 306 0 z "},"½":{"ha":1157,"x_min":68,"x_max":1111,"o":"m 1111 0 l 717 0 l 717 79 q 981 410 981 275 q 953 480 981 456 q 881 504 926 504 q 735 449 810 504 l 735 558 q 892 604 808 604 q 1034 556 976 604 q 1092 422 1092 507 q 1028 252 1092 338 q 860 90 964 167 l 1111 90 l 1111 0 m 324 389 l 219 389 l 219 869 l 68 788 l 68 892 l 238 988 l 324 988 l 324 389 m 306 0 l 192 0 l 808 989 l 922 989 l 306 0 z "},"¾":{"ha":1217,"x_min":81,"x_max":1183,"o":"m 1101 0 l 1000 0 l 1000 132 l 728 132 l 728 217 l 943 596 l 1101 596 l 1101 217 l 1183 217 l 1183 132 l 1101 132 l 1101 0 m 1000 217 l 1000 518 l 833 217 l 1000 217 m 321 692 q 409 649 372 688 q 446 542 446 610 q 393 429 446 475 q 245 383 340 383 q 81 418 150 383 l 81 515 q 217 476 153 476 q 310 499 282 476 q 338 560 338 522 q 207 646 338 646 l 176 646 l 176 735 l 207 735 q 288 757 256 735 q 321 819 321 779 q 229 899 321 899 q 99 853 163 899 l 99 956 q 243 993 158 993 q 379 947 328 993 q 431 838 431 900 q 321 692 431 715 m 382 0 l 268 0 l 885 989 l 1000 989 l 382 0 z "},"¿":{"ha":631,"x_min":71,"x_max":581,"o":"m 466 691 q 480 677 466 691 q 493 624 493 664 q 466 556 493 583 q 399 529 439 529 q 331 556 358 529 q 303 624 303 583 q 331 691 303 664 q 399 718 358 718 q 466 691 439 718 m 581 -189 q 358 -240 486 -240 q 150 -173 229 -240 q 71 14 71 -106 q 114 156 71 96 q 331 271 192 261 l 332 411 l 461 411 l 463 186 q 211 25 211 186 q 252 -80 211 -40 q 386 -119 293 -119 q 581 -54 479 -119 l 581 -189 z "},"À":{"ha":917,"x_min":43,"x_max":874,"o":"m 513 1007 l 396 1007 l 229 1232 l 381 1232 l 513 1007 m 194 0 l 43 0 l 367 936 l 554 936 l 874 0 l 721 0 l 647 229 l 269 229 l 194 0 m 460 828 q 308 349 450 788 l 608 349 q 460 828 488 722 z "},"Á":{"ha":917,"x_min":43,"x_max":874,"o":"m 531 1007 l 414 1007 l 546 1232 l 697 1232 l 531 1007 m 194 0 l 43 0 l 367 936 l 554 936 l 874 0 l 721 0 l 647 229 l 269 229 l 194 0 m 460 828 q 308 349 450 788 l 608 349 q 460 828 488 722 z "},"Â":{"ha":917,"x_min":43,"x_max":874,"o":"m 347 1007 l 213 1007 l 400 1232 l 525 1232 l 713 1007 l 578 1007 l 461 1149 l 347 1007 m 194 0 l 43 0 l 367 936 l 554 936 l 874 0 l 721 0 l 647 229 l 269 229 l 194 0 m 460 828 q 308 349 450 788 l 608 349 q 460 828 488 722 z "},"Ã":{"ha":917,"x_min":43,"x_max":874,"o":"m 556 1044 q 459 1073 515 1044 q 375 1101 403 1101 q 283 1038 326 1101 l 215 1100 q 274 1173 235 1143 q 360 1203 314 1203 q 464 1174 406 1203 q 549 1146 522 1146 q 629 1206 600 1146 l 707 1147 q 556 1044 658 1044 m 194 0 l 43 0 l 367 936 l 554 936 l 874 0 l 721 0 l 647 229 l 269 229 l 194 0 m 460 828 q 308 349 450 788 l 608 349 q 460 828 488 722 z "},"Ä":{"ha":917,"x_min":43,"x_max":874,"o":"m 372 1180 q 384 1168 372 1180 q 396 1121 396 1156 q 372 1062 396 1086 q 311 1038 347 1038 q 251 1061 275 1038 q 228 1121 228 1085 q 251 1181 228 1157 q 311 1204 275 1204 q 372 1180 347 1204 m 678 1181 q 691 1169 678 1181 q 703 1121 703 1157 q 678 1061 703 1085 q 619 1038 654 1038 q 559 1062 583 1038 q 535 1121 535 1086 q 559 1180 535 1156 q 619 1204 583 1204 q 678 1181 654 1204 m 194 0 l 43 0 l 367 936 l 554 936 l 874 0 l 721 0 l 647 229 l 269 229 l 194 0 m 460 828 q 308 349 450 788 l 608 349 q 460 828 488 722 z "},"Å":{"ha":917,"x_min":43,"x_max":874,"o":"m 410 1207 q 400 1196 410 1207 q 389 1154 389 1185 q 410 1101 389 1124 q 463 1078 432 1078 q 516 1101 494 1078 q 538 1154 538 1124 q 516 1207 538 1185 q 463 1229 494 1229 q 410 1207 432 1229 m 463 1313 q 496 1313 463 1313 q 576 1265 529 1313 q 624 1152 624 1218 q 576 1040 624 1086 q 463 993 529 993 q 351 1040 397 993 q 304 1152 304 1086 q 351 1265 304 1218 q 463 1313 397 1313 m 194 0 l 43 0 l 367 936 l 554 936 l 874 0 l 721 0 l 647 229 l 269 229 l 194 0 m 460 828 q 308 349 450 788 l 608 349 q 460 828 488 722 z "},"Æ":{"ha":1246,"x_min":26,"x_max":1174,"o":"m 638 349 l 638 844 q 369 349 567 701 l 638 349 m 1167 936 l 1167 817 l 776 817 l 776 528 l 1122 528 l 1122 408 l 776 408 l 776 119 l 1174 119 l 1174 0 l 638 0 l 638 229 l 303 229 l 176 0 l 26 0 l 535 936 l 1167 936 z "},"Ç":{"ha":840,"x_min":64,"x_max":779,"o":"m 572 -71 q 597 -177 597 -106 q 540 -302 597 -249 q 376 -357 483 -356 l 376 -262 q 490 -167 490 -256 q 456 -71 490 -122 l 572 -71 m 540 -11 q 197 119 331 -11 q 64 466 64 250 q 198 815 64 682 q 538 949 332 949 q 778 897 688 949 l 778 757 q 667 803 717 790 q 542 817 618 817 q 308 722 401 817 q 214 468 214 626 q 307 215 214 310 q 544 121 400 121 q 779 190 688 121 l 779 46 q 540 -11 693 -11 z "},"È":{"ha":714,"x_min":101,"x_max":642,"o":"m 454 1007 l 338 1007 l 171 1232 l 322 1232 l 454 1007 m 642 0 l 101 0 l 101 936 l 635 936 l 635 817 l 244 817 l 244 528 l 590 528 l 590 408 l 244 408 l 244 119 l 642 119 l 642 0 z "},"É":{"ha":714,"x_min":101,"x_max":642,"o":"m 447 1007 l 331 1007 l 463 1232 l 614 1232 l 447 1007 m 642 0 l 101 0 l 101 936 l 635 936 l 635 817 l 244 817 l 244 528 l 590 528 l 590 408 l 244 408 l 244 119 l 642 119 l 642 0 z "},"Ê":{"ha":714,"x_min":101,"x_max":642,"o":"m 264 1007 l 129 1007 l 317 1232 l 442 1232 l 629 1007 l 494 1007 l 378 1149 l 264 1007 m 642 0 l 101 0 l 101 936 l 635 936 l 635 817 l 244 817 l 244 528 l 590 528 l 590 408 l 244 408 l 244 119 l 642 119 l 642 0 z "},"Ë":{"ha":714,"x_min":101,"x_max":642,"o":"m 280 1179 q 292 1167 280 1179 q 304 1119 304 1156 q 280 1060 304 1083 q 219 1036 256 1036 q 160 1060 183 1036 q 136 1119 136 1083 q 160 1179 136 1156 q 219 1203 183 1203 q 280 1179 256 1203 m 587 1179 q 599 1167 587 1179 q 611 1119 611 1156 q 587 1060 611 1083 q 527 1036 563 1036 q 467 1060 492 1036 q 443 1119 443 1083 q 467 1179 443 1156 q 527 1203 492 1203 q 587 1179 563 1203 m 642 0 l 101 0 l 101 936 l 635 936 l 635 817 l 244 817 l 244 528 l 590 528 l 590 408 l 244 408 l 244 119 l 642 119 l 642 0 z "},"Ì":{"ha":367,"x_min":-49,"x_max":254,"o":"m 235 1007 l 118 1007 l -49 1232 l 103 1232 l 235 1007 m 254 0 l 113 0 l 113 936 l 254 936 l 254 0 z "},"Í":{"ha":367,"x_min":113,"x_max":414,"o":"m 247 1007 l 131 1007 l 263 1232 l 414 1232 l 247 1007 m 254 0 l 113 0 l 113 936 l 254 936 l 254 0 z "},"Î":{"ha":367,"x_min":-65,"x_max":435,"o":"m 69 1007 l -65 1007 l 122 1232 l 247 1232 l 435 1007 l 300 1007 l 183 1149 l 69 1007 m 254 0 l 113 0 l 113 936 l 254 936 l 254 0 z "},"Ï":{"ha":367,"x_min":-50,"x_max":425,"o":"m 94 1180 q 106 1168 94 1180 q 118 1121 118 1156 q 94 1062 118 1086 q 33 1038 69 1038 q -26 1061 -3 1038 q -50 1121 -50 1085 q -26 1181 -50 1157 q 33 1204 -3 1204 q 94 1180 69 1204 m 401 1181 q 413 1169 401 1181 q 425 1121 425 1157 q 401 1061 425 1085 q 341 1038 376 1038 q 281 1062 306 1038 q 257 1121 257 1086 q 281 1180 257 1156 q 341 1204 306 1204 q 401 1181 376 1204 m 254 0 l 113 0 l 113 936 l 254 936 l 254 0 z "},"Ð":{"ha":1022,"x_min":86,"x_max":963,"o":"m 569 408 l 342 408 l 342 121 l 489 121 q 733 221 650 121 q 817 472 817 321 q 726 718 817 622 q 485 814 635 814 l 342 814 l 342 525 l 569 525 l 569 408 m 490 0 l 197 0 l 197 408 l 86 408 l 86 525 l 197 525 l 197 936 l 488 936 q 829 807 696 936 q 963 474 963 678 q 837 135 963 269 q 490 0 711 0 z "},"Ñ":{"ha":944,"x_min":101,"x_max":843,"o":"m 578 1044 q 481 1073 538 1044 q 397 1101 425 1101 q 306 1038 349 1101 l 238 1100 q 297 1173 257 1143 q 382 1203 336 1203 q 486 1174 428 1203 q 571 1146 544 1146 q 651 1206 622 1146 l 729 1147 q 578 1044 681 1044 m 244 0 l 101 0 l 101 936 l 271 936 q 708 172 631 325 q 700 543 700 299 l 700 936 l 843 936 l 843 0 l 674 0 q 233 765 319 596 q 244 392 244 626 l 244 0 z "},"Ò":{"ha":988,"x_min":64,"x_max":924,"o":"m 565 1007 l 449 1007 l 282 1232 l 433 1232 l 565 1007 m 288 727 q 251 680 288 727 q 214 472 214 633 q 290 217 214 311 q 497 122 367 122 q 700 215 626 122 q 774 472 774 308 q 699 728 774 635 q 494 821 625 821 q 288 727 363 821 m 808 823 q 866 757 808 823 q 924 472 924 692 q 808 121 924 253 q 495 -11 692 -11 q 181 121 299 -11 q 64 472 64 253 q 181 822 64 690 q 495 954 297 954 q 808 823 693 954 z "},"Ó":{"ha":988,"x_min":64,"x_max":924,"o":"m 561 1007 l 444 1007 l 576 1232 l 728 1232 l 561 1007 m 288 727 q 251 680 288 727 q 214 472 214 633 q 290 217 214 311 q 497 122 367 122 q 700 215 626 122 q 774 472 774 308 q 699 728 774 635 q 494 821 625 821 q 288 727 363 821 m 808 823 q 866 757 808 823 q 924 472 924 692 q 808 121 924 253 q 495 -11 692 -11 q 181 121 299 -11 q 64 472 64 253 q 181 822 64 690 q 495 954 297 954 q 808 823 693 954 z "},"Ô":{"ha":988,"x_min":64,"x_max":924,"o":"m 388 1007 l 253 1007 l 440 1232 l 565 1232 l 753 1007 l 618 1007 l 501 1149 l 388 1007 m 288 727 q 251 680 288 727 q 214 472 214 633 q 290 217 214 311 q 497 122 367 122 q 700 215 626 122 q 774 472 774 308 q 699 728 774 635 q 494 821 625 821 q 288 727 363 821 m 808 823 q 866 757 808 823 q 924 472 924 692 q 808 121 924 253 q 495 -11 692 -11 q 181 121 299 -11 q 64 472 64 253 q 181 822 64 690 q 495 954 297 954 q 808 823 693 954 z "},"Õ":{"ha":988,"x_min":64,"x_max":924,"o":"m 590 1046 q 494 1074 550 1046 q 411 1103 438 1103 q 318 1039 361 1103 l 250 1101 q 309 1174 269 1144 q 394 1204 349 1204 q 499 1176 440 1204 q 583 1147 557 1147 q 664 1207 635 1147 l 742 1149 q 590 1046 693 1046 m 288 727 q 251 680 288 727 q 214 472 214 633 q 290 217 214 311 q 497 122 367 122 q 700 215 626 122 q 774 472 774 308 q 699 728 774 635 q 494 821 625 821 q 288 727 363 821 m 808 823 q 866 757 808 823 q 924 472 924 692 q 808 121 924 253 q 495 -11 692 -11 q 181 121 299 -11 q 64 472 64 253 q 181 822 64 690 q 495 954 297 954 q 808 823 693 954 z "},"Ö":{"ha":988,"x_min":64,"x_max":924,"o":"m 408 1180 q 420 1168 408 1180 q 432 1121 432 1156 q 408 1062 432 1086 q 347 1038 383 1038 q 288 1061 311 1038 q 264 1121 264 1085 q 288 1181 264 1157 q 347 1204 311 1204 q 408 1180 383 1204 m 715 1181 q 727 1169 715 1181 q 739 1121 739 1157 q 715 1061 739 1085 q 655 1038 690 1038 q 595 1062 619 1038 q 571 1121 571 1086 q 595 1180 571 1156 q 655 1204 619 1204 q 715 1181 690 1204 m 288 727 q 251 680 288 727 q 214 472 214 633 q 290 217 214 311 q 497 122 367 122 q 700 215 626 122 q 774 472 774 308 q 699 728 774 635 q 494 821 625 821 q 288 727 363 821 m 808 823 q 866 757 808 823 q 924 472 924 692 q 808 121 924 253 q 495 -11 692 -11 q 181 121 299 -11 q 64 472 64 253 q 181 822 64 690 q 495 954 297 954 q 808 823 693 954 z "},"×":{"ha":699,"x_min":75,"x_max":621,"o":"m 618 292 l 531 204 l 349 385 l 168 206 l 79 293 l 260 474 l 75 657 l 163 744 l 347 561 l 532 744 l 621 656 l 436 472 l 618 292 z "},"Ø":{"ha":953,"x_min":56,"x_max":918,"o":"m 488 117 q 695 212 621 117 q 769 472 769 307 q 722 690 769 603 l 331 164 q 488 117 397 117 m 486 826 q 278 731 354 826 q 203 489 203 636 q 253 253 203 342 l 644 781 q 486 826 582 826 m 813 810 q 917 466 917 679 q 801 121 917 253 q 488 -11 685 -11 q 250 56 351 -11 l 200 -11 l 56 -11 l 163 133 q 56 477 56 264 q 172 822 56 690 q 486 954 289 954 q 725 889 622 954 l 774 953 l 918 953 l 813 810 z "},"Ù":{"ha":906,"x_min":99,"x_max":807,"o":"m 517 1007 l 400 1007 l 233 1232 l 385 1232 l 517 1007 m 807 358 q 713 82 807 176 q 453 -12 618 -12 q 193 80 288 -12 q 99 347 99 172 l 99 936 l 242 936 l 242 349 q 299 174 242 229 q 451 119 357 119 q 664 356 664 119 l 664 936 l 807 936 l 807 358 z "},"Ú":{"ha":906,"x_min":99,"x_max":807,"o":"m 529 1007 l 413 1007 l 544 1232 l 696 1232 l 529 1007 m 807 358 q 713 82 807 176 q 453 -12 618 -12 q 193 80 288 -12 q 99 347 99 172 l 99 936 l 242 936 l 242 349 q 299 174 242 229 q 451 119 357 119 q 664 356 664 119 l 664 936 l 807 936 l 807 358 z "},"Û":{"ha":906,"x_min":99,"x_max":807,"o":"m 339 1007 l 204 1007 l 392 1232 l 517 1232 l 704 1007 l 569 1007 l 453 1149 l 339 1007 m 807 358 q 713 82 807 176 q 453 -12 618 -12 q 193 80 288 -12 q 99 347 99 172 l 99 936 l 242 936 l 242 349 q 299 174 242 229 q 451 119 357 119 q 664 356 664 119 l 664 936 l 807 936 l 807 358 z "},"Ü":{"ha":906,"x_min":99,"x_max":807,"o":"m 363 1180 q 374 1168 363 1180 q 386 1121 386 1156 q 363 1062 386 1086 q 302 1038 339 1038 q 242 1061 265 1038 q 218 1121 218 1085 q 242 1181 218 1157 q 302 1204 265 1204 q 363 1180 339 1204 m 669 1181 q 681 1169 669 1181 q 693 1121 693 1157 q 669 1061 693 1085 q 608 1038 644 1038 q 549 1062 572 1038 q 525 1121 525 1086 q 549 1180 525 1156 q 608 1204 572 1204 q 669 1181 644 1204 m 807 358 q 713 82 807 176 q 453 -12 618 -12 q 193 80 288 -12 q 99 347 99 172 l 99 936 l 242 936 l 242 349 q 299 174 242 229 q 451 119 357 119 q 664 356 664 119 l 664 936 l 807 936 l 807 358 z "},"Ý":{"ha":844,"x_min":32,"x_max":813,"o":"m 503 1007 l 386 1007 l 518 1232 l 669 1232 l 503 1007 m 492 0 l 349 0 l 349 349 l 32 936 l 196 936 q 419 465 394 525 q 581 799 432 507 l 649 936 l 813 936 l 492 349 l 492 0 z "},"Þ":{"ha":756,"x_min":101,"x_max":713,"o":"m 360 651 l 244 651 l 244 285 l 368 285 q 518 334 468 285 q 568 465 568 383 q 517 599 568 547 q 360 651 467 651 m 371 167 l 244 167 l 244 0 l 101 0 l 101 936 l 244 936 l 244 769 l 363 769 q 620 685 528 769 q 713 466 713 601 q 619 249 713 331 q 371 167 526 167 z "},"ß":{"ha":775,"x_min":99,"x_max":738,"o":"m 738 199 q 674 47 738 106 q 499 -11 610 -11 q 367 11 417 -11 l 367 136 q 485 103 426 103 q 574 128 543 103 q 606 190 606 153 q 585 256 606 228 q 533 308 564 285 q 472 356 503 331 q 400 489 400 413 q 451 614 400 544 q 503 731 503 683 q 469 806 503 778 q 381 835 436 835 q 233 681 233 835 l 233 0 l 99 0 l 99 675 q 174 886 99 814 q 372 958 249 958 q 569 894 496 958 q 642 738 642 829 q 617 634 642 679 q 567 558 592 589 q 543 500 543 526 q 574 444 543 474 q 640 390 604 415 q 707 313 676 364 q 738 199 738 263 z "},"à":{"ha":693,"x_min":60,"x_max":606,"o":"m 418 775 l 301 775 l 135 1000 l 286 1000 l 418 775 m 281 -6 q 120 52 181 -6 q 60 205 60 110 q 136 356 60 300 q 350 413 213 413 l 467 413 l 467 453 q 432 562 467 525 q 317 599 397 599 q 113 536 204 599 l 113 668 q 329 715 194 715 q 606 447 606 715 l 606 0 l 471 0 l 471 83 q 281 -6 417 -6 m 204 205 q 204 181 204 205 q 235 129 204 157 q 328 101 265 101 q 428 138 390 101 q 467 235 467 175 l 467 314 l 361 314 q 244 283 283 314 q 204 205 204 253 z "},"á":{"ha":693,"x_min":60,"x_max":606,"o":"m 415 775 l 299 775 l 431 1000 l 582 1000 l 415 775 m 281 -6 q 120 52 181 -6 q 60 205 60 110 q 136 356 60 300 q 350 413 213 413 l 467 413 l 467 453 q 432 562 467 525 q 317 599 397 599 q 113 536 204 599 l 113 668 q 329 715 194 715 q 606 447 606 715 l 606 0 l 471 0 l 471 83 q 281 -6 417 -6 m 204 205 q 204 181 204 205 q 235 129 204 157 q 328 101 265 101 q 428 138 390 101 q 467 235 467 175 l 467 314 l 361 314 q 244 283 283 314 q 204 205 204 253 z "},"â":{"ha":693,"x_min":60,"x_max":606,"o":"m 239 775 l 104 775 l 292 1000 l 417 1000 l 604 775 l 469 775 l 353 917 l 239 775 m 281 -6 q 120 52 181 -6 q 60 205 60 110 q 136 356 60 300 q 350 413 213 413 l 467 413 l 467 453 q 432 562 467 525 q 317 599 397 599 q 113 536 204 599 l 113 668 q 329 715 194 715 q 606 447 606 715 l 606 0 l 471 0 l 471 83 q 281 -6 417 -6 m 204 205 q 204 181 204 205 q 235 129 204 157 q 328 101 265 101 q 428 138 390 101 q 467 235 467 175 l 467 314 l 361 314 q 244 283 283 314 q 204 205 204 253 z "},"ã":{"ha":693,"x_min":60,"x_max":606,"o":"m 444 813 q 348 841 404 813 q 264 869 292 869 q 172 806 215 869 l 104 868 q 163 941 124 911 q 249 971 203 971 q 353 942 294 971 q 438 914 411 914 q 518 974 489 914 l 596 915 q 444 813 547 813 m 281 -6 q 120 52 181 -6 q 60 205 60 110 q 136 356 60 300 q 350 413 213 413 l 467 413 l 467 453 q 432 562 467 525 q 317 599 397 599 q 113 536 204 599 l 113 668 q 329 715 194 715 q 606 447 606 715 l 606 0 l 471 0 l 471 83 q 281 -6 417 -6 m 204 205 q 204 181 204 205 q 235 129 204 157 q 328 101 265 101 q 428 138 390 101 q 467 235 467 175 l 467 314 l 361 314 q 244 283 283 314 q 204 205 204 253 z "},"ä":{"ha":693,"x_min":60,"x_max":606,"o":"m 263 946 q 274 934 263 946 q 286 886 286 922 q 263 826 286 850 q 202 803 239 803 q 142 826 165 803 q 118 886 118 850 q 142 946 118 922 q 202 969 165 969 q 263 946 239 969 m 569 946 q 581 934 569 946 q 593 886 593 922 q 569 826 593 850 q 508 803 544 803 q 449 826 472 803 q 425 886 425 850 q 449 946 425 922 q 508 969 472 969 q 569 946 544 969 m 281 -6 q 120 52 181 -6 q 60 205 60 110 q 136 356 60 300 q 350 413 213 413 l 467 413 l 467 453 q 432 562 467 525 q 317 599 397 599 q 113 536 204 599 l 113 668 q 329 715 194 715 q 606 447 606 715 l 606 0 l 471 0 l 471 83 q 281 -6 417 -6 m 204 205 q 204 181 204 205 q 235 129 204 157 q 328 101 265 101 q 428 138 390 101 q 467 235 467 175 l 467 314 l 361 314 q 244 283 283 314 q 204 205 204 253 z "},"å":{"ha":693,"x_min":60,"x_max":606,"o":"m 303 975 q 293 964 303 975 q 282 922 282 953 q 303 869 282 892 q 356 846 325 846 q 409 869 388 846 q 431 922 431 892 q 409 975 431 953 q 356 997 388 997 q 303 975 325 997 m 356 1081 q 389 1081 356 1081 q 469 1033 422 1081 q 517 920 517 986 q 469 808 517 854 q 356 761 422 761 q 244 808 290 761 q 197 920 197 854 q 244 1033 197 986 q 356 1081 290 1081 m 281 -6 q 120 52 181 -6 q 60 205 60 110 q 136 356 60 300 q 350 413 213 413 l 467 413 l 467 453 q 432 562 467 525 q 317 599 397 599 q 113 536 204 599 l 113 668 q 329 715 194 715 q 606 447 606 715 l 606 0 l 471 0 l 471 83 q 281 -6 417 -6 m 204 205 q 204 181 204 205 q 235 129 204 157 q 328 101 265 101 q 428 138 390 101 q 467 235 467 175 l 467 314 l 361 314 q 244 283 283 314 q 204 205 204 253 z "},"æ":{"ha":1133,"x_min":67,"x_max":1078,"o":"m 946 428 q 903 555 944 510 q 791 600 861 600 q 670 550 721 600 q 607 403 619 500 l 946 403 l 946 428 m 210 204 q 240 130 210 157 q 331 103 271 103 q 433 141 392 103 q 474 243 474 179 l 474 313 l 381 313 q 210 204 210 313 m 549 133 q 459 33 522 72 q 294 -7 396 -7 q 130 49 193 -7 q 67 202 67 104 q 144 357 67 300 q 360 414 221 414 l 474 414 l 474 453 q 439 562 474 525 q 308 599 404 599 q 119 538 213 599 l 119 667 q 331 715 200 715 q 553 597 504 715 q 789 713 631 713 q 1002 628 926 713 q 1078 382 1078 543 q 1069 296 1078 343 l 610 296 q 688 156 625 204 q 853 107 751 107 q 1029 160 954 107 l 1029 38 q 847 -7 951 -7 q 666 30 743 -7 q 549 133 589 67 z "},"ç":{"ha":654,"x_min":57,"x_max":593,"o":"m 458 -71 q 483 -177 483 -106 q 426 -302 483 -249 q 263 -357 369 -356 l 263 -262 q 376 -167 376 -256 q 342 -71 376 -122 l 458 -71 m 419 -14 q 156 90 254 -14 q 57 348 57 194 q 156 609 57 501 q 425 717 256 717 q 593 678 517 717 l 593 553 q 427 596 525 596 q 263 526 329 596 q 197 349 197 457 q 263 173 200 242 q 438 104 325 104 q 593 150 521 104 l 593 28 q 419 -14 525 -14 z "},"è":{"ha":729,"x_min":57,"x_max":665,"o":"m 450 775 l 333 775 l 167 1000 l 318 1000 l 450 775 m 533 428 q 490 553 531 507 q 378 600 450 600 q 256 549 306 600 q 193 403 206 499 l 533 403 l 533 428 m 415 -7 q 154 92 251 -7 q 57 355 57 190 q 146 616 57 519 q 371 713 235 713 q 586 628 507 713 q 665 386 665 544 q 657 296 665 343 l 194 296 q 272 156 208 204 q 441 107 336 107 q 621 160 546 107 l 621 38 q 415 -7 543 -7 z "},"é":{"ha":729,"x_min":57,"x_max":665,"o":"m 456 775 l 339 775 l 471 1000 l 622 1000 l 456 775 m 533 428 q 490 553 531 507 q 378 600 450 600 q 256 549 306 600 q 193 403 206 499 l 533 403 l 533 428 m 415 -7 q 154 92 251 -7 q 57 355 57 190 q 146 616 57 519 q 371 713 235 713 q 586 628 507 713 q 665 386 665 544 q 657 296 665 343 l 194 296 q 272 156 208 204 q 441 107 336 107 q 621 160 546 107 l 621 38 q 415 -7 543 -7 z "},"ê":{"ha":729,"x_min":57,"x_max":665,"o":"m 271 775 l 136 775 l 324 1000 l 449 1000 l 636 775 l 501 775 l 385 917 l 271 775 m 533 428 q 490 553 531 507 q 378 600 450 600 q 256 549 306 600 q 193 403 206 499 l 533 403 l 533 428 m 415 -7 q 154 92 251 -7 q 57 355 57 190 q 146 616 57 519 q 371 713 235 713 q 586 628 507 713 q 665 386 665 544 q 657 296 665 343 l 194 296 q 272 156 208 204 q 441 107 336 107 q 621 160 546 107 l 621 38 q 415 -7 543 -7 z "},"ë":{"ha":729,"x_min":57,"x_max":665,"o":"m 299 949 q 310 937 299 949 q 322 889 322 925 q 299 829 322 853 q 238 806 275 806 q 178 829 201 806 q 154 889 154 853 q 178 949 154 925 q 238 972 201 972 q 299 949 275 972 m 605 949 q 617 937 605 949 q 629 889 629 925 q 605 829 629 853 q 544 806 581 806 q 485 829 508 806 q 461 889 461 853 q 485 949 461 925 q 544 972 508 972 q 605 949 581 972 m 533 428 q 490 553 531 507 q 378 600 450 600 q 256 549 306 600 q 193 403 206 499 l 533 403 l 533 428 m 415 -7 q 154 92 251 -7 q 57 355 57 190 q 146 616 57 519 q 371 713 235 713 q 586 628 507 713 q 665 386 665 544 q 657 296 665 343 l 194 296 q 272 156 208 204 q 441 107 336 107 q 621 160 546 107 l 621 38 q 415 -7 543 -7 z "},"ì":{"ha":340,"x_min":-64,"x_max":239,"o":"m 219 775 l 103 775 l -64 1000 l 88 1000 l 219 775 m 239 0 l 101 0 l 101 704 l 239 704 l 239 0 z "},"í":{"ha":340,"x_min":101,"x_max":406,"o":"m 239 775 l 122 775 l 254 1000 l 406 1000 l 239 775 m 239 0 l 101 0 l 101 704 l 239 704 l 239 0 z "},"î":{"ha":340,"x_min":-78,"x_max":422,"o":"m 57 775 l -78 775 l 110 1000 l 235 1000 l 422 775 l 288 775 l 171 917 l 57 775 m 239 0 l 101 0 l 101 704 l 239 704 l 239 0 z "},"ï":{"ha":340,"x_min":-67,"x_max":408,"o":"m 77 949 q 89 937 77 949 q 101 890 101 925 q 77 831 101 856 q 17 807 53 807 q -43 831 -19 807 q -67 890 -67 854 q -43 950 -67 926 q 17 974 -19 974 q 77 949 53 974 m 384 950 q 396 938 384 950 q 408 890 408 926 q 384 831 408 854 q 324 807 360 807 q 265 831 289 807 q 240 890 240 856 q 265 949 240 925 q 324 974 289 974 q 384 950 360 974 m 239 0 l 101 0 l 101 704 l 239 704 l 239 0 z "},"ð":{"ha":733,"x_min":51,"x_max":671,"o":"m 193 277 q 193 239 193 277 q 238 156 193 200 q 356 111 283 111 q 479 167 429 111 q 536 347 529 222 q 349 443 461 443 q 236 399 279 443 q 193 277 193 354 m 671 382 q 588 91 671 194 q 361 -12 504 -12 q 135 74 218 -12 q 51 285 51 160 q 131 488 51 411 q 330 564 211 564 q 531 478 449 564 q 418 735 507 615 l 222 636 l 222 729 l 361 799 q 181 936 282 879 l 378 936 q 474 856 429 901 l 640 939 l 640 846 l 529 790 q 671 382 671 604 z "},"ñ":{"ha":765,"x_min":96,"x_max":678,"o":"m 488 813 q 391 841 447 813 q 308 869 335 869 q 215 806 258 869 l 147 868 q 206 941 167 911 q 292 971 246 971 q 396 942 338 971 q 481 914 454 914 q 561 974 532 914 l 639 915 q 488 813 590 813 m 678 0 l 542 0 l 542 444 q 505 557 542 518 q 401 596 468 596 q 283 540 335 596 q 232 382 232 483 l 232 0 l 96 0 l 96 704 l 232 704 l 232 583 q 451 714 294 714 q 617 650 556 714 q 678 476 678 586 l 678 0 z "},"ò":{"ha":783,"x_min":57,"x_max":726,"o":"m 457 775 l 340 775 l 174 1000 l 325 1000 l 457 775 m 394 599 q 346 599 394 599 q 249 527 299 599 q 199 351 199 456 q 250 174 199 246 q 393 103 301 103 q 534 172 485 103 q 583 350 583 242 q 536 528 583 458 q 394 599 489 599 m 639 612 q 683 561 639 612 q 726 351 726 510 q 637 90 726 193 q 391 -12 547 -12 q 146 89 235 -12 q 57 347 57 190 q 149 609 57 504 q 396 714 240 714 q 639 612 551 714 z "},"ó":{"ha":783,"x_min":57,"x_max":726,"o":"m 467 775 l 350 775 l 482 1000 l 633 1000 l 467 775 m 394 599 q 346 599 394 599 q 249 527 299 599 q 199 351 199 456 q 250 174 199 246 q 393 103 301 103 q 534 172 485 103 q 583 350 583 242 q 536 528 583 458 q 394 599 489 599 m 639 612 q 683 561 639 612 q 726 351 726 510 q 637 90 726 193 q 391 -12 547 -12 q 146 89 235 -12 q 57 347 57 190 q 149 609 57 504 q 396 714 240 714 q 639 612 551 714 z "},"ô":{"ha":783,"x_min":57,"x_max":726,"o":"m 281 774 l 146 774 l 333 999 l 458 999 l 646 774 l 511 774 l 394 915 l 281 774 m 394 599 q 346 599 394 599 q 249 527 299 599 q 199 351 199 456 q 250 174 199 246 q 393 103 301 103 q 534 172 485 103 q 583 350 583 242 q 536 528 583 458 q 394 599 489 599 m 639 612 q 683 561 639 612 q 726 351 726 510 q 637 90 726 193 q 391 -12 547 -12 q 146 89 235 -12 q 57 347 57 190 q 149 609 57 504 q 396 714 240 714 q 639 612 551 714 z "},"õ":{"ha":783,"x_min":57,"x_max":726,"o":"m 490 813 q 394 841 450 813 q 311 869 338 869 q 218 806 261 869 l 150 868 q 209 941 169 911 q 294 971 249 971 q 399 942 340 971 q 483 914 457 914 q 564 974 535 914 l 642 915 q 490 813 593 813 m 394 599 q 346 599 394 599 q 249 527 299 599 q 199 351 199 456 q 250 174 199 246 q 393 103 301 103 q 534 172 485 103 q 583 350 583 242 q 536 528 583 458 q 394 599 489 599 m 639 612 q 683 561 639 612 q 726 351 726 510 q 637 90 726 193 q 391 -12 547 -12 q 146 89 235 -12 q 57 347 57 190 q 149 609 57 504 q 396 714 240 714 q 639 612 551 714 z "},"ö":{"ha":783,"x_min":57,"x_max":726,"o":"m 310 947 q 323 934 310 947 q 335 888 335 922 q 310 828 335 853 q 250 804 286 804 q 190 828 214 804 q 167 888 167 851 q 190 947 167 924 q 250 971 214 971 q 310 947 286 971 m 617 947 q 630 935 617 947 q 642 888 642 924 q 617 828 642 851 q 558 804 593 804 q 498 828 522 804 q 474 888 474 853 q 498 947 474 922 q 558 971 522 971 q 617 947 593 971 m 394 599 q 346 599 394 599 q 249 527 299 599 q 199 351 199 456 q 250 174 199 246 q 393 103 301 103 q 534 172 485 103 q 583 350 583 242 q 536 528 583 458 q 394 599 489 599 m 639 612 q 683 561 639 612 q 726 351 726 510 q 637 90 726 193 q 391 -12 547 -12 q 146 89 235 -12 q 57 347 57 190 q 149 609 57 504 q 396 714 240 714 q 639 612 551 714 z "},"÷":{"ha":783,"x_min":74,"x_max":708,"o":"m 447 777 q 459 765 447 777 q 471 719 471 753 q 447 661 471 686 q 389 636 422 636 q 331 661 356 636 q 307 719 307 686 q 331 777 307 753 q 389 801 356 801 q 447 777 422 801 m 447 283 q 459 271 447 283 q 471 225 471 258 q 447 167 471 192 q 389 143 422 143 q 331 167 356 143 q 307 225 307 192 q 331 283 307 258 q 389 308 356 308 q 447 283 422 308 m 708 411 l 74 411 l 74 533 l 708 533 l 708 411 z "},"ø":{"ha":782,"x_min":69,"x_max":740,"o":"m 404 90 q 557 163 504 90 q 610 338 610 236 q 581 500 610 440 l 299 122 q 404 90 343 90 m 403 611 q 252 536 306 611 q 199 365 199 461 q 231 204 199 268 l 511 582 q 403 611 467 611 m 658 604 q 740 349 740 506 q 650 90 740 193 q 403 -12 560 -12 q 231 31 304 -12 l 199 -12 l 69 -12 l 151 97 q 69 350 69 196 q 161 609 69 504 q 403 714 253 714 q 578 671 504 714 l 610 714 l 740 714 l 658 604 z "},"ù":{"ha":765,"x_min":88,"x_max":669,"o":"m 442 774 l 325 774 l 158 999 l 310 999 l 442 774 m 669 0 l 533 0 l 533 121 q 314 -8 478 -8 q 149 53 210 -8 q 88 224 88 115 l 88 704 l 225 704 l 225 257 q 260 147 225 185 q 367 108 296 108 q 485 164 438 108 q 533 321 533 219 l 533 704 l 669 704 l 669 0 z "},"ú":{"ha":765,"x_min":88,"x_max":669,"o":"m 450 775 l 333 775 l 465 1000 l 617 1000 l 450 775 m 669 0 l 533 0 l 533 121 q 314 -8 478 -8 q 149 53 210 -8 q 88 224 88 115 l 88 704 l 225 704 l 225 257 q 260 147 225 185 q 367 108 296 108 q 485 164 438 108 q 533 321 533 219 l 533 704 l 669 704 l 669 0 z "},"û":{"ha":765,"x_min":88,"x_max":669,"o":"m 267 775 l 132 775 l 319 1000 l 444 1000 l 632 775 l 497 775 l 381 917 l 267 775 m 669 0 l 533 0 l 533 121 q 314 -8 478 -8 q 149 53 210 -8 q 88 224 88 115 l 88 704 l 225 704 l 225 257 q 260 147 225 185 q 367 108 296 108 q 485 164 438 108 q 533 321 533 219 l 533 704 l 669 704 l 669 0 z "},"ü":{"ha":765,"x_min":88,"x_max":669,"o":"m 288 947 q 300 934 288 947 q 313 888 313 922 q 288 828 313 853 q 228 804 264 804 q 168 828 192 804 q 144 888 144 851 q 168 947 144 924 q 228 971 192 971 q 288 947 264 971 m 595 947 q 607 935 595 947 q 619 888 619 924 q 595 828 619 851 q 535 804 571 804 q 476 828 500 804 q 451 888 451 853 q 476 947 451 922 q 535 971 500 971 q 595 947 571 971 m 669 0 l 533 0 l 533 121 q 314 -8 478 -8 q 149 53 210 -8 q 88 224 88 115 l 88 704 l 225 704 l 225 257 q 260 147 225 185 q 367 108 296 108 q 485 164 438 108 q 533 321 533 219 l 533 704 l 669 704 l 669 0 z "},"ý":{"ha":700,"x_min":10,"x_max":682,"o":"m 426 775 l 310 775 l 442 1000 l 593 1000 l 426 775 m 118 -251 q 54 -244 81 -251 l 54 -128 q 101 -133 76 -133 q 290 15 236 -133 l 10 704 l 161 704 l 249 475 l 358 178 q 538 704 376 236 l 682 704 l 428 19 q 118 -251 326 -251 z "},"þ":{"ha":806,"x_min":96,"x_max":749,"o":"m 426 594 q 387 594 426 594 q 290 537 347 594 q 232 356 232 479 q 290 171 232 232 q 425 110 347 110 q 556 174 503 110 q 608 352 608 239 q 557 530 608 465 q 426 594 506 594 m 232 -269 l 96 -269 l 96 982 l 232 982 l 232 596 q 446 714 304 714 q 668 613 588 714 q 749 355 749 513 q 666 94 749 197 q 444 -10 583 -10 q 232 107 306 -10 l 232 -269 z "},"ÿ":{"ha":700,"x_min":10,"x_max":682,"o":"m 269 947 q 281 934 269 947 q 293 888 293 922 q 269 828 293 853 q 208 804 244 804 q 149 828 172 804 q 125 888 125 851 q 149 947 125 924 q 208 971 172 971 q 269 947 244 971 m 576 947 q 588 935 576 947 q 600 888 600 924 q 576 828 600 851 q 516 804 551 804 q 456 828 481 804 q 432 888 432 853 q 456 947 432 922 q 516 971 481 971 q 576 947 551 971 m 118 -251 q 54 -244 81 -251 l 54 -128 q 101 -133 76 -133 q 290 15 236 -133 l 10 704 l 161 704 l 249 475 l 358 178 q 538 704 376 236 l 682 704 l 428 19 q 118 -251 326 -251 z "},"Ā":{"ha":917,"x_min":43,"x_max":874,"o":"m 675 1074 l 253 1074 l 253 1168 l 675 1168 l 675 1074 m 194 0 l 43 0 l 367 936 l 554 936 l 874 0 l 721 0 l 647 229 l 269 229 l 194 0 m 460 828 q 308 349 450 788 l 608 349 q 460 828 488 722 z "},"ā":{"ha":693,"x_min":60,"x_max":606,"o":"m 560 840 l 138 840 l 138 935 l 560 935 l 560 840 m 281 -6 q 120 52 181 -6 q 60 205 60 110 q 136 356 60 300 q 350 413 213 413 l 467 413 l 467 453 q 432 562 467 525 q 317 599 397 599 q 113 536 204 599 l 113 668 q 329 715 194 715 q 606 447 606 715 l 606 0 l 471 0 l 471 83 q 281 -6 417 -6 m 204 205 q 204 181 204 205 q 235 129 204 157 q 328 101 265 101 q 428 138 390 101 q 467 235 467 175 l 467 314 l 361 314 q 244 283 283 314 q 204 205 204 253 z "},"Ă":{"ha":917,"x_min":43,"x_max":874,"o":"m 700 1232 q 638 1063 700 1122 q 458 1003 575 1003 q 279 1063 342 1003 q 217 1232 217 1122 l 325 1232 q 358 1133 325 1171 q 458 1096 392 1096 q 558 1133 525 1096 q 592 1232 592 1171 l 700 1232 m 194 0 l 43 0 l 367 936 l 554 936 l 874 0 l 721 0 l 647 229 l 269 229 l 194 0 m 460 828 q 308 349 450 788 l 608 349 q 460 828 488 722 z "},"ă":{"ha":693,"x_min":60,"x_max":606,"o":"m 590 999 q 528 829 590 889 q 349 769 465 769 q 169 829 232 769 q 107 999 107 889 l 215 999 q 249 900 215 938 q 349 863 282 863 q 449 900 415 863 q 482 999 482 938 l 590 999 m 281 -6 q 120 52 181 -6 q 60 205 60 110 q 136 356 60 300 q 350 413 213 413 l 467 413 l 467 453 q 432 562 467 525 q 317 599 397 599 q 113 536 204 599 l 113 668 q 329 715 194 715 q 606 447 606 715 l 606 0 l 471 0 l 471 83 q 281 -6 417 -6 m 204 205 q 204 181 204 205 q 235 129 204 157 q 328 101 265 101 q 428 138 390 101 q 467 235 467 175 l 467 314 l 361 314 q 244 283 283 314 q 204 205 204 253 z "},"Ą":{"ha":911,"x_min":40,"x_max":896,"o":"m 896 -314 q 767 -343 846 -343 q 642 -299 688 -343 q 597 -187 597 -256 q 714 11 597 -75 l 644 229 l 265 229 l 192 0 l 40 0 l 363 936 l 551 936 l 871 0 q 713 -176 713 -83 q 793 -247 713 -247 q 896 -214 847 -247 l 896 -314 m 319 396 l 304 349 l 606 349 l 456 828 q 319 396 442 763 z "},"ą":{"ha":690,"x_min":60,"x_max":631,"o":"m 631 -314 q 501 -343 581 -343 q 377 -299 422 -343 q 332 -187 332 -256 q 471 21 332 -67 l 471 88 q 281 -6 406 -6 q 120 51 181 -6 q 60 203 60 107 q 137 357 60 300 q 353 414 214 414 l 467 414 l 467 453 q 432 562 467 525 q 301 599 397 599 q 113 538 206 599 l 113 667 q 329 715 193 715 q 606 447 606 715 l 606 0 q 447 -176 447 -85 q 528 -247 447 -247 q 631 -214 582 -247 l 631 -314 m 203 204 q 233 130 203 157 q 326 103 264 103 q 427 140 388 103 q 467 229 467 176 l 467 313 l 374 313 q 203 204 203 313 z "},"Ć":{"ha":840,"x_min":64,"x_max":779,"o":"m 565 1007 l 449 1007 l 581 1232 l 732 1232 l 565 1007 m 540 -11 q 197 119 331 -11 q 64 466 64 250 q 198 815 64 682 q 538 949 332 949 q 778 897 688 949 l 778 757 q 667 803 717 790 q 542 817 618 817 q 308 722 401 817 q 214 468 214 626 q 307 215 214 310 q 544 121 400 121 q 779 190 688 121 l 779 46 q 540 -11 693 -11 z "},"ć":{"ha":654,"x_min":57,"x_max":635,"o":"m 468 774 l 351 774 l 483 999 l 635 999 l 468 774 m 419 -14 q 156 90 254 -14 q 57 348 57 194 q 156 609 57 501 q 425 717 256 717 q 593 678 517 717 l 593 553 q 427 596 525 596 q 263 526 329 596 q 197 349 197 457 q 263 173 200 242 q 438 104 325 104 q 593 150 521 104 l 593 28 q 419 -14 525 -14 z "},"Č":{"ha":840,"x_min":64,"x_max":779,"o":"m 581 1007 l 456 1007 l 268 1232 l 403 1232 l 518 1090 l 633 1232 l 768 1232 l 581 1007 m 540 -11 q 197 119 331 -11 q 64 466 64 250 q 198 815 64 682 q 538 949 332 949 q 778 897 688 949 l 778 757 q 667 803 717 790 q 542 817 618 817 q 308 722 401 817 q 214 468 214 626 q 307 215 214 310 q 544 121 400 121 q 779 190 688 121 l 779 46 q 540 -11 693 -11 z "},"č":{"ha":654,"x_min":57,"x_max":633,"o":"m 446 775 l 321 775 l 133 1000 l 268 1000 l 383 858 l 499 1000 l 633 1000 l 446 775 m 419 -14 q 156 90 254 -14 q 57 348 57 194 q 156 609 57 501 q 425 717 256 717 q 593 678 517 717 l 593 553 q 427 596 525 596 q 263 526 329 596 q 197 349 197 457 q 263 173 200 242 q 438 104 325 104 q 593 150 521 104 l 593 28 q 419 -14 525 -14 z "},"Ď":{"ha":926,"x_min":101,"x_max":868,"o":"m 493 1007 l 368 1007 l 181 1232 l 315 1232 l 431 1090 l 546 1232 l 681 1232 l 493 1007 m 390 814 l 247 814 l 247 121 l 394 121 q 638 221 554 121 q 721 472 721 321 q 631 718 721 622 q 390 814 540 814 m 396 0 l 101 0 l 101 936 l 393 936 q 735 807 601 936 q 868 474 868 678 q 742 135 868 269 q 396 0 617 0 z "},"ď":{"ha":951,"x_min":57,"x_max":1049,"o":"m 892 708 l 785 708 l 897 982 l 1049 982 l 892 708 m 710 0 l 572 0 l 572 107 q 358 -10 499 -10 q 138 95 218 -10 q 57 357 57 200 q 142 614 57 514 q 362 714 226 714 q 572 597 497 714 l 572 982 l 710 982 l 710 0 m 380 594 q 341 594 380 594 q 250 530 303 594 q 197 353 197 465 q 249 175 197 240 q 381 110 301 110 q 517 171 461 110 q 572 355 572 232 q 515 536 572 478 q 380 594 457 594 z "},"Đ":{"ha":1022,"x_min":86,"x_max":963,"o":"m 569 408 l 342 408 l 342 121 l 489 121 q 733 221 650 121 q 817 472 817 321 q 726 718 817 622 q 485 814 635 814 l 342 814 l 342 525 l 569 525 l 569 408 m 490 0 l 197 0 l 197 408 l 86 408 l 86 525 l 197 525 l 197 936 l 488 936 q 829 807 696 936 q 963 474 963 678 q 837 135 963 269 q 490 0 711 0 z "},"đ":{"ha":806,"x_min":57,"x_max":803,"o":"m 710 0 l 572 0 l 572 107 q 358 -10 499 -10 q 138 95 218 -10 q 57 357 57 200 q 142 614 57 514 q 362 714 226 714 q 572 597 497 714 l 572 806 l 321 806 l 321 893 l 572 893 l 572 982 l 710 982 l 710 893 l 803 893 l 803 806 l 710 806 l 710 0 m 380 594 q 341 594 380 594 q 250 530 303 594 q 197 353 197 465 q 249 175 197 240 q 381 110 301 110 q 517 171 461 110 q 572 355 572 232 q 515 536 572 478 q 380 594 457 594 z "},"Ē":{"ha":714,"x_min":101,"x_max":642,"o":"m 581 1075 l 158 1075 l 158 1169 l 581 1169 l 581 1075 m 642 0 l 101 0 l 101 936 l 635 936 l 635 817 l 244 817 l 244 528 l 590 528 l 590 408 l 244 408 l 244 119 l 642 119 l 642 0 z "},"ē":{"ha":729,"x_min":57,"x_max":665,"o":"m 592 840 l 169 840 l 169 935 l 592 935 l 592 840 m 533 428 q 490 553 531 507 q 378 600 450 600 q 256 549 306 600 q 193 403 206 499 l 533 403 l 533 428 m 415 -7 q 154 92 251 -7 q 57 355 57 190 q 146 616 57 519 q 371 713 235 713 q 586 628 507 713 q 665 386 665 544 q 657 296 665 343 l 194 296 q 272 156 208 204 q 441 107 336 107 q 621 160 546 107 l 621 38 q 415 -7 543 -7 z "},"Ė":{"ha":714,"x_min":101,"x_max":642,"o":"m 444 1182 q 456 1170 444 1182 q 468 1122 468 1158 q 444 1063 468 1086 q 385 1039 421 1039 q 324 1063 349 1039 q 300 1122 300 1086 q 324 1182 300 1158 q 385 1206 349 1206 q 444 1182 421 1206 m 642 0 l 101 0 l 101 936 l 635 936 l 635 817 l 244 817 l 244 528 l 590 528 l 590 408 l 244 408 l 244 119 l 642 119 l 642 0 z "},"ė":{"ha":729,"x_min":57,"x_max":665,"o":"m 450 949 q 462 937 450 949 q 474 889 474 925 q 450 829 474 853 q 390 806 426 806 q 330 829 354 806 q 306 889 306 853 q 330 949 306 925 q 390 972 354 972 q 450 949 426 972 m 533 428 q 490 553 531 507 q 378 600 450 600 q 256 549 306 600 q 193 403 206 499 l 533 403 l 533 428 m 415 -7 q 154 92 251 -7 q 57 355 57 190 q 146 616 57 519 q 371 713 235 713 q 586 628 507 713 q 665 386 665 544 q 657 296 665 343 l 194 296 q 272 156 208 204 q 441 107 336 107 q 621 160 546 107 l 621 38 q 415 -7 543 -7 z "},"Ę":{"ha":714,"x_min":101,"x_max":642,"o":"m 579 -314 q 451 -343 529 -343 q 327 -299 372 -343 q 282 -187 282 -256 q 390 0 282 -85 l 101 0 l 101 936 l 635 936 l 635 817 l 244 817 l 244 528 l 590 528 l 590 408 l 244 408 l 244 119 l 642 119 l 642 0 l 554 0 q 396 -176 396 -85 q 476 -247 396 -247 q 579 -214 533 -247 l 579 -314 z "},"ę":{"ha":729,"x_min":57,"x_max":665,"o":"m 565 -301 q 437 -331 515 -331 q 313 -287 358 -331 q 268 -175 268 -243 q 357 -3 268 -82 q 138 110 218 14 q 57 363 57 206 q 146 616 57 519 q 371 713 235 713 q 586 628 507 713 q 665 386 665 544 q 657 296 665 343 l 194 296 q 272 156 208 204 q 441 107 336 107 q 621 160 546 107 l 621 38 q 526 6 583 17 q 382 -164 382 -76 q 463 -235 382 -235 q 565 -201 519 -235 l 565 -301 m 533 428 q 490 553 531 507 q 378 600 450 600 q 256 549 306 600 q 193 403 206 499 l 533 403 l 533 428 z "},"Ě":{"ha":714,"x_min":101,"x_max":642,"o":"m 443 1007 l 318 1007 l 131 1232 l 265 1232 l 381 1090 l 496 1232 l 631 1232 l 443 1007 m 642 0 l 101 0 l 101 936 l 635 936 l 635 817 l 244 817 l 244 528 l 590 528 l 590 408 l 244 408 l 244 119 l 642 119 l 642 0 z "},"ě":{"ha":729,"x_min":57,"x_max":665,"o":"m 443 775 l 318 775 l 131 1000 l 265 1000 l 381 858 l 496 1000 l 631 1000 l 443 775 m 533 428 q 490 553 531 507 q 378 600 450 600 q 256 549 306 600 q 193 403 206 499 l 533 403 l 533 428 m 415 -7 q 154 92 251 -7 q 57 355 57 190 q 146 616 57 519 q 371 713 235 713 q 586 628 507 713 q 665 386 665 544 q 657 296 665 343 l 194 296 q 272 156 208 204 q 441 107 336 107 q 621 160 546 107 l 621 38 q 415 -7 543 -7 z "},"Ğ":{"ha":946,"x_min":64,"x_max":854,"o":"m 757 1232 q 694 1063 757 1122 q 515 1003 632 1003 q 336 1063 399 1003 q 274 1232 274 1122 l 382 1232 q 415 1133 382 1171 q 515 1096 449 1096 q 615 1133 582 1096 q 649 1232 649 1171 l 757 1232 m 551 -11 q 198 118 332 -11 q 64 466 64 247 q 199 819 64 685 q 543 953 335 953 q 815 890 706 953 l 815 743 q 547 818 696 818 q 306 722 399 818 q 214 467 214 626 q 305 215 214 308 q 556 122 396 122 q 714 153 639 122 l 714 411 l 524 411 l 524 535 l 854 535 l 854 86 l 853 86 l 854 76 q 551 -11 733 -11 z "},"ğ":{"ha":776,"x_min":60,"x_max":689,"o":"m 654 1000 q 592 831 654 890 q 413 771 529 771 q 233 831 296 771 q 171 1000 171 890 l 279 1000 q 313 901 279 939 q 413 864 346 864 q 513 901 479 864 q 546 1000 546 939 l 654 1000 m 374 594 q 336 594 374 594 q 250 530 297 594 q 203 358 203 465 q 253 193 203 250 q 375 136 304 136 q 499 192 446 136 q 553 362 553 249 q 502 535 553 475 q 374 594 451 594 m 689 60 q 597 -185 689 -103 q 364 -268 504 -268 q 131 -222 224 -268 l 131 -85 q 346 -143 219 -143 q 553 61 553 -143 l 553 133 q 357 19 485 19 q 144 108 229 19 q 60 354 60 196 q 139 613 60 513 q 353 714 218 714 q 553 594 489 714 l 553 704 l 689 704 l 689 60 z "},"Ģ":{"ha":946,"x_min":64,"x_max":854,"o":"m 440 -346 l 333 -346 l 446 -71 l 597 -71 l 440 -346 m 551 -11 q 198 118 332 -11 q 64 466 64 247 q 199 819 64 685 q 543 953 335 953 q 815 890 706 953 l 815 743 q 547 818 696 818 q 306 722 399 818 q 214 467 214 626 q 305 215 214 308 q 556 122 396 122 q 714 153 639 122 l 714 411 l 524 411 l 524 535 l 854 535 l 854 86 l 853 86 l 854 76 q 551 -11 733 -11 z "},"ģ":{"ha":776,"x_min":60,"x_max":689,"o":"m 510 775 l 358 775 l 515 1049 l 621 1049 l 510 775 m 374 594 q 336 594 374 594 q 250 530 297 594 q 203 358 203 465 q 253 193 203 250 q 375 136 304 136 q 499 192 446 136 q 553 362 553 249 q 502 535 553 475 q 374 594 451 594 m 689 60 q 597 -185 689 -103 q 364 -268 504 -268 q 131 -222 224 -268 l 131 -85 q 346 -143 219 -143 q 553 61 553 -143 l 553 133 q 357 19 485 19 q 144 108 229 19 q 60 354 60 196 q 139 613 60 513 q 353 714 218 714 q 553 594 489 714 l 553 704 l 689 704 l 689 60 z "},"Ī":{"ha":367,"x_min":-28,"x_max":394,"o":"m 394 1072 l -28 1072 l -28 1167 l 394 1167 l 394 1072 m 254 0 l 113 0 l 113 936 l 254 936 l 254 0 z "},"ī":{"ha":340,"x_min":-40,"x_max":382,"o":"m 382 840 l -40 840 l -40 935 l 382 935 l 382 840 m 239 0 l 101 0 l 101 704 l 239 704 l 239 0 z "},"Į":{"ha":367,"x_min":-18,"x_max":279,"o":"m 279 -314 q 151 -343 229 -343 q 27 -299 72 -343 q -18 -187 -18 -256 q 113 15 -18 -72 l 113 936 l 254 936 l 254 0 q 96 -176 96 -85 q 176 -247 96 -247 q 279 -214 233 -247 l 279 -314 z "},"į":{"ha":340,"x_min":-33,"x_max":264,"o":"m 264 -314 q 135 -343 214 -343 q 12 -299 57 -343 q -33 -187 -33 -256 q 101 18 -33 -69 l 101 704 l 239 704 l 239 0 q 81 -176 81 -85 q 161 -247 81 -247 q 264 -214 218 -247 l 264 -314 m 169 1006 q 188 1006 169 1006 q 231 981 206 1006 q 256 920 256 956 q 231 860 256 885 q 169 835 206 835 q 109 859 133 835 q 85 919 85 883 q 109 981 85 956 q 169 1006 133 1006 z "},"İ":{"ha":367,"x_min":100,"x_max":268,"o":"m 244 1182 q 256 1170 244 1182 q 268 1122 268 1158 q 244 1063 268 1086 q 185 1039 221 1039 q 124 1063 149 1039 q 100 1122 100 1086 q 124 1182 100 1158 q 185 1206 149 1206 q 244 1182 221 1206 m 254 0 l 113 0 l 113 936 l 254 936 l 254 0 z "},"ı":{"ha":340,"x_min":101,"x_max":239,"o":"m 239 0 l 101 0 l 101 704 l 239 704 l 239 0 z "},"Ķ":{"ha":832,"x_min":101,"x_max":797,"o":"m 244 0 l 101 0 l 101 936 l 244 936 l 244 0 m 346 -346 l 239 -346 l 351 -71 l 503 -71 l 346 -346 m 797 0 l 617 0 l 263 463 l 603 936 l 776 936 l 433 464 l 797 0 z "},"ķ":{"ha":694,"x_min":96,"x_max":671,"o":"m 282 -346 l 175 -346 l 288 -71 l 439 -71 l 282 -346 m 394 368 l 671 0 l 508 0 l 238 368 l 503 704 l 663 704 l 394 368 m 232 0 l 96 0 l 96 972 l 232 972 l 232 0 z "},"Ĺ":{"ha":667,"x_min":101,"x_max":639,"o":"m 472 1007 l 356 1007 l 488 1232 l 639 1232 l 472 1007 m 628 0 l 101 0 l 101 936 l 244 936 l 244 126 l 628 126 l 628 0 z "},"ĺ":{"ha":340,"x_min":101,"x_max":397,"o":"m 231 1053 l 114 1053 l 246 1278 l 397 1278 l 231 1053 m 239 0 l 101 0 l 101 982 l 239 982 l 239 0 z "},"Ļ":{"ha":667,"x_min":101,"x_max":628,"o":"m 628 0 l 101 0 l 101 936 l 244 936 l 244 126 l 628 126 l 628 0 m 300 -346 l 193 -346 l 306 -71 l 457 -71 l 300 -346 z "},"ļ":{"ha":340,"x_min":-18,"x_max":246,"o":"m 89 -346 l -18 -346 l 94 -71 l 246 -71 l 89 -346 m 239 0 l 101 0 l 101 982 l 239 982 l 239 0 z "},"Ľ":{"ha":667,"x_min":101,"x_max":628,"o":"m 464 699 l 357 699 l 469 974 l 621 974 l 464 699 m 628 0 l 101 0 l 101 936 l 244 936 l 244 126 l 628 126 l 628 0 z "},"ľ":{"ha":367,"x_min":101,"x_max":592,"o":"m 435 708 l 329 708 l 440 983 l 592 983 l 435 708 m 239 0 l 101 0 l 101 982 l 239 982 l 239 0 z "},"Ł":{"ha":719,"x_min":47,"x_max":671,"o":"m 288 126 l 671 126 l 671 0 l 146 0 l 146 324 l 47 260 l 47 385 l 146 449 l 146 936 l 288 936 l 288 540 l 501 678 l 501 553 l 288 415 l 288 126 z "},"ł":{"ha":425,"x_min":43,"x_max":392,"o":"m 278 0 l 140 0 l 140 404 l 43 336 l 43 463 l 140 531 l 140 982 l 278 982 l 278 626 l 392 706 l 392 581 l 278 501 l 278 0 z "},"Ń":{"ha":944,"x_min":101,"x_max":843,"o":"m 560 1007 l 443 1007 l 575 1232 l 726 1232 l 560 1007 m 244 0 l 101 0 l 101 936 l 271 936 q 708 172 631 325 q 700 543 700 299 l 700 936 l 843 936 l 843 0 l 674 0 q 233 765 319 596 q 244 392 244 626 l 244 0 z "},"ń":{"ha":765,"x_min":96,"x_max":678,"o":"m 483 775 l 367 775 l 499 1000 l 650 1000 l 483 775 m 678 0 l 542 0 l 542 444 q 505 557 542 518 q 401 596 468 596 q 283 540 335 596 q 232 382 232 483 l 232 0 l 96 0 l 96 704 l 232 704 l 232 583 q 451 714 294 714 q 617 650 556 714 q 678 476 678 586 l 678 0 z "},"Ņ":{"ha":944,"x_min":101,"x_max":843,"o":"m 406 -346 l 299 -346 l 411 -71 l 563 -71 l 406 -346 m 244 0 l 101 0 l 101 936 l 271 936 q 708 172 631 325 q 700 543 700 299 l 700 936 l 843 936 l 843 0 l 674 0 q 233 765 319 596 q 244 392 244 626 l 244 0 z "},"ņ":{"ha":765,"x_min":96,"x_max":678,"o":"m 314 -346 l 207 -346 l 319 -71 l 471 -71 l 314 -346 m 678 0 l 542 0 l 542 444 q 505 557 542 518 q 401 596 468 596 q 283 540 335 596 q 232 382 232 483 l 232 0 l 96 0 l 96 704 l 232 704 l 232 583 q 451 714 294 714 q 617 650 556 714 q 678 476 678 586 l 678 0 z "},"Ň":{"ha":944,"x_min":101,"x_max":843,"o":"m 553 1007 l 428 1007 l 240 1232 l 375 1232 l 490 1090 l 606 1232 l 740 1232 l 553 1007 m 244 0 l 101 0 l 101 936 l 271 936 q 708 172 631 325 q 700 543 700 299 l 700 936 l 843 936 l 843 0 l 674 0 q 233 765 319 596 q 244 392 244 626 l 244 0 z "},"ň":{"ha":765,"x_min":96,"x_max":678,"o":"m 467 775 l 342 775 l 154 1000 l 289 1000 l 404 858 l 519 1000 l 654 1000 l 467 775 m 678 0 l 542 0 l 542 444 q 505 557 542 518 q 401 596 468 596 q 283 540 335 596 q 232 382 232 483 l 232 0 l 96 0 l 96 704 l 232 704 l 232 583 q 451 714 294 714 q 617 650 556 714 q 678 476 678 586 l 678 0 z "},"Ō":{"ha":988,"x_min":64,"x_max":924,"o":"m 706 1072 l 283 1072 l 283 1167 l 706 1167 l 706 1072 m 288 727 q 251 680 288 727 q 214 472 214 633 q 290 217 214 311 q 497 122 367 122 q 700 215 626 122 q 774 472 774 308 q 699 728 774 635 q 494 821 625 821 q 288 727 363 821 m 808 823 q 866 757 808 823 q 924 472 924 692 q 808 121 924 253 q 495 -11 692 -11 q 181 121 299 -11 q 64 472 64 253 q 181 822 64 690 q 495 954 297 954 q 808 823 693 954 z "},"ō":{"ha":783,"x_min":57,"x_max":726,"o":"m 606 840 l 183 840 l 183 935 l 606 935 l 606 840 m 394 599 q 346 599 394 599 q 249 527 299 599 q 199 351 199 456 q 250 174 199 246 q 393 103 301 103 q 534 172 485 103 q 583 350 583 242 q 536 528 583 458 q 394 599 489 599 m 639 612 q 683 561 639 612 q 726 351 726 510 q 637 90 726 193 q 391 -12 547 -12 q 146 89 235 -12 q 57 347 57 190 q 149 609 57 504 q 396 714 240 714 q 639 612 551 714 z "},"Ő":{"ha":988,"x_min":64,"x_max":924,"o":"m 449 1007 l 344 1007 l 475 1232 l 618 1232 l 449 1007 m 678 1007 l 574 1007 l 713 1232 l 864 1232 l 678 1007 m 288 727 q 251 680 288 727 q 214 472 214 633 q 290 217 214 311 q 497 122 367 122 q 700 215 626 122 q 774 472 774 308 q 699 728 774 635 q 494 821 625 821 q 288 727 363 821 m 808 823 q 866 757 808 823 q 924 472 924 692 q 808 121 924 253 q 495 -11 692 -11 q 181 121 299 -11 q 64 472 64 253 q 181 822 64 690 q 495 954 297 954 q 808 823 693 954 z "},"ő":{"ha":783,"x_min":57,"x_max":769,"o":"m 354 775 l 250 775 l 381 1000 l 524 1000 l 354 775 m 583 775 l 479 775 l 618 1000 l 769 1000 l 583 775 m 394 599 q 346 599 394 599 q 249 527 299 599 q 199 351 199 456 q 250 174 199 246 q 393 103 301 103 q 534 172 485 103 q 583 350 583 242 q 536 528 583 458 q 394 599 489 599 m 639 612 q 683 561 639 612 q 726 351 726 510 q 637 90 726 193 q 391 -12 547 -12 q 146 89 235 -12 q 57 347 57 190 q 149 609 57 504 q 396 714 240 714 q 639 612 551 714 z "},"Œ":{"ha":1372,"x_min":64,"x_max":1301,"o":"m 1301 0 l 761 0 l 761 101 q 488 -11 653 -11 q 178 121 293 -11 q 64 472 64 253 q 177 823 64 692 q 486 954 290 954 q 761 844 654 954 l 761 936 l 1294 936 l 1294 817 l 897 817 l 897 528 l 1250 528 l 1250 408 l 897 408 l 897 119 l 1301 119 l 1301 0 m 285 728 q 250 681 285 728 q 214 472 214 635 q 288 216 214 310 q 490 122 361 122 q 690 215 618 122 q 761 472 761 308 q 690 728 761 636 q 488 821 618 821 q 285 728 357 821 z "},"œ":{"ha":1235,"x_min":57,"x_max":1176,"o":"m 925 -7 q 642 122 740 -7 q 390 -12 553 -12 q 142 89 228 -12 q 57 348 57 190 q 145 610 57 506 q 382 714 233 714 q 638 588 551 714 q 888 713 729 713 q 1101 628 1025 713 q 1176 382 1176 543 q 1168 296 1176 343 l 707 296 q 786 156 722 206 q 952 107 850 107 q 1129 160 1054 107 l 1129 38 q 925 -7 1049 -7 m 1000 556 q 979 578 1000 556 q 889 600 958 600 q 769 550 819 600 q 706 403 718 500 l 1044 403 l 1044 433 q 1000 556 1042 513 m 386 599 q 339 599 386 599 q 245 528 292 599 q 199 351 199 457 q 247 174 199 244 q 385 103 294 103 q 522 172 475 103 q 568 350 568 240 q 524 529 568 460 q 386 599 481 599 z "},"Ŕ":{"ha":789,"x_min":101,"x_max":758,"o":"m 444 1007 l 328 1007 l 460 1232 l 611 1232 l 444 1007 m 244 0 l 101 0 l 101 936 l 363 936 q 611 858 524 936 q 699 644 699 779 q 649 477 697 546 q 514 378 600 408 l 758 0 l 588 0 l 368 356 l 244 356 l 244 0 m 367 817 l 244 817 l 244 475 l 374 475 q 508 522 463 475 q 554 646 554 568 q 367 817 554 817 z "},"ŕ":{"ha":471,"x_min":96,"x_max":514,"o":"m 347 775 l 231 775 l 363 1000 l 514 1000 l 347 775 m 232 0 l 96 0 l 96 704 l 232 704 l 232 581 q 417 711 283 711 q 460 707 436 711 l 460 574 q 394 586 431 586 q 278 524 324 586 q 232 375 232 461 l 232 0 z "},"Ŗ":{"ha":789,"x_min":101,"x_max":758,"o":"m 244 0 l 101 0 l 101 936 l 363 936 q 611 858 524 936 q 699 644 699 779 q 649 477 697 546 q 514 378 600 408 l 758 0 l 588 0 l 368 356 l 244 356 l 244 0 m 328 -346 l 221 -346 l 333 -71 l 485 -71 l 328 -346 m 367 817 l 244 817 l 244 475 l 374 475 q 508 522 463 475 q 554 646 554 568 q 367 817 554 817 z "},"ŗ":{"ha":471,"x_min":-28,"x_max":460,"o":"m 232 0 l 96 0 l 96 704 l 232 704 l 232 581 q 417 711 283 711 q 460 707 436 711 l 460 574 q 394 586 431 586 q 278 524 324 586 q 232 375 232 461 l 232 0 m 79 -346 l -28 -346 l 85 -71 l 236 -71 l 79 -346 z "},"Ř":{"ha":789,"x_min":101,"x_max":758,"o":"m 465 1007 l 340 1007 l 153 1232 l 288 1232 l 403 1090 l 518 1232 l 653 1232 l 465 1007 m 244 0 l 101 0 l 101 936 l 363 936 q 611 858 524 936 q 699 644 699 779 q 649 477 697 546 q 514 378 600 408 l 758 0 l 588 0 l 368 356 l 244 356 l 244 0 m 367 817 l 244 817 l 244 475 l 374 475 q 508 522 463 475 q 554 646 554 568 q 367 817 554 817 z "},"ř":{"ha":471,"x_min":35,"x_max":535,"o":"m 347 775 l 222 775 l 35 1000 l 169 1000 l 285 858 l 400 1000 l 535 1000 l 347 775 m 232 0 l 96 0 l 96 704 l 232 704 l 232 581 q 417 711 283 711 q 460 707 436 711 l 460 574 q 394 586 431 586 q 278 524 324 586 q 232 375 232 461 l 232 0 z "},"Ś":{"ha":724,"x_min":81,"x_max":656,"o":"m 442 1007 l 325 1007 l 457 1232 l 608 1232 l 442 1007 m 656 253 q 656 192 656 253 q 568 61 656 132 q 334 -10 481 -10 q 86 50 188 -10 l 86 199 q 340 117 196 117 q 461 152 417 117 q 506 250 506 188 q 479 319 506 288 q 422 366 453 350 q 343 404 392 382 q 280 433 294 426 q 232 458 265 440 q 183 489 199 476 q 143 524 167 501 q 108 568 119 546 q 81 685 81 629 q 167 874 81 804 q 386 943 254 943 q 607 899 518 943 l 607 757 q 396 815 514 815 q 276 781 319 815 q 232 692 232 747 q 275 603 232 636 q 392 538 318 569 q 498 488 465 506 q 572 436 531 469 q 656 253 656 374 z "},"ś":{"ha":582,"x_min":76,"x_max":542,"o":"m 375 775 l 258 775 l 390 1000 l 542 1000 l 375 775 m 388 383 q 416 372 388 383 q 490 315 443 360 q 536 185 536 269 q 469 47 536 100 q 283 -7 403 -7 q 81 35 164 -7 l 81 164 q 282 104 178 104 q 366 126 336 104 q 396 182 396 149 q 372 240 396 215 q 324 276 349 264 q 242 313 300 288 q 76 513 76 381 q 146 658 76 606 q 324 711 215 711 q 497 681 433 711 l 497 557 q 322 597 429 597 q 245 575 274 597 q 217 517 217 553 q 253 451 217 474 q 270 440 264 444 q 291 428 276 435 q 313 417 306 421 q 388 383 333 407 z "},"Ş":{"ha":724,"x_min":81,"x_max":656,"o":"m 421 -71 q 446 -177 446 -106 q 389 -302 446 -249 q 225 -357 332 -356 l 225 -262 q 339 -167 339 -256 q 304 -71 339 -122 l 421 -71 m 656 253 q 656 192 656 253 q 568 61 656 132 q 334 -10 481 -10 q 86 50 188 -10 l 86 199 q 340 117 196 117 q 461 152 417 117 q 506 250 506 188 q 479 319 506 288 q 422 366 453 350 q 343 404 392 382 q 280 433 294 426 q 232 458 265 440 q 183 489 199 476 q 143 524 167 501 q 108 568 119 546 q 81 685 81 629 q 167 874 81 804 q 386 943 254 943 q 607 899 518 943 l 607 757 q 396 815 514 815 q 276 781 319 815 q 232 692 232 747 q 275 603 232 636 q 392 538 318 569 q 498 488 465 506 q 572 436 531 469 q 656 253 656 374 z "},"ş":{"ha":582,"x_min":76,"x_max":536,"o":"m 368 -71 q 393 -177 393 -106 q 336 -302 393 -249 q 172 -357 279 -356 l 172 -262 q 286 -167 286 -256 q 251 -71 286 -122 l 368 -71 m 388 383 q 416 372 388 383 q 490 315 443 360 q 536 185 536 269 q 469 47 536 100 q 283 -7 403 -7 q 81 35 164 -7 l 81 164 q 282 104 178 104 q 366 126 336 104 q 396 182 396 149 q 372 240 396 215 q 324 276 349 264 q 242 313 300 288 q 76 513 76 381 q 146 658 76 606 q 324 711 215 711 q 497 681 433 711 l 497 557 q 322 597 429 597 q 245 575 274 597 q 217 517 217 553 q 253 451 217 474 q 270 440 264 444 q 291 428 276 435 q 313 417 306 421 q 388 383 333 407 z "},"Š":{"ha":724,"x_min":81,"x_max":656,"o":"m 429 1007 l 304 1007 l 117 1232 l 251 1232 l 367 1090 l 482 1232 l 617 1232 l 429 1007 m 656 253 q 656 192 656 253 q 568 61 656 132 q 334 -10 481 -10 q 86 50 188 -10 l 86 199 q 340 117 196 117 q 461 152 417 117 q 506 250 506 188 q 479 319 506 288 q 422 366 453 350 q 343 404 392 382 q 280 433 294 426 q 232 458 265 440 q 183 489 199 476 q 143 524 167 501 q 108 568 119 546 q 81 685 81 629 q 167 874 81 804 q 386 943 254 943 q 607 899 518 943 l 607 757 q 396 815 514 815 q 276 781 319 815 q 232 692 232 747 q 275 603 232 636 q 392 538 318 569 q 498 488 465 506 q 572 436 531 469 q 656 253 656 374 z "},"š":{"ha":582,"x_min":74,"x_max":574,"o":"m 386 775 l 261 775 l 74 1000 l 208 1000 l 324 858 l 439 1000 l 574 1000 l 386 775 m 388 383 q 416 372 388 383 q 490 315 443 360 q 536 185 536 269 q 469 47 536 100 q 283 -7 403 -7 q 81 35 164 -7 l 81 164 q 282 104 178 104 q 366 126 336 104 q 396 182 396 149 q 372 240 396 215 q 324 276 349 264 q 242 313 300 288 q 76 513 76 381 q 146 658 76 606 q 324 711 215 711 q 497 681 433 711 l 497 557 q 322 597 429 597 q 245 575 274 597 q 217 517 217 553 q 253 451 217 474 q 270 440 264 444 q 291 428 276 435 q 313 417 306 421 q 388 383 333 407 z "},"Ţ":{"ha":694,"x_min":31,"x_max":664,"o":"m 407 -71 q 432 -177 432 -106 q 375 -302 432 -249 q 211 -357 318 -356 l 211 -262 q 325 -167 325 -256 q 290 -71 325 -122 l 407 -71 m 664 817 l 418 817 l 418 0 l 275 0 l 275 817 l 31 817 l 31 936 l 664 936 l 664 817 z "},"ţ":{"ha":519,"x_min":25,"x_max":465,"o":"m 339 -71 q 364 -177 364 -106 q 307 -302 364 -249 q 143 -357 250 -356 l 143 -262 q 257 -167 257 -256 q 222 -71 257 -122 l 339 -71 m 353 -7 q 135 214 135 -7 l 135 599 l 25 599 l 25 704 l 135 704 l 135 876 l 272 876 l 272 704 l 457 704 l 457 599 l 272 599 l 272 211 q 369 110 272 110 q 465 140 426 110 l 465 18 q 353 -7 419 -7 z "},"Ť":{"ha":694,"x_min":31,"x_max":664,"o":"m 411 1007 l 286 1007 l 99 1232 l 233 1232 l 349 1090 l 464 1232 l 599 1232 l 411 1007 m 664 817 l 418 817 l 418 0 l 275 0 l 275 817 l 31 817 l 31 936 l 664 936 l 664 817 z "},"ť":{"ha":519,"x_min":25,"x_max":614,"o":"m 457 796 l 351 796 l 463 1071 l 614 1071 l 457 796 m 353 -7 q 135 214 135 -7 l 135 599 l 25 599 l 25 704 l 135 704 l 135 876 l 272 876 l 272 704 l 457 704 l 457 599 l 272 599 l 272 211 q 369 110 272 110 q 465 140 426 110 l 465 18 q 353 -7 419 -7 z "},"Ū":{"ha":906,"x_min":99,"x_max":807,"o":"m 671 1072 l 249 1072 l 249 1167 l 671 1167 l 671 1072 m 807 358 q 713 82 807 176 q 453 -12 618 -12 q 193 80 288 -12 q 99 347 99 172 l 99 936 l 242 936 l 242 349 q 299 174 242 229 q 451 119 357 119 q 664 356 664 119 l 664 936 l 807 936 l 807 358 z "},"ū":{"ha":765,"x_min":88,"x_max":669,"o":"m 590 840 l 168 840 l 168 935 l 590 935 l 590 840 m 669 0 l 533 0 l 533 121 q 314 -8 478 -8 q 149 53 210 -8 q 88 224 88 115 l 88 704 l 225 704 l 225 257 q 260 147 225 185 q 367 108 296 108 q 485 164 438 108 q 533 321 533 219 l 533 704 l 669 704 l 669 0 z "},"Ů":{"ha":906,"x_min":99,"x_max":807,"o":"m 403 1207 q 393 1196 403 1207 q 382 1154 382 1185 q 403 1101 382 1124 q 456 1078 425 1078 q 509 1101 488 1078 q 531 1154 531 1124 q 509 1207 531 1185 q 456 1229 488 1229 q 403 1207 425 1229 m 456 1313 q 489 1313 456 1313 q 569 1265 522 1313 q 617 1152 617 1218 q 569 1040 617 1086 q 456 993 522 993 q 344 1040 390 993 q 297 1152 297 1086 q 344 1265 297 1218 q 456 1313 390 1313 m 807 358 q 713 82 807 176 q 453 -12 618 -12 q 193 80 288 -12 q 99 347 99 172 l 99 936 l 242 936 l 242 349 q 299 174 242 229 q 451 119 357 119 q 664 356 664 119 l 664 936 l 807 936 l 807 358 z "},"ů":{"ha":765,"x_min":88,"x_max":669,"o":"m 335 975 q 325 964 335 975 q 314 922 314 953 q 335 869 314 892 q 388 846 357 846 q 441 869 419 846 q 463 922 463 892 q 441 975 463 953 q 388 997 419 997 q 335 975 357 997 m 388 1081 q 421 1081 388 1081 q 501 1033 454 1081 q 549 920 549 986 q 501 808 549 854 q 388 761 454 761 q 276 808 322 761 q 229 920 229 854 q 276 1033 229 986 q 388 1081 322 1081 m 669 0 l 533 0 l 533 121 q 314 -8 478 -8 q 149 53 210 -8 q 88 224 88 115 l 88 704 l 225 704 l 225 257 q 260 147 225 185 q 367 108 296 108 q 485 164 438 108 q 533 321 533 219 l 533 704 l 669 704 l 669 0 z "},"Ű":{"ha":906,"x_min":99,"x_max":807,"o":"m 388 1007 l 283 1007 l 414 1232 l 557 1232 l 388 1007 m 617 1007 l 513 1007 l 651 1232 l 803 1232 l 617 1007 m 807 358 q 713 82 807 176 q 453 -12 618 -12 q 193 80 288 -12 q 99 347 99 172 l 99 936 l 242 936 l 242 349 q 299 174 242 229 q 451 119 357 119 q 664 356 664 119 l 664 936 l 807 936 l 807 358 z "},"ű":{"ha":765,"x_min":88,"x_max":739,"o":"m 324 775 l 219 775 l 350 1000 l 493 1000 l 324 775 m 553 775 l 449 775 l 588 1000 l 739 1000 l 553 775 m 669 0 l 533 0 l 533 121 q 314 -8 478 -8 q 149 53 210 -8 q 88 224 88 115 l 88 704 l 225 704 l 225 257 q 260 147 225 185 q 367 108 296 108 q 485 164 438 108 q 533 321 533 219 l 533 704 l 669 704 l 669 0 z "},"Ų":{"ha":906,"x_min":99,"x_max":807,"o":"m 807 358 q 593 8 807 82 q 436 -167 436 -75 q 517 -237 436 -237 q 619 -204 574 -237 l 619 -304 q 491 -333 569 -333 q 367 -290 413 -333 q 322 -178 322 -246 q 407 -11 322 -86 q 181 93 263 1 q 99 347 99 185 l 99 936 l 242 936 l 242 349 q 299 174 242 229 q 451 119 357 119 q 664 356 664 119 l 664 936 l 807 936 l 807 358 z "},"ų":{"ha":765,"x_min":88,"x_max":694,"o":"m 694 -314 q 566 -343 644 -343 q 442 -299 488 -343 q 397 -187 397 -256 q 533 19 397 -68 l 533 121 q 314 -8 478 -8 q 149 53 210 -8 q 88 224 88 115 l 88 704 l 225 704 l 225 257 q 260 147 225 185 q 367 108 296 108 q 485 164 438 108 q 533 321 533 219 l 533 704 l 669 704 l 669 0 q 511 -176 511 -85 q 592 -247 511 -247 q 694 -214 649 -247 l 694 -314 z "},"Ÿ":{"ha":844,"x_min":32,"x_max":813,"o":"m 333 1179 q 345 1167 333 1179 q 357 1119 357 1156 q 333 1060 357 1083 q 272 1036 308 1036 q 213 1060 236 1036 q 189 1119 189 1083 q 213 1179 189 1156 q 272 1203 236 1203 q 333 1179 308 1203 m 640 1179 q 652 1167 640 1179 q 664 1119 664 1156 q 640 1060 664 1083 q 580 1036 615 1036 q 520 1060 544 1036 q 496 1119 496 1083 q 520 1179 496 1156 q 580 1203 544 1203 q 640 1179 615 1203 m 492 0 l 349 0 l 349 349 l 32 936 l 196 936 q 419 465 394 525 q 581 799 432 507 l 649 936 l 813 936 l 492 349 l 492 0 z "},"Ź":{"ha":811,"x_min":75,"x_max":736,"o":"m 486 1007 l 369 1007 l 501 1232 l 653 1232 l 486 1007 m 736 0 l 75 0 l 75 113 l 547 818 l 82 818 l 82 936 l 717 936 l 717 826 l 243 118 l 736 118 l 736 0 z "},"ź":{"ha":640,"x_min":60,"x_max":581,"o":"m 394 775 l 278 775 l 410 1000 l 561 1000 l 394 775 m 581 0 l 60 0 l 60 104 l 401 590 l 72 590 l 72 704 l 563 704 l 563 607 l 217 115 l 581 115 l 581 0 z "},"Ż":{"ha":811,"x_min":75,"x_max":736,"o":"m 481 1182 q 492 1170 481 1182 q 504 1122 504 1158 q 481 1063 504 1086 q 421 1039 457 1039 q 360 1063 385 1039 q 336 1122 336 1086 q 360 1182 336 1158 q 421 1206 385 1206 q 481 1182 457 1206 m 736 0 l 75 0 l 75 113 l 547 818 l 82 818 l 82 936 l 717 936 l 717 826 l 243 118 l 736 118 l 736 0 z "},"ż":{"ha":640,"x_min":60,"x_max":581,"o":"m 400 947 q 412 935 400 947 q 424 888 424 924 q 400 828 424 851 q 340 804 376 804 q 280 828 304 804 q 256 888 256 851 q 280 947 256 924 q 340 971 304 971 q 400 947 376 971 m 581 0 l 60 0 l 60 104 l 401 590 l 72 590 l 72 704 l 563 704 l 563 607 l 217 115 l 581 115 l 581 0 z "},"Ž":{"ha":811,"x_min":75,"x_max":736,"o":"m 471 1007 l 346 1007 l 158 1232 l 293 1232 l 408 1090 l 524 1232 l 658 1232 l 471 1007 m 736 0 l 75 0 l 75 113 l 547 818 l 82 818 l 82 936 l 717 936 l 717 826 l 243 118 l 736 118 l 736 0 z "},"ž":{"ha":640,"x_min":60,"x_max":593,"o":"m 406 775 l 281 775 l 93 1000 l 228 1000 l 343 858 l 458 1000 l 593 1000 l 406 775 m 581 0 l 60 0 l 60 104 l 401 590 l 72 590 l 72 704 l 563 704 l 563 607 l 217 115 l 581 115 l 581 0 z "},"ƒ":{"ha":597,"x_min":-78,"x_max":606,"o":"m 29 -357 q -78 -340 -35 -357 l -78 -222 q 14 -240 -35 -240 q 135 -85 110 -240 l 219 415 l 89 415 l 89 521 l 236 521 l 264 683 q 506 944 307 944 q 606 932 569 944 l 606 814 q 526 828 567 828 q 400 672 425 828 l 374 521 l 510 521 l 510 415 l 357 415 l 269 -96 q 29 -357 226 -357 z "},"Ș":{"ha":724,"x_min":81,"x_max":656,"o":"m 289 -346 l 182 -346 l 293 -71 l 444 -71 l 289 -346 m 656 253 q 656 192 656 253 q 568 61 656 132 q 334 -10 481 -10 q 86 50 188 -10 l 86 199 q 340 117 196 117 q 461 152 417 117 q 506 250 506 188 q 479 319 506 288 q 422 366 453 350 q 343 404 392 382 q 280 433 294 426 q 232 458 265 440 q 183 489 199 476 q 143 524 167 501 q 108 568 119 546 q 81 685 81 629 q 167 874 81 804 q 386 943 254 943 q 607 899 518 943 l 607 757 q 396 815 514 815 q 276 781 319 815 q 232 692 232 747 q 275 603 232 636 q 392 538 318 569 q 498 488 465 506 q 572 436 531 469 q 656 253 656 374 z "},"ș":{"ha":582,"x_min":76,"x_max":536,"o":"m 224 -346 l 118 -346 l 229 -71 l 381 -71 l 224 -346 m 388 383 q 416 372 388 383 q 490 315 443 360 q 536 185 536 269 q 469 47 536 100 q 283 -7 403 -7 q 81 35 164 -7 l 81 164 q 282 104 178 104 q 366 126 336 104 q 396 182 396 149 q 372 240 396 215 q 324 276 349 264 q 242 313 300 288 q 76 513 76 381 q 146 658 76 606 q 324 711 215 711 q 497 681 433 711 l 497 557 q 322 597 429 597 q 245 575 274 597 q 217 517 217 553 q 253 451 217 474 q 270 440 264 444 q 291 428 276 435 q 313 417 306 421 q 388 383 333 407 z "},"Ț":{"ha":694,"x_min":31,"x_max":664,"o":"m 664 817 l 418 817 l 418 0 l 275 0 l 275 817 l 31 817 l 31 936 l 664 936 l 664 817 m 264 -346 l 157 -346 l 268 -71 l 419 -71 l 264 -346 z "},"ț":{"ha":519,"x_min":25,"x_max":465,"o":"m 261 -346 l 154 -346 l 265 -71 l 417 -71 l 261 -346 m 353 -7 q 135 214 135 -7 l 135 599 l 25 599 l 25 704 l 135 704 l 135 876 l 272 876 l 272 704 l 457 704 l 457 599 l 272 599 l 272 211 q 369 110 272 110 q 465 140 426 110 l 465 18 q 353 -7 419 -7 z "},"ˆ":{"ha":617,"x_min":58,"x_max":558,"o":"m 193 883 l 58 883 l 246 1108 l 371 1108 l 558 883 l 424 883 l 307 1025 l 193 883 z "},"ˇ":{"ha":617,"x_min":58,"x_max":558,"o":"m 371 883 l 246 883 l 58 1108 l 193 1108 l 308 967 l 424 1108 l 558 1108 l 371 883 z "},"ˉ":{"ha":617,"x_min":97,"x_max":519,"o":"m 519 946 l 97 946 l 97 1040 l 519 1040 l 519 946 z "},"˘":{"ha":617,"x_min":67,"x_max":550,"o":"m 550 1108 q 488 939 550 999 q 308 879 425 879 q 129 939 192 879 q 67 1108 67 999 l 175 1108 q 208 1010 175 1047 q 308 972 242 972 q 408 1010 375 972 q 442 1108 442 1047 l 550 1108 z "},"˙":{"ha":617,"x_min":224,"x_max":392,"o":"m 368 1060 q 380 1048 368 1060 q 392 1000 392 1036 q 368 940 392 964 q 308 917 344 917 q 248 940 272 917 q 224 1000 224 964 q 248 1060 224 1036 q 308 1083 272 1083 q 368 1060 344 1083 z "},"˚":{"ha":617,"x_min":149,"x_max":468,"o":"m 255 1051 q 244 1040 255 1051 q 233 999 233 1029 q 255 945 233 968 q 308 922 276 922 q 360 945 339 922 q 382 999 382 968 q 360 1051 382 1029 q 308 1074 339 1074 q 255 1051 276 1074 m 308 1157 q 341 1157 308 1157 q 421 1110 374 1157 q 468 997 468 1063 q 421 884 468 931 q 308 838 374 838 q 195 884 242 838 q 149 997 149 931 q 195 1110 149 1063 q 308 1157 242 1157 z "},"˛":{"ha":617,"x_min":160,"x_max":457,"o":"m 457 -297 q 328 -326 407 -326 q 205 -283 250 -326 q 160 -162 160 -239 q 229 -18 160 -85 q 382 79 299 49 l 432 17 q 274 -160 274 -68 q 354 -231 274 -231 q 457 -197 411 -231 l 457 -297 z "},"˜":{"ha":617,"x_min":71,"x_max":563,"o":"m 411 899 q 315 927 371 899 q 231 956 258 956 q 139 892 182 956 l 71 954 q 130 1027 90 997 q 215 1057 169 1057 q 319 1028 261 1057 q 404 1000 378 1000 q 485 1060 456 1000 l 563 1001 q 411 899 514 899 z "},"˝":{"ha":617,"x_min":49,"x_max":568,"o":"m 153 883 l 49 883 l 179 1108 l 322 1108 l 153 883 m 382 883 l 278 883 l 417 1108 l 568 1108 l 382 883 z "},"π":{"ha":818,"x_min":32,"x_max":797,"o":"m 797 599 l 669 599 l 669 0 l 533 0 l 533 599 l 294 599 l 294 250 q 235 56 294 111 q 56 0 176 0 l 56 117 q 135 142 113 117 q 158 240 158 167 l 158 599 l 32 599 l 32 704 l 797 704 l 797 599 z "},"।":{"ha":531,"x_min":244,"x_max":379,"o":"m 379 0 l 244 0 l 244 903 l 379 903 l 379 0 z "},"॥":{"ha":844,"x_min":244,"x_max":693,"o":"m 379 0 l 244 0 l 244 903 l 379 903 l 379 0 m 693 0 l 558 0 l 558 903 l 693 903 l 693 0 z "},"ഁ":{"ha":0,"x_min":-507,"x_max":131,"o":"m -185 1335 q -163 1335 -185 1335 q -116 1309 -142 1335 q -90 1240 -90 1283 q -115 1170 -90 1196 q -184 1144 -140 1144 q -253 1171 -228 1144 q -279 1240 -279 1197 q -253 1309 -279 1283 q -185 1335 -228 1335 m 131 1197 q 48 983 131 1061 q -186 906 -35 906 q -422 983 -337 906 q -507 1197 -507 1061 l -378 1197 q -328 1072 -378 1119 q -185 1024 -279 1024 q -46 1070 -92 1024 q 0 1197 0 1117 l 131 1197 z "},"ം":{"ha":625,"x_min":51,"x_max":592,"o":"m 322 -14 q 263 -14 322 -14 q 128 67 204 -14 q 51 268 51 147 q 128 469 51 389 q 322 549 204 549 q 516 469 440 549 q 592 269 592 390 q 515 67 592 147 q 322 -14 439 -14 m 319 426 q 288 426 319 426 q 219 381 257 426 q 181 266 181 336 q 219 153 181 196 q 322 110 258 110 q 424 153 385 110 q 463 267 463 196 q 422 382 463 338 q 319 426 382 426 z "},"ഃ":{"ha":469,"x_min":58,"x_max":411,"o":"m 235 -14 q 198 -14 235 -14 q 110 39 161 -14 q 58 172 58 92 q 109 305 58 253 q 235 357 160 357 q 360 305 310 357 q 411 172 411 253 q 360 38 411 90 q 235 -14 310 -14 m 234 265 q 216 265 234 265 q 176 240 197 265 q 154 171 154 214 q 176 102 154 128 q 235 76 199 76 q 293 102 271 76 q 315 171 315 128 q 293 240 315 214 q 234 265 271 265 m 235 453 q 198 453 235 453 q 110 506 161 453 q 58 640 58 558 q 109 772 58 721 q 235 824 160 824 q 360 772 310 824 q 411 640 411 721 q 360 506 411 558 q 235 453 310 453 m 176 706 q 165 693 176 706 q 154 638 154 681 q 176 569 154 594 q 235 543 199 543 q 293 569 271 543 q 315 638 315 594 q 293 707 315 682 q 234 732 271 732 q 176 706 197 732 z "},"അ":{"ha":2182,"x_min":71,"x_max":2119,"o":"m 1728 356 q 1708 334 1728 356 q 1688 250 1688 313 q 1728 145 1688 188 q 1828 103 1768 103 q 1933 146 1889 103 q 1976 251 1976 189 q 1935 357 1976 314 q 1831 400 1893 400 q 1728 356 1769 400 m 783 688 q 648 567 697 649 q 599 370 599 485 q 660 179 599 256 q 818 103 722 103 q 915 138 881 103 q 950 223 950 172 q 914 303 950 274 q 815 333 878 333 l 775 333 l 775 454 l 818 454 q 897 483 869 454 q 924 561 924 513 q 783 688 924 649 m 446 115 l 446 -14 q 173 99 275 -14 q 71 379 71 213 q 203 702 71 581 q 540 824 336 824 q 754 790 663 824 q 936 824 828 824 q 1149 767 1044 824 q 1306 606 1254 710 q 1455 764 1354 704 q 1674 824 1556 824 q 1993 687 1867 824 q 2119 342 2119 550 q 2038 86 2119 186 q 1833 -14 1957 -14 q 1631 63 1708 -14 q 1554 253 1554 139 q 1628 442 1554 367 q 1814 518 1703 518 q 1918 492 1869 518 q 1992 421 1967 465 q 1882 629 1974 550 q 1672 708 1790 708 q 1463 619 1553 708 q 1374 390 1374 529 l 1374 0 l 1239 0 l 1239 393 q 1152 624 1239 538 q 950 719 1065 710 q 1064 557 1064 649 q 1030 451 1064 493 q 932 399 996 408 q 1047 342 1003 386 q 1092 228 1092 299 q 1019 53 1092 119 q 821 -14 946 -14 q 560 97 656 -14 q 464 379 464 207 q 619 711 464 582 q 540 713 593 713 q 302 626 393 713 q 211 379 211 539 q 277 189 211 263 q 446 115 343 115 z "},"ആ":{"ha":2247,"x_min":71,"x_max":2213,"o":"m 783 688 q 648 567 697 649 q 599 370 599 485 q 660 179 599 256 q 818 103 722 103 q 915 138 881 103 q 950 223 950 172 q 914 303 950 274 q 815 333 878 333 l 775 333 l 775 454 l 818 454 q 897 483 869 454 q 924 561 924 513 q 783 688 924 649 m 754 790 q 936 824 828 824 q 1149 767 1044 824 q 1306 606 1254 710 q 1451 762 1353 700 q 1678 824 1550 824 q 1908 758 1807 824 q 2060 593 2010 693 q 2115 374 2111 493 q 2213 100 2213 258 q 2092 -212 2213 -92 q 1779 -333 1972 -333 q 1625 -317 1713 -333 l 1625 -192 q 1778 -214 1714 -214 q 2000 -128 1915 -214 q 2085 125 2085 -42 q 2082 171 2085 140 q 1981 35 2047 85 q 1826 -14 1914 -14 q 1630 63 1707 -14 q 1553 252 1553 139 q 1632 440 1553 365 q 1831 514 1711 514 q 1974 483 1904 514 q 1860 649 1940 589 q 1665 708 1781 708 q 1462 622 1550 708 q 1374 393 1374 535 l 1374 0 l 1239 0 l 1239 393 q 1152 624 1239 538 q 950 719 1065 710 q 1064 557 1064 649 q 1030 451 1064 493 q 932 399 996 408 q 1047 342 1003 386 q 1092 228 1092 299 q 1019 53 1092 119 q 821 -14 946 -14 q 560 97 656 -14 q 464 379 464 207 q 619 711 464 582 q 540 713 593 713 q 302 626 393 713 q 211 379 211 539 q 277 189 211 263 q 446 115 343 115 l 446 -14 q 173 99 275 -14 q 71 379 71 213 q 203 702 71 581 q 540 824 336 824 q 754 790 663 824 m 1689 249 q 1689 217 1689 249 q 1728 144 1689 185 q 1835 103 1767 103 q 1949 166 1903 103 q 1994 338 1994 229 q 1832 399 1922 399 q 1729 356 1769 399 q 1689 249 1689 314 z "},"ഇ":{"ha":1290,"x_min":63,"x_max":1217,"o":"m 915 824 q 1129 734 1042 824 q 1217 483 1217 644 q 1092 160 1217 289 q 739 32 968 32 l 313 32 q 231 10 260 32 q 201 -49 201 -11 q 232 -109 201 -86 q 317 -132 263 -132 l 1193 -132 l 1193 -249 l 289 -249 q 121 -193 179 -249 q 63 -49 63 -137 q 124 94 63 39 q 297 149 186 149 l 697 149 q 981 236 886 149 q 1076 479 1076 324 q 1031 647 1076 585 q 906 708 985 708 q 777 647 828 708 q 726 497 726 586 l 726 339 l 593 339 l 593 469 q 526 642 593 575 q 375 708 458 708 q 247 666 292 708 q 203 558 203 624 q 242 456 203 493 q 331 416 281 418 q 426 422 382 414 l 426 296 q 343 289 388 289 q 141 357 219 289 q 63 546 63 425 q 142 745 63 667 q 358 824 222 824 q 536 777 457 824 q 658 653 615 731 q 753 777 686 731 q 915 824 821 824 z "},"ഈ":{"ha":2433,"x_min":63,"x_max":2360,"o":"m 2360 461 q 2248 136 2360 263 q 1954 10 2136 10 q 1814 33 1878 10 l 1814 158 q 1950 138 1889 138 q 2146 224 2072 138 q 2219 444 2219 310 q 2174 642 2219 579 q 2061 706 2129 706 q 1953 660 1993 706 q 1914 542 1914 614 l 1914 446 l 1775 446 l 1775 536 q 1733 661 1775 617 q 1629 706 1692 706 q 1526 658 1567 706 q 1486 538 1486 610 q 1519 385 1486 467 l 1379 385 q 1349 526 1349 446 q 1424 739 1349 654 q 1622 824 1500 824 q 1757 786 1699 824 q 1846 692 1815 749 q 1928 786 1872 749 q 2058 824 1983 824 q 2280 722 2200 824 q 2360 461 2360 621 m 1193 -249 l 289 -249 q 121 -193 179 -249 q 63 -49 63 -137 q 124 94 63 39 q 297 149 186 149 l 697 149 q 981 236 886 149 q 1076 479 1076 324 q 1031 647 1076 585 q 906 708 985 708 q 777 647 828 708 q 726 497 726 586 l 726 339 l 593 339 l 593 469 q 526 642 593 575 q 375 708 458 708 q 247 666 292 708 q 203 558 203 624 q 242 456 203 493 q 331 416 281 418 q 426 422 382 414 l 426 296 q 343 289 388 289 q 141 357 219 289 q 63 546 63 425 q 142 745 63 667 q 358 824 222 824 q 536 777 457 824 q 658 653 615 731 q 753 777 686 731 q 915 824 821 824 q 1129 734 1042 824 q 1217 483 1217 644 q 1092 160 1217 289 q 739 32 968 32 l 313 32 q 231 10 260 32 q 201 -49 201 -11 q 232 -109 201 -86 q 317 -132 263 -132 l 1193 -132 l 1193 -249 z "},"ഉ":{"ha":996,"x_min":63,"x_max":922,"o":"m 215 501 q 201 484 215 501 q 186 426 186 468 q 215 353 186 385 q 289 321 244 321 q 364 353 333 321 q 394 427 394 385 q 364 501 394 469 q 289 533 333 533 q 215 501 244 533 m 922 -254 l 303 -254 q 135 -199 193 -254 q 76 -54 76 -143 q 139 87 76 35 q 310 140 201 139 l 504 140 q 717 218 651 140 q 783 423 783 296 q 702 628 783 550 q 483 707 621 707 q 251 611 344 707 q 435 590 354 649 q 517 421 517 531 q 454 272 517 333 q 293 211 392 211 q 128 278 194 211 q 63 457 63 344 q 187 717 63 610 q 497 824 311 824 q 803 710 683 824 q 922 420 922 596 q 820 132 922 244 q 522 19 718 19 l 321 19 q 243 -1 271 19 q 215 -59 215 -22 q 246 -117 215 -96 q 331 -137 276 -137 l 922 -137 l 922 -254 z "},"ഊ":{"ha":2117,"x_min":63,"x_max":2043,"o":"m 2043 461 q 1931 136 2043 263 q 1638 10 1819 10 q 1497 33 1561 10 l 1497 158 q 1633 138 1572 138 q 1829 224 1756 138 q 1903 444 1903 310 q 1858 642 1903 579 q 1745 706 1814 706 q 1637 660 1676 706 q 1597 542 1597 614 l 1597 446 l 1458 446 l 1458 536 q 1417 661 1458 617 q 1313 706 1375 706 q 1210 658 1250 706 q 1169 538 1169 610 q 1203 385 1169 467 l 1064 385 q 1033 526 1033 446 q 1109 739 1033 654 q 1306 824 1185 824 q 1441 786 1383 824 q 1529 692 1499 749 q 1613 786 1557 749 q 1743 824 1668 824 q 1963 722 1883 824 q 2043 461 2043 621 m 215 501 q 201 484 215 501 q 186 426 186 468 q 215 353 186 385 q 289 321 244 321 q 364 353 333 321 q 394 427 394 385 q 364 501 394 469 q 289 533 333 533 q 215 501 244 533 m 922 -254 l 303 -254 q 135 -199 193 -254 q 76 -54 76 -143 q 139 87 76 35 q 310 140 201 139 l 504 140 q 717 218 651 140 q 783 423 783 296 q 702 628 783 550 q 483 707 621 707 q 251 611 344 707 q 435 590 354 649 q 517 421 517 531 q 454 272 517 333 q 293 211 392 211 q 128 278 194 211 q 63 457 63 344 q 187 717 63 610 q 497 824 311 824 q 803 710 683 824 q 922 420 922 596 q 820 132 922 244 q 522 19 718 19 l 321 19 q 243 -1 271 19 q 215 -59 215 -22 q 246 -117 215 -96 q 331 -137 276 -137 l 922 -137 l 922 -254 z "},"ഋ":{"ha":1254,"x_min":65,"x_max":1189,"o":"m 938 714 q 912 714 938 714 q 852 678 886 714 q 818 593 818 643 q 853 506 818 543 q 939 469 888 469 q 1024 506 990 469 q 1057 592 1057 542 q 1024 678 1057 643 q 938 714 990 714 m 316 714 q 290 714 316 714 q 231 678 264 714 q 199 592 199 643 q 232 506 199 542 q 317 469 265 469 q 402 506 368 469 q 436 592 436 542 q 402 678 436 643 q 316 714 368 714 m 233 -15 q 337 -129 233 -90 q 624 -168 440 -168 q 915 -128 808 -168 q 1021 -14 1021 -89 q 627 132 1021 132 q 233 -15 233 132 m 944 194 q 1100 123 1039 176 q 1161 -19 1161 69 q 1092 -167 1161 -107 q 624 -285 954 -285 q 241 -217 389 -285 q 93 -21 93 -149 q 153 123 93 69 q 311 194 214 176 q 138 333 210 240 q 65 547 65 425 q 138 746 65 668 q 321 824 211 824 q 499 754 431 824 q 567 589 567 685 q 503 432 567 493 q 364 371 440 371 q 243 403 288 371 q 629 247 342 247 q 1014 403 917 247 q 894 371 968 371 q 754 432 821 371 q 688 588 688 493 q 756 753 688 683 q 934 824 825 824 q 1116 745 1043 824 q 1189 545 1189 667 q 1117 332 1189 424 q 944 194 1046 240 z "},"ഌ":{"ha":1696,"x_min":65,"x_max":1631,"o":"m 1361 661 q 1270 526 1307 610 q 1233 335 1233 442 q 1267 167 1233 229 q 1362 106 1301 106 q 1456 169 1422 106 q 1490 340 1490 232 q 1453 530 1490 449 q 1361 661 1417 611 m 336 661 q 242 531 279 613 q 206 341 206 449 q 240 169 206 233 q 335 106 275 106 q 428 167 394 106 q 463 335 463 229 q 426 526 463 442 q 336 661 390 610 m 604 343 q 532 85 604 185 q 334 -14 460 -14 q 137 87 208 -14 q 65 350 65 188 q 191 690 65 556 q 506 824 317 824 q 715 765 625 824 q 849 621 806 706 q 982 765 892 706 q 1192 824 1072 824 q 1506 690 1381 824 q 1631 350 1631 556 q 1559 87 1631 188 q 1362 -14 1488 -14 q 1165 85 1236 -14 q 1093 343 1093 185 q 1140 550 1093 453 q 1249 697 1186 647 q 1193 706 1219 706 q 998 620 1079 704 q 917 400 917 536 l 917 0 l 781 0 l 781 400 q 700 619 781 536 q 506 706 619 703 q 447 697 476 706 q 557 550 510 647 q 604 343 604 453 z "},"എ":{"ha":1908,"x_min":58,"x_max":1822,"o":"m 1208 -164 q 1286 -76 1286 -164 l 1286 0 l 1036 0 q 1109 -120 1060 -76 q 1208 -164 1158 -164 m 1413 -33 q 1361 -218 1413 -153 q 1209 -283 1310 -283 q 1022 -210 1108 -283 q 894 0 935 -136 l 518 0 l 518 113 q 613 326 613 203 q 556 487 613 424 q 406 550 500 550 q 256 484 313 550 q 200 323 200 418 q 249 172 200 228 q 363 115 297 117 l 363 -14 q 142 85 225 -14 q 58 325 58 185 q 156 566 58 465 q 406 667 253 667 q 656 569 560 667 q 753 325 753 471 q 674 111 753 206 q 790 117 714 117 l 881 117 q 875 239 875 178 q 1003 658 875 492 q 1353 824 1132 824 q 1608 745 1500 824 q 1769 538 1717 667 q 1822 249 1822 408 q 1693 -256 1822 -1 l 1543 -256 q 1682 243 1682 -7 q 1593 581 1682 456 q 1353 707 1504 707 q 1109 576 1203 707 q 1015 244 1015 444 q 1022 117 1015 179 l 1286 117 l 1286 529 l 1413 529 l 1413 -33 z "},"ഏ":{"ha":1978,"x_min":58,"x_max":1906,"o":"m 1208 -164 q 1286 -76 1286 -164 l 1286 0 l 1036 0 q 1109 -120 1060 -76 q 1208 -164 1158 -164 m 1413 -33 q 1361 -218 1413 -153 q 1209 -283 1310 -283 q 1022 -210 1108 -283 q 894 0 935 -136 l 518 0 l 518 113 q 613 326 613 203 q 556 487 613 424 q 406 550 500 550 q 256 484 313 550 q 200 323 200 418 q 249 172 200 228 q 363 115 297 117 l 363 -14 q 142 85 225 -14 q 58 325 58 185 q 156 566 58 465 q 406 667 253 667 q 656 569 560 667 q 753 336 753 471 q 672 111 753 201 q 790 117 711 117 l 879 117 q 875 222 875 147 q 1031 650 875 476 q 1426 824 1188 824 q 1751 725 1626 824 q 1875 476 1875 626 q 1837 333 1875 396 q 1731 247 1799 269 q 1855 171 1804 229 q 1906 25 1906 113 q 1828 -185 1906 -107 q 1611 -262 1751 -262 q 1497 -247 1550 -262 l 1497 -125 q 1616 -137 1553 -137 q 1722 -94 1679 -137 q 1764 26 1764 -50 q 1713 144 1764 101 q 1582 188 1663 188 l 1531 188 l 1531 307 l 1581 307 q 1696 353 1654 307 q 1738 476 1738 400 q 1649 647 1738 588 q 1426 707 1561 707 q 1133 575 1254 707 q 1013 236 1013 443 q 1018 117 1013 153 l 1286 117 l 1286 522 l 1413 522 l 1413 -33 z "},"ഐ":{"ha":2942,"x_min":69,"x_max":2856,"o":"m 2242 -164 q 2319 -76 2319 -164 l 2319 0 l 2069 0 q 2142 -120 2093 -76 q 2242 -164 2192 -164 m 2446 -33 q 2394 -218 2446 -153 q 2242 -283 2343 -283 q 2055 -210 2142 -283 q 1928 0 1968 -136 l 1551 0 l 1551 113 q 1646 326 1646 203 q 1590 487 1646 424 q 1440 550 1533 550 q 1290 484 1346 550 q 1233 323 1233 418 q 1282 172 1233 228 q 1396 115 1331 117 l 1396 -14 q 1175 85 1258 -14 q 1092 325 1092 185 q 1189 566 1092 465 q 1440 667 1286 667 q 1690 569 1593 667 q 1786 325 1786 471 q 1707 111 1786 206 q 1824 117 1747 117 l 1914 117 q 1908 239 1908 178 q 2037 658 1908 492 q 2386 824 2165 824 q 2642 745 2533 824 q 2803 538 2750 667 q 2856 249 2856 408 q 2726 -256 2856 -1 l 2576 -256 q 2715 243 2715 -7 q 2626 581 2715 456 q 2387 707 2538 707 q 2142 576 2236 707 q 2049 244 2049 444 q 2056 117 2049 179 l 2319 117 l 2319 529 l 2446 529 l 2446 -33 m 390 517 q 578 443 506 517 q 650 258 650 369 q 574 66 650 146 q 370 -14 497 -14 q 156 92 243 -14 q 69 360 69 197 q 197 685 69 547 q 517 824 324 824 q 840 695 711 824 q 968 379 968 567 q 860 0 968 192 l 703 0 q 797 192 767 103 q 828 389 828 282 q 736 621 828 536 q 526 706 644 706 q 319 631 407 706 q 207 422 231 557 q 283 490 231 464 q 390 517 336 517 m 374 397 q 343 397 374 397 q 272 355 313 397 q 231 250 231 313 q 274 145 231 188 q 377 103 317 103 q 476 144 438 103 q 515 249 515 186 q 475 355 515 313 q 374 397 435 397 z "},"ഒ":{"ha":1146,"x_min":69,"x_max":1072,"o":"m 258 354 q 236 332 258 354 q 215 251 215 310 q 258 149 215 193 q 361 106 300 106 q 463 149 422 106 q 503 251 503 192 q 463 355 503 311 q 361 399 422 399 q 258 354 300 399 m 619 824 q 914 751 800 824 q 1028 563 1028 678 q 1000 460 1028 506 q 918 396 972 415 q 1031 336 989 385 q 1072 218 1072 288 q 1003 52 1072 118 q 818 -14 933 -14 q 719 -3 771 -14 l 719 118 q 815 108 764 108 q 901 140 867 108 q 936 225 936 172 q 899 306 936 278 q 801 335 863 335 l 756 335 l 756 454 l 793 454 q 866 485 842 454 q 890 563 890 515 q 822 668 890 631 q 610 706 753 706 q 360 640 467 706 q 217 449 253 574 q 388 517 282 517 q 566 440 493 517 q 639 249 639 363 q 558 61 639 136 q 351 -14 476 -14 q 148 81 226 -14 q 69 318 69 175 q 221 683 69 543 q 619 824 372 824 z "},"ഓ":{"ha":1792,"x_min":69,"x_max":1728,"o":"m 1622 708 q 1675 651 1622 708 q 1728 407 1728 593 q 1622 106 1728 221 q 1353 -10 1517 -10 q 1165 26 1260 -10 l 1165 149 q 1346 107 1272 107 q 1519 189 1450 107 q 1588 408 1588 271 q 1519 626 1588 546 q 1346 707 1450 707 q 1165 665 1272 707 l 1165 788 q 1353 824 1260 824 q 1622 708 1517 824 m 258 354 q 236 332 258 354 q 215 251 215 310 q 258 149 215 193 q 361 106 300 106 q 463 149 422 106 q 503 251 503 192 q 463 355 503 311 q 361 399 422 399 q 258 354 300 399 m 619 824 q 914 751 800 824 q 1028 563 1028 678 q 1000 460 1028 506 q 918 396 972 415 q 1031 336 989 385 q 1072 218 1072 288 q 1003 52 1072 118 q 818 -14 933 -14 q 719 -3 771 -14 l 719 118 q 815 108 764 108 q 901 140 867 108 q 936 225 936 172 q 899 306 936 278 q 801 335 863 335 l 756 335 l 756 454 l 793 454 q 866 485 842 454 q 890 563 890 515 q 822 668 890 631 q 610 706 753 706 q 360 640 467 706 q 217 449 253 574 q 388 517 282 517 q 566 440 493 517 q 639 249 639 363 q 558 61 639 136 q 351 -14 476 -14 q 148 81 226 -14 q 69 318 69 175 q 221 683 69 543 q 619 824 372 824 z "},"ഔ":{"ha":2250,"x_min":69,"x_max":2181,"o":"m 258 354 q 236 332 258 354 q 215 251 215 310 q 258 149 215 193 q 361 106 300 106 q 463 149 422 106 q 503 251 503 192 q 463 355 503 311 q 361 399 422 399 q 258 354 300 399 m 619 824 q 914 751 800 824 q 1028 563 1028 678 q 1000 460 1028 506 q 918 396 972 415 q 1031 336 989 385 q 1072 218 1072 288 q 1003 52 1072 118 q 818 -14 933 -14 q 719 -3 771 -14 l 719 118 q 815 108 764 108 q 901 140 867 108 q 936 225 936 172 q 899 306 936 278 q 801 335 863 335 l 756 335 l 756 454 l 793 454 q 866 485 842 454 q 890 563 890 515 q 822 668 890 631 q 610 706 753 706 q 360 640 467 706 q 217 449 253 574 q 388 517 282 517 q 566 440 493 517 q 639 249 639 363 q 558 61 639 136 q 351 -14 476 -14 q 148 81 226 -14 q 69 318 69 175 q 221 683 69 543 q 619 824 372 824 m 2181 461 q 2068 136 2181 263 q 1775 10 1956 10 q 1633 33 1697 10 l 1633 158 q 1769 138 1711 138 q 1965 224 1892 138 q 2039 444 2039 310 q 1994 642 2039 579 q 1882 706 1950 706 q 1774 660 1814 706 q 1735 542 1735 614 l 1735 446 l 1596 446 l 1596 536 q 1553 661 1596 617 q 1449 706 1511 706 q 1347 657 1388 706 q 1306 538 1306 608 q 1339 385 1306 467 l 1200 385 q 1169 526 1169 446 q 1245 739 1169 654 q 1443 824 1321 824 q 1578 786 1519 824 q 1667 692 1636 749 q 1749 786 1693 749 q 1879 824 1804 824 q 2100 722 2019 824 q 2181 461 2181 621 z "},"ക":{"ha":1532,"x_min":69,"x_max":1463,"o":"m 632 176 q 657 137 632 176 q 779 99 682 99 q 926 175 876 99 q 978 390 975 251 l 579 392 q 632 176 582 253 m 779 713 q 586 503 617 713 l 971 503 q 908 658 956 603 q 779 713 860 713 m 1117 390 l 1113 390 q 1022 97 1110 207 q 778 -14 935 -14 q 533 99 622 -14 q 335 -14 469 -14 q 147 59 224 -14 q 69 251 69 132 q 156 437 69 371 q 388 503 243 503 l 451 503 q 560 740 474 656 q 778 824 647 824 q 996 739 908 824 q 1106 503 1083 654 l 1117 503 q 1368 438 1274 503 q 1463 251 1463 372 q 1389 59 1463 131 q 1204 -12 1315 -12 q 1161 -11 1176 -12 l 1161 113 q 1328 250 1328 113 q 1117 390 1328 390 m 204 250 q 243 140 204 181 q 338 100 282 100 q 431 137 393 100 q 469 224 468 174 q 444 392 447 299 l 393 392 q 204 250 204 392 z "},"ഖ":{"ha":1435,"x_min":69,"x_max":1322,"o":"m 363 397 q 332 397 363 397 q 260 355 301 397 q 219 250 219 313 q 263 145 219 188 q 365 103 306 103 q 464 144 425 103 q 503 250 503 186 q 463 356 503 314 q 363 397 424 397 m 840 389 q 754 617 840 529 q 540 704 668 704 q 323 628 413 704 q 204 422 233 553 q 278 491 231 465 q 381 517 326 517 q 565 442 492 517 q 639 256 639 368 q 563 65 639 144 q 362 -14 488 -14 q 153 82 236 -14 q 69 358 69 178 q 201 681 69 539 q 533 824 333 824 q 857 702 733 824 q 981 403 981 581 q 876 121 981 225 l 1186 121 l 1186 818 l 1322 818 l 1322 0 l 699 0 l 699 118 q 801 231 763 160 q 840 389 840 301 z "},"ഗ":{"ha":1256,"x_min":71,"x_max":1185,"o":"m 694 315 q 617 68 694 150 q 395 -14 539 -14 q 161 96 251 -14 q 71 406 71 206 q 140 674 71 553 q 253 778 178 739 q 435 818 329 818 l 435 689 q 267 619 322 689 q 211 406 211 550 q 263 183 211 263 q 403 103 314 103 q 558 308 558 103 l 558 481 q 640 731 558 638 q 867 824 722 824 q 1099 712 1013 824 q 1185 397 1185 600 q 1081 85 1185 193 q 975 18 1042 44 q 821 -8 908 -8 l 821 121 q 988 187 933 121 q 1043 397 1043 253 q 995 624 1043 540 q 865 707 947 707 q 738 650 782 707 q 694 488 694 593 l 694 315 z "},"ഘ":{"ha":1774,"x_min":56,"x_max":1660,"o":"m 846 489 l 846 415 l 1206 415 l 1206 489 q 1161 649 1206 590 q 1028 707 1117 707 q 892 648 939 707 q 846 489 846 589 m 288 292 q 122 365 188 294 q 56 544 56 435 q 133 732 56 654 q 328 810 210 810 q 524 736 446 810 q 601 553 601 663 q 549 411 601 467 q 654 415 582 415 l 711 415 l 711 489 q 793 735 711 646 q 1026 824 875 824 q 1257 735 1176 824 q 1338 489 1338 646 l 1338 301 l 846 301 l 846 117 l 1525 117 l 1525 818 l 1660 818 l 1660 0 l 711 0 l 711 301 l 410 301 l 410 406 q 476 547 476 458 q 437 658 476 614 q 329 703 397 703 q 222 658 261 703 q 182 549 182 614 q 211 449 182 485 q 288 408 240 414 l 288 292 z "},"ങ":{"ha":1619,"x_min":74,"x_max":1546,"o":"m 360 393 q 329 393 360 393 q 259 352 299 393 q 219 248 219 311 q 261 144 219 185 q 363 103 303 103 q 460 143 422 103 q 499 247 499 183 q 460 352 499 311 q 360 393 421 393 m 376 511 q 431 511 376 511 q 560 437 486 511 q 635 250 635 363 q 560 62 635 138 q 359 -14 485 -14 q 153 84 233 -14 q 74 359 74 182 q 192 680 74 536 q 515 824 311 824 q 728 762 636 824 q 869 607 821 700 q 999 762 910 700 q 1206 824 1088 824 q 1411 764 1325 824 q 1497 599 1497 704 q 1459 475 1497 526 q 1356 413 1421 424 q 1494 353 1442 401 q 1546 228 1546 306 q 1459 45 1546 104 q 1224 -14 1372 -14 q 1101 -3 1160 -14 l 1101 121 q 1236 108 1164 108 q 1357 140 1308 108 q 1406 231 1406 171 q 1208 346 1406 346 l 1157 346 l 1157 467 l 1194 467 q 1313 499 1269 467 q 1357 590 1357 532 q 1316 676 1357 647 q 1201 706 1275 706 q 1016 623 1094 706 q 938 386 938 540 l 938 0 l 801 0 l 801 386 q 719 624 801 542 q 518 706 636 706 q 317 630 400 706 q 210 421 235 554 q 376 511 265 511 z "},"ച":{"ha":1239,"x_min":8,"x_max":1125,"o":"m 164 386 q 244 591 164 506 q 453 676 324 676 q 664 593 582 676 q 746 385 746 510 q 703 227 746 300 q 597 117 661 154 l 990 117 l 990 818 l 1125 818 l 1125 0 l 8 0 l 8 117 l 282 117 q 524 196 443 117 q 606 379 606 275 q 565 509 606 460 q 451 558 524 558 q 340 508 379 558 q 301 390 301 458 q 331 264 301 322 l 188 264 q 164 386 164 322 z "},"ഛ":{"ha":1844,"x_min":8,"x_max":1775,"o":"m 1504 661 q 1414 526 1450 610 q 1378 335 1378 442 q 1411 167 1378 229 q 1505 106 1444 106 q 1600 169 1565 106 q 1635 350 1635 233 q 1504 661 1635 549 m 1775 350 q 1703 87 1775 188 q 1506 -14 1632 -14 q 1308 85 1379 -14 q 1236 343 1236 185 q 1283 550 1236 453 q 1393 697 1331 647 q 1321 706 1367 706 q 1103 615 1193 706 q 1014 390 1014 524 q 1142 114 1014 232 l 1142 0 l 8 0 l 8 117 l 282 117 q 524 196 443 117 q 606 379 606 275 q 565 509 606 460 q 451 558 524 558 q 340 508 379 558 q 301 390 301 458 q 331 264 301 322 l 188 264 q 164 386 164 322 q 244 591 164 506 q 453 676 324 676 q 664 593 582 676 q 746 385 746 510 q 703 227 746 300 q 597 117 661 154 l 974 117 q 875 392 875 243 q 1003 697 875 571 q 1324 824 1131 824 q 1647 689 1518 824 q 1775 350 1775 554 z "},"ജ":{"ha":1129,"x_min":67,"x_max":1047,"o":"m 787 268 q 761 268 787 268 q 699 232 735 268 q 664 144 664 196 q 700 56 664 93 q 788 19 736 19 q 876 56 840 19 q 913 143 913 92 q 876 231 913 194 q 787 268 839 268 m 201 136 q 241 60 201 92 q 340 28 281 28 q 593 239 504 28 l 333 239 q 201 136 201 239 m 331 -94 q 138 -27 210 -94 q 67 138 67 40 q 140 293 67 235 q 343 351 213 351 l 618 351 q 830 408 754 351 q 906 557 906 464 q 867 667 906 626 q 767 707 829 707 q 659 659 704 707 q 614 532 614 611 l 614 433 l 493 433 l 493 524 q 446 663 493 610 q 317 715 399 715 q 231 685 265 715 q 196 610 196 656 q 321 507 196 507 q 349 508 339 507 l 349 400 q 315 399 340 399 q 138 453 207 399 q 69 604 69 508 q 138 762 69 700 q 313 824 206 824 q 550 686 481 824 q 774 824 621 824 q 965 749 890 824 q 1040 558 1040 674 q 1008 424 1040 485 q 924 333 975 364 q 1014 257 981 308 q 1047 140 1047 206 q 972 -27 1047 40 q 790 -94 896 -94 q 659 -59 717 -94 q 574 29 601 -24 q 477 -57 540 -19 q 331 -94 414 -94 z "},"ഝ":{"ha":2311,"x_min":71,"x_max":2242,"o":"m 740 661 q 647 531 683 613 q 610 341 610 449 q 644 169 610 233 q 740 106 679 106 q 833 167 800 106 q 867 335 867 229 q 831 526 867 442 q 740 661 794 610 m 1465 -15 q 1265 72 1333 -15 q 1196 308 1196 160 l 1196 431 q 1135 633 1196 554 q 951 711 1074 711 q 856 697 907 711 q 965 548 925 642 q 1006 350 1006 454 q 932 80 1006 174 q 740 -14 858 -14 q 546 78 621 -14 q 471 343 471 171 q 511 542 471 446 q 617 697 551 639 q 503 713 560 713 q 294 620 378 713 q 211 399 211 528 q 268 192 211 269 q 422 115 325 115 l 422 -14 q 167 97 263 -14 q 71 391 71 208 q 194 699 71 574 q 497 824 318 824 q 726 771 621 824 q 944 824 825 824 q 1211 733 1099 824 q 1299 611 1267 689 q 1332 431 1332 533 l 1332 308 q 1369 158 1332 210 q 1471 107 1406 107 q 1604 308 1604 107 l 1604 818 l 1740 818 l 1740 308 q 1785 158 1740 208 q 1912 107 1831 107 q 2047 184 1993 107 q 2100 405 2100 261 q 2048 619 2100 549 q 1883 689 1996 689 l 1883 818 q 2148 707 2054 818 q 2242 401 2242 596 q 2147 96 2242 207 q 1910 -15 2053 -15 q 1771 19 1835 -15 q 1675 118 1707 54 q 1593 21 1649 57 q 1465 -15 1538 -15 z "},"ഞ":{"ha":2144,"x_min":74,"x_max":2074,"o":"m 1411 661 q 1320 529 1357 611 q 1283 340 1283 447 q 1317 169 1283 232 q 1412 106 1351 106 q 1506 168 1472 106 q 1540 337 1540 231 q 1504 527 1540 443 q 1411 661 1468 611 m 360 393 q 329 393 360 393 q 259 352 299 393 q 219 248 219 311 q 261 144 219 185 q 363 103 303 103 q 460 143 422 103 q 499 247 499 183 q 460 352 499 311 q 360 393 421 393 m 376 511 q 560 437 486 511 q 635 250 635 363 q 560 62 635 138 q 359 -14 485 -14 q 153 84 233 -14 q 74 347 74 182 q 124 574 74 468 q 278 752 174 681 q 512 824 383 824 q 739 760 640 824 q 882 604 838 697 q 1017 763 924 701 q 1218 824 1110 824 q 1426 774 1326 824 q 1636 824 1524 824 q 1946 699 1818 824 q 2074 392 2074 575 q 1981 97 2074 208 q 1726 -14 1888 -14 l 1726 115 q 1878 190 1822 115 q 1933 396 1933 264 q 1851 618 1933 528 q 1643 708 1768 708 q 1535 693 1588 708 q 1638 544 1596 638 q 1679 353 1679 450 q 1605 81 1679 175 q 1411 -14 1531 -14 q 1217 78 1292 -14 q 1143 344 1143 169 q 1188 547 1143 451 q 1301 696 1232 643 q 1217 708 1257 708 q 1024 622 1099 708 q 950 418 950 536 l 950 0 l 814 0 l 814 411 q 725 622 814 539 q 520 706 636 706 q 318 629 404 706 q 207 421 232 553 q 278 487 232 463 q 376 511 325 511 z "},"ട":{"ha":763,"x_min":60,"x_max":703,"o":"m 76 154 q 326 106 219 106 q 498 138 433 106 q 563 231 563 169 q 506 315 563 289 q 390 352 461 336 q 290 376 319 368 q 119 464 178 408 q 60 617 60 519 q 151 781 60 715 q 379 847 243 847 q 646 796 515 847 l 646 672 q 389 728 503 728 q 200 617 200 728 q 221 559 200 576 q 254 533 242 542 q 294 515 267 524 q 338 500 322 506 q 423 476 356 494 q 521 448 490 458 q 590 417 551 438 q 650 375 629 397 q 703 231 703 319 q 604 52 703 118 q 321 -14 506 -14 q 76 29 203 -14 l 76 154 z "},"ഠ":{"ha":861,"x_min":57,"x_max":804,"o":"m 427 707 q 372 707 427 707 q 257 621 317 707 q 197 403 197 535 q 260 187 197 272 q 433 101 322 101 q 603 186 543 101 q 664 403 664 271 q 601 621 664 535 q 427 707 538 707 m 431 824 q 518 824 431 824 q 705 707 606 824 q 804 406 804 590 q 704 103 804 221 q 431 -15 604 -15 q 157 103 257 -15 q 57 406 57 221 q 157 707 57 590 q 431 824 257 824 z "},"ഡ":{"ha":1715,"x_min":71,"x_max":1644,"o":"m 844 -14 q 644 78 717 -14 q 572 326 572 171 l 572 486 q 525 651 572 596 q 396 707 478 707 q 263 628 314 707 q 211 399 211 549 q 268 190 211 250 q 426 129 325 129 l 426 0 q 281 24 344 0 q 179 87 218 49 q 115 178 140 125 q 71 393 71 272 q 157 710 71 597 q 390 824 243 824 q 624 735 538 824 q 710 479 710 647 l 710 322 q 748 156 710 210 q 853 103 786 103 q 959 160 919 103 q 999 315 999 217 l 999 818 l 1135 818 l 1135 315 q 1186 161 1135 219 q 1319 103 1238 103 q 1453 181 1401 103 q 1504 401 1504 260 q 1289 689 1504 689 l 1289 818 q 1440 790 1374 818 q 1543 719 1506 761 q 1604 618 1581 676 q 1644 401 1644 518 q 1555 94 1644 201 q 1313 -14 1465 -14 q 1163 28 1232 -14 q 1065 135 1094 71 q 980 27 1036 68 q 844 -14 924 -14 z "},"ഢ":{"ha":1904,"x_min":71,"x_max":1831,"o":"m 1542 707 q 1512 707 1542 707 q 1443 666 1482 707 q 1404 563 1404 625 q 1444 460 1404 501 q 1544 418 1485 418 q 1644 459 1604 418 q 1685 563 1685 500 q 1643 666 1685 625 q 1542 707 1601 707 m 832 -14 q 640 76 707 -14 q 574 322 574 165 l 572 486 q 525 651 572 596 q 396 707 478 707 q 263 628 314 707 q 211 399 211 549 q 268 190 211 250 q 426 129 325 129 l 426 0 q 281 24 344 0 q 179 87 218 49 q 115 178 140 125 q 71 393 71 272 q 157 710 71 597 q 390 824 243 824 q 624 735 538 824 q 710 479 710 647 l 710 322 q 842 103 710 103 q 942 163 906 103 q 978 340 978 224 l 978 818 l 1114 818 l 1114 369 q 1190 176 1114 247 q 1382 106 1267 106 q 1583 181 1497 106 q 1694 389 1669 257 q 1528 299 1639 299 q 1344 373 1418 299 q 1269 560 1269 447 q 1344 748 1269 672 q 1544 824 1419 824 q 1750 729 1669 824 q 1831 492 1831 635 q 1780 239 1831 350 q 1625 57 1729 128 q 1397 -14 1521 -14 q 1060 167 1153 -14 q 832 -14 1007 -14 z "},"ണ":{"ha":1975,"x_min":74,"x_max":1906,"o":"m 365 397 q 335 397 365 397 q 263 355 304 397 q 222 250 222 313 q 265 145 222 188 q 369 103 308 103 q 469 145 429 103 q 508 249 508 188 q 467 354 508 311 q 365 397 426 397 m 383 517 q 571 443 499 517 q 643 257 643 369 q 567 65 643 144 q 364 -14 492 -14 q 155 83 236 -14 q 74 342 74 181 q 197 683 74 542 q 522 824 321 824 q 728 778 633 824 q 875 651 822 733 q 965 776 903 729 q 1110 824 1028 824 q 1251 775 1193 824 q 1335 651 1310 726 q 1430 776 1364 729 q 1581 824 1496 824 q 1817 713 1729 824 q 1906 401 1906 601 q 1836 142 1906 258 q 1726 39 1800 78 q 1549 0 1651 0 l 1549 129 q 1764 401 1764 129 q 1714 625 1764 543 q 1581 707 1664 707 q 1450 642 1497 707 q 1403 460 1403 576 l 1403 0 l 1267 0 l 1267 460 q 1223 641 1267 575 q 1108 707 1179 707 q 995 644 1038 707 q 953 458 953 582 l 953 0 l 817 0 l 817 428 q 731 630 817 556 q 526 704 644 704 q 320 628 407 704 q 208 422 233 553 q 281 490 232 464 q 383 517 331 517 z "},"ത":{"ha":1433,"x_min":71,"x_max":1363,"o":"m 719 661 q 628 529 665 611 q 592 340 592 447 q 626 169 592 232 q 720 106 660 106 q 815 168 781 106 q 849 337 849 231 q 812 527 849 443 q 719 661 775 611 m 410 113 l 410 -14 q 160 95 250 -14 q 71 389 71 204 q 194 699 71 574 q 503 824 317 824 q 726 774 633 824 q 929 824 826 824 q 1239 698 1115 824 q 1363 388 1363 572 q 1273 95 1363 204 q 1024 -14 1183 -14 l 1024 113 q 1168 183 1115 113 q 1221 391 1221 254 q 1136 618 1221 528 q 929 708 1051 708 q 838 693 879 708 q 947 549 904 640 q 989 353 989 458 q 913 82 989 178 q 719 -14 838 -14 q 524 80 600 -14 q 449 346 449 174 q 492 547 449 454 q 600 693 535 639 q 497 708 550 708 q 294 618 376 708 q 213 391 213 528 q 265 183 213 254 q 410 113 318 113 z "},"ഥ":{"ha":1278,"x_min":113,"x_max":1165,"o":"m 249 117 l 546 117 l 546 464 q 624 729 546 635 q 853 824 703 824 q 1085 729 1004 824 q 1165 464 1165 635 l 1165 0 l 113 0 l 113 818 l 249 818 l 249 117 m 1029 464 q 851 706 1029 706 q 679 464 679 706 l 679 117 l 1029 117 l 1029 464 z "},"ദ":{"ha":1007,"x_min":76,"x_max":932,"o":"m 932 232 q 849 53 932 119 q 613 -14 765 -14 q 481 -1 543 -14 l 481 121 q 615 106 538 106 q 742 137 693 106 q 792 229 792 168 q 740 322 792 290 q 594 354 689 354 l 538 354 l 538 476 l 572 476 q 743 585 743 476 q 536 704 743 704 q 312 610 406 704 q 218 367 218 517 q 248 181 218 265 q 342 0 278 96 l 185 0 q 76 364 76 176 q 204 688 76 551 q 536 824 332 824 q 794 758 706 824 q 883 585 883 692 q 742 419 883 444 q 881 359 829 407 q 932 232 932 311 z "},"ധ":{"ha":1331,"x_min":71,"x_max":1260,"o":"m 421 -14 q 168 94 265 -14 q 71 401 71 203 q 117 617 71 517 q 182 718 142 675 q 290 790 222 761 q 442 818 357 818 l 442 689 q 271 615 331 689 q 211 401 211 540 q 271 183 211 263 q 415 103 331 103 q 549 160 500 103 q 599 315 599 218 l 599 818 l 735 818 l 735 315 q 783 160 735 218 q 919 103 832 103 q 1063 181 1006 103 q 1119 400 1119 260 q 1060 615 1119 540 q 889 689 1000 689 l 889 818 q 1041 790 974 818 q 1149 718 1108 761 q 1214 617 1189 675 q 1260 401 1260 517 q 1165 94 1260 201 q 910 -14 1069 -14 q 759 25 824 -14 q 665 129 694 64 q 421 -14 596 -14 z "},"ന":{"ha":1331,"x_min":71,"x_max":1260,"o":"m 71 408 q 168 715 71 607 q 421 824 265 824 q 665 681 596 824 q 759 785 694 746 q 910 824 824 824 q 1165 716 1069 824 q 1260 408 1260 608 q 1214 192 1260 293 q 1149 92 1189 135 q 1041 20 1108 49 q 889 -8 974 -8 l 889 121 q 1060 195 1000 121 q 1119 410 1119 269 q 1063 628 1119 550 q 919 707 1006 707 q 783 649 832 707 q 735 494 735 592 l 735 -8 l 599 -8 l 599 494 q 549 649 599 592 q 415 707 500 707 q 271 627 331 707 q 211 408 211 547 q 271 195 211 269 q 442 121 331 121 l 442 -8 q 290 20 357 -8 q 182 92 222 49 q 117 192 142 135 q 71 408 71 293 z "},"ഩ":{"ha":1528,"x_min":74,"x_max":1458,"o":"m 362 400 q 331 400 362 400 q 258 357 300 400 q 217 251 217 314 q 260 146 217 189 q 365 103 304 103 q 465 144 426 103 q 504 250 504 186 q 464 357 504 314 q 362 400 424 400 m 381 518 q 566 442 492 518 q 640 253 640 367 q 563 63 640 139 q 361 -14 486 -14 q 155 91 236 -14 q 74 376 74 196 q 199 690 74 556 q 519 824 325 824 q 723 773 632 824 q 864 636 814 722 q 966 769 893 719 q 1126 818 1039 818 q 1368 707 1278 818 q 1458 394 1458 596 q 1417 183 1458 279 q 1354 88 1392 129 q 1253 21 1317 47 q 1110 -6 1190 -6 l 1110 124 q 1263 192 1210 124 q 1317 399 1317 261 q 1265 619 1317 538 q 1128 700 1214 700 q 990 635 1042 700 q 939 457 938 571 l 939 0 l 806 0 l 806 411 q 723 626 806 544 q 522 708 640 708 q 312 629 403 708 q 201 421 221 550 q 276 492 228 465 q 381 518 325 518 z "},"പ":{"ha":1281,"x_min":58,"x_max":1167,"o":"m 361 -14 q 141 86 224 -12 q 58 324 58 185 q 157 565 58 464 q 408 667 256 667 q 660 569 561 667 q 760 336 760 471 q 678 111 760 201 q 797 117 715 117 l 1033 117 l 1033 818 l 1167 818 l 1167 0 l 518 0 l 518 113 q 618 326 618 196 q 560 487 618 424 q 408 550 503 550 q 257 484 314 550 q 200 324 200 418 q 247 174 200 229 q 361 115 294 118 l 361 -14 z "},"ഫ":{"ha":1675,"x_min":58,"x_max":1563,"o":"m 1079 485 l 1079 117 l 1426 117 l 1426 485 q 1379 649 1426 593 q 1251 706 1332 706 q 1124 649 1169 706 q 1079 485 1079 593 m 361 -14 q 141 86 224 -12 q 58 324 58 185 q 157 565 58 464 q 408 667 256 667 q 660 569 561 667 q 760 336 760 471 q 678 111 760 201 q 797 117 715 117 l 944 117 l 944 485 q 1024 735 944 647 q 1252 824 1104 824 q 1481 735 1400 824 q 1563 485 1563 647 l 1563 0 l 518 0 l 518 113 q 618 326 618 196 q 560 487 618 424 q 408 550 503 550 q 257 484 314 550 q 200 324 200 418 q 247 174 200 229 q 361 115 294 118 l 361 -14 z "},"ബ":{"ha":1974,"x_min":74,"x_max":1860,"o":"m 362 400 q 331 400 362 400 q 258 357 300 400 q 217 251 217 314 q 260 146 217 189 q 365 103 304 103 q 465 144 426 103 q 504 250 504 186 q 464 357 504 314 q 362 400 424 400 m 1182 114 q 1278 231 1240 154 q 1317 423 1317 307 q 1265 619 1317 539 q 1128 700 1214 700 q 990 635 1042 700 q 939 457 938 571 l 939 0 l 806 0 l 806 411 q 723 626 806 544 q 522 708 640 708 q 312 629 403 708 q 201 421 221 550 q 276 492 228 465 q 381 518 325 518 q 566 442 492 518 q 640 253 640 367 q 563 63 640 139 q 361 -14 486 -14 q 155 91 236 -14 q 74 376 74 196 q 199 690 74 556 q 519 824 325 824 q 720 772 632 824 q 864 628 808 721 q 965 767 893 717 q 1126 818 1038 818 q 1368 709 1278 818 q 1458 408 1458 600 q 1428 247 1458 329 q 1354 117 1399 165 l 1725 117 l 1725 818 l 1860 818 l 1860 0 l 1182 0 l 1182 114 z "},"ഭ":{"ha":953,"x_min":113,"x_max":890,"o":"m 668 444 l 586 447 q 503 390 503 447 q 538 340 503 356 q 663 324 574 324 q 890 163 890 324 q 814 26 890 72 q 607 -21 738 -21 q 386 18 476 -21 l 386 140 q 591 94 499 94 q 722 109 683 94 q 760 158 760 124 q 728 203 760 193 q 601 213 696 213 q 438 258 506 213 q 371 385 371 303 q 428 513 371 467 q 564 560 485 560 l 636 557 q 731 624 731 557 q 679 683 731 660 q 529 707 628 707 q 325 633 401 707 q 249 425 249 560 l 249 0 l 113 0 l 113 425 q 226 717 113 611 q 529 824 340 824 q 772 766 681 824 q 864 626 864 708 q 813 494 864 543 q 668 444 763 444 z "},"മ":{"ha":1067,"x_min":113,"x_max":954,"o":"m 113 0 l 113 414 q 229 715 113 607 q 535 824 346 824 q 839 716 724 824 q 954 414 954 608 l 954 0 l 113 0 m 825 414 q 778 594 825 518 q 642 699 731 669 q 676 583 675 644 q 658 468 678 521 q 595 351 639 415 q 511 240 551 286 q 396 111 428 143 l 825 111 l 825 414 m 242 414 l 242 111 q 265 138 250 119 q 486 407 431 317 q 514 714 597 588 q 314 624 386 707 q 242 414 242 540 z "},"യ":{"ha":1514,"x_min":61,"x_max":1444,"o":"m 546 108 q 653 124 600 108 q 508 385 560 219 q 482 483 497 424 q 458 575 467 543 q 433 642 449 607 q 339 707 403 707 q 239 648 275 707 q 203 497 203 589 q 303 220 203 332 q 546 108 403 108 m 772 185 q 883 320 843 239 q 922 495 922 401 q 881 648 922 589 q 768 707 839 707 q 652 658 697 707 q 606 529 607 608 q 640 411 614 503 q 772 185 682 263 m 1056 493 q 1011 298 1056 399 q 888 122 967 197 q 999 107 940 107 q 1217 206 1132 107 q 1303 435 1303 306 q 1248 630 1303 565 q 1097 694 1193 694 l 1097 824 q 1351 722 1257 824 q 1444 438 1444 621 q 1319 121 1444 256 q 996 -14 1194 -14 q 768 39 869 -14 q 542 -14 665 -14 q 198 131 335 -14 q 61 489 61 276 q 137 729 61 635 q 333 824 213 824 q 458 791 410 824 q 543 689 507 758 q 634 786 572 749 q 764 824 696 824 q 976 732 896 824 q 1056 493 1056 640 z "},"ര":{"ha":1054,"x_min":74,"x_max":978,"o":"m 581 367 q 615 174 581 243 q 710 106 650 106 q 803 173 769 106 q 838 360 838 240 q 707 661 838 553 q 581 367 581 550 m 978 365 q 906 91 978 196 q 708 -14 835 -14 q 509 89 581 -14 q 438 360 438 192 q 485 556 438 464 q 596 697 532 649 q 524 707 561 707 q 302 611 390 707 q 214 367 214 515 q 244 181 214 265 q 339 0 274 96 l 182 0 q 74 363 74 176 q 197 686 74 549 q 517 824 319 824 q 846 697 714 824 q 978 365 978 571 z "},"റ":{"ha":885,"x_min":67,"x_max":818,"o":"m 363 0 q 196 58 264 0 q 67 413 67 167 q 170 710 67 596 q 444 824 274 824 q 716 711 614 824 q 818 417 818 599 q 742 118 818 236 q 522 0 667 0 l 522 129 q 635 203 593 129 q 676 414 676 278 q 613 628 676 550 q 442 706 549 706 q 272 626 335 706 q 208 411 208 547 q 250 202 208 275 q 363 129 292 129 l 363 0 z "},"ല":{"ha":1235,"x_min":113,"x_max":1121,"o":"m 249 518 l 249 454 l 599 454 l 599 517 q 549 657 599 607 q 423 707 500 707 q 297 658 346 707 q 249 518 249 608 m 113 478 q 192 733 113 642 q 424 824 272 824 q 653 733 575 824 q 732 478 732 643 l 732 338 l 249 338 l 249 117 l 986 117 l 986 818 l 1121 818 l 1121 0 l 113 0 l 113 478 z "},"ള":{"ha":1056,"x_min":65,"x_max":989,"o":"m 219 496 q 203 478 219 496 q 188 411 188 461 q 221 327 188 361 q 304 293 254 293 q 388 328 354 293 q 421 411 421 363 q 388 495 421 460 q 303 531 354 531 q 219 496 251 531 m 718 -3 l 306 -1 q 214 -69 214 -1 q 246 -122 214 -104 q 322 -139 278 -139 l 972 -139 l 972 -256 l 283 -256 q 134 -203 193 -256 q 75 -66 75 -151 q 135 69 75 19 q 300 118 196 118 l 685 118 q 853 230 853 118 q 701 342 853 342 l 656 342 l 656 467 l 701 467 q 780 496 754 467 q 806 569 806 525 q 739 675 806 638 q 561 713 672 713 q 373 680 450 713 q 256 594 296 647 q 343 621 294 621 q 486 559 428 621 q 544 403 544 497 q 476 246 544 308 q 303 183 407 183 q 133 252 200 183 q 65 438 65 321 q 199 713 65 601 q 549 824 333 824 q 833 754 721 824 q 944 569 944 685 q 913 462 944 507 q 822 406 882 417 q 947 346 904 394 q 989 225 989 297 q 918 57 989 117 q 718 -3 847 -3 z "},"ഴ":{"ha":968,"x_min":65,"x_max":899,"o":"m 549 224 l 549 229 q 510 228 536 228 q 190 321 314 228 q 65 585 65 414 q 117 810 65 672 l 257 810 q 206 592 206 681 q 281 412 206 475 q 479 342 357 349 q 431 401 449 375 q 395 475 413 428 q 378 576 378 522 q 450 751 378 678 q 636 824 522 824 q 824 749 750 824 q 899 558 899 675 q 838 362 899 440 q 671 251 776 283 q 674 224 674 235 q 595 47 674 108 q 402 -14 517 -14 q 204 14 288 -14 l 204 147 q 504 139 408 81 q 549 224 549 165 m 515 574 q 515 545 515 574 q 530 486 515 517 q 548 448 544 456 q 565 422 551 440 q 617 356 583 399 q 761 557 761 400 q 730 663 761 619 q 640 707 699 707 q 548 669 581 707 q 515 574 515 631 z "},"വ":{"ha":1372,"x_min":67,"x_max":1260,"o":"m 406 0 q 270 26 331 0 q 173 94 210 53 q 111 189 136 135 q 67 399 67 285 q 174 703 67 583 q 462 824 281 824 q 749 706 643 824 q 856 409 856 588 q 754 117 856 231 l 1124 117 l 1124 818 l 1260 818 l 1260 0 l 589 0 l 589 114 q 715 399 715 219 q 646 622 715 538 q 460 707 576 707 q 276 620 344 707 q 207 399 207 533 q 269 196 207 265 q 406 126 331 126 l 406 0 z "},"ശ":{"ha":1433,"x_min":71,"x_max":1356,"o":"m 1088 661 q 997 528 1033 610 q 960 340 960 447 q 994 169 960 232 q 1088 106 1028 106 q 1183 168 1149 106 q 1217 337 1217 231 q 1181 527 1217 443 q 1088 661 1144 611 m 697 333 q 617 76 697 167 q 390 -14 538 -14 q 157 99 243 -14 q 71 406 71 211 q 286 794 71 715 q 426 818 347 818 l 426 689 q 268 624 325 689 q 211 410 211 560 q 263 182 211 261 q 393 103 315 103 q 516 160 471 103 q 561 326 561 217 l 561 454 q 659 717 561 610 q 913 824 757 824 q 1226 690 1097 824 q 1356 366 1356 556 q 1282 81 1356 176 q 1089 -14 1208 -14 q 895 79 969 -14 q 821 350 821 172 q 865 547 821 453 q 981 696 908 642 q 917 706 954 706 q 763 643 828 706 q 697 454 697 581 l 697 333 z "},"ഷ":{"ha":1903,"x_min":58,"x_max":1790,"o":"m 1339 117 l 1656 117 l 1656 343 q 1667 507 1656 442 q 1528 372 1621 426 q 1339 299 1436 317 l 1339 117 m 971 564 q 1042 446 971 485 q 1203 408 1113 407 l 1203 557 q 1093 707 1203 707 q 1004 667 1038 707 q 971 564 971 626 m 356 -14 q 140 87 222 -12 q 58 324 58 186 q 157 565 58 463 q 406 667 256 667 q 655 569 557 667 q 753 338 753 471 q 669 111 753 206 q 779 117 700 117 l 1203 117 l 1203 288 l 1200 288 q 931 363 1028 288 q 835 557 835 439 q 907 749 835 675 q 1095 824 979 824 q 1275 755 1211 824 q 1339 567 1339 686 l 1339 421 q 1526 508 1436 433 q 1656 690 1617 583 l 1790 690 l 1790 0 l 515 0 l 515 113 q 613 326 613 194 q 556 487 613 424 q 406 550 499 550 q 257 484 314 550 q 200 324 200 418 q 248 174 200 231 q 356 115 296 117 l 356 -14 z "},"സ":{"ha":1694,"x_min":71,"x_max":1625,"o":"m 1625 406 q 1539 99 1625 211 q 1308 -14 1453 -14 q 1081 79 1163 -14 q 999 333 999 172 l 999 460 q 857 707 999 707 q 752 650 792 707 q 713 494 713 593 l 713 0 l 576 0 l 576 494 q 528 649 576 592 q 399 707 481 707 q 264 625 317 707 q 211 406 211 543 q 266 199 211 269 q 418 129 321 129 l 418 0 q 274 26 338 0 q 174 94 211 53 q 114 190 138 135 q 71 401 71 288 q 161 713 71 601 q 403 824 251 824 q 551 785 488 824 q 644 681 614 746 q 728 784 672 744 q 860 824 785 824 q 1067 724 999 824 q 1135 460 1135 625 l 1135 326 q 1180 161 1135 219 q 1306 103 1225 103 q 1435 177 1388 103 q 1483 404 1483 251 q 1428 623 1483 557 q 1268 689 1374 689 l 1268 818 q 1422 791 1356 818 q 1525 722 1488 764 q 1586 622 1563 681 q 1625 406 1625 528 z "},"ഹ":{"ha":1703,"x_min":58,"x_max":1632,"o":"m 356 -14 q 140 87 222 -12 q 58 324 58 186 q 157 565 58 463 q 406 667 256 667 q 655 569 557 667 q 753 338 753 471 q 672 115 753 206 q 779 121 703 121 l 886 121 q 986 115 961 121 q 875 408 875 228 q 981 706 875 589 q 1255 824 1086 824 q 1528 708 1424 824 q 1632 404 1632 592 q 1494 47 1632 160 q 1318 -14 1422 -14 l 1318 115 q 1441 199 1392 118 q 1490 409 1490 281 q 1426 622 1490 538 q 1254 707 1363 707 q 1081 622 1146 707 q 1015 399 1015 538 q 1142 114 1015 226 l 1142 0 l 515 0 l 515 115 q 613 326 613 197 q 556 487 613 424 q 406 550 499 550 q 257 484 314 550 q 200 324 200 418 q 248 174 200 231 q 356 115 296 117 l 356 -14 z "},"ഺ":{"ha":831,"x_min":113,"x_max":858,"o":"m 113 0 l 113 818 l 249 818 l 249 117 l 858 117 l 858 0 l 654 0 l 654 -287 l 518 -287 l 518 0 l 113 0 z "},"ഽ":{"ha":615,"x_min":139,"x_max":576,"o":"m 428 -125 q 360 -335 428 -264 q 179 -406 293 -406 q 139 -404 151 -406 l 139 -281 q 179 -282 151 -282 q 288 -125 288 -282 l 288 856 q 355 1066 288 996 q 536 1136 422 1136 q 576 1135 564 1136 l 576 1011 q 536 1013 564 1013 q 428 856 428 1013 l 428 -125 z "},"ാ":{"ha":668,"x_min":42,"x_max":604,"o":"m 499 708 q 551 651 499 708 q 604 407 604 593 q 499 106 604 221 q 229 -10 393 -10 q 42 26 136 -10 l 42 149 q 222 107 149 107 q 395 189 326 107 q 464 408 464 271 q 395 626 464 546 q 222 707 326 707 q 42 665 149 707 l 42 788 q 229 824 136 824 q 499 708 393 824 z "},"ി":{"ha":376,"x_min":-251,"x_max":264,"o":"m 264 0 l 128 0 l 128 1000 q 94 1096 128 1061 q 4 1131 61 1131 q -85 1097 -53 1131 q -118 1000 -118 1064 l -118 971 l -251 971 l -251 1004 q -181 1183 -251 1121 q 5 1246 -110 1246 q 192 1183 119 1246 q 264 1004 264 1119 l 264 0 z "},"ീ":{"ha":376,"x_min":-375,"x_max":264,"o":"m -168 1153 q -188 1153 -168 1153 q -233 1126 -208 1153 q -258 1060 -258 1099 q -233 995 -258 1022 q -168 968 -207 968 q -103 995 -129 968 q -76 1060 -76 1022 q -102 1126 -76 1099 q -168 1153 -128 1153 m 264 0 l 128 0 l 128 914 q 91 1083 128 1018 q -17 1157 54 1147 q 39 1047 39 1124 q -19 916 39 969 q -169 863 -78 863 q -317 919 -260 863 q -375 1063 -375 975 q -299 1216 -375 1150 q -90 1282 -222 1282 q 167 1187 69 1282 q 264 931 264 1092 l 264 0 z "},"ു":{"ha":481,"x_min":-43,"x_max":426,"o":"m 190 -126 q 164 -126 190 -126 q 109 -166 138 -126 q 81 -267 81 -206 q 110 -369 81 -329 q 193 -408 140 -408 q 274 -369 246 -408 q 303 -268 303 -331 q 273 -166 303 -206 q 190 -126 243 -126 m 276 -22 q 387 -112 347 -47 q 426 -279 426 -178 q 363 -453 426 -381 q 192 -526 299 -526 q 21 -453 85 -526 q -43 -274 -43 -381 q 5 -100 -43 -168 q 138 -14 53 -32 l 186 161 q 256 531 256 408 q 211 661 256 615 q 81 707 167 707 q 22 700 57 707 l 22 819 q 81 824 53 824 q 309 751 224 824 q 394 531 394 679 q 324 161 394 424 l 276 -22 z "},"ൂ":{"ha":486,"x_min":-33,"x_max":435,"o":"m 200 -429 q 325 -321 301 -429 l 78 -321 q 121 -400 89 -371 q 200 -429 153 -429 m 328 -226 q 285 -137 318 -171 q 199 -104 251 -104 q 115 -137 147 -104 q 75 -226 83 -171 l 328 -226 m 285 -22 q 395 -112 356 -47 q 435 -278 435 -176 q 372 -453 435 -381 q 201 -526 308 -526 q 30 -453 93 -526 q -33 -274 -33 -381 q 15 -100 -33 -168 q 146 -14 63 -32 l 194 161 q 264 531 264 408 q 219 661 264 615 q 90 707 175 707 q 32 700 67 707 l 32 819 q 90 824 64 824 q 319 751 233 824 q 404 531 404 679 q 400 460 404 486 q 394 420 396 435 q 387 378 393 406 q 378 340 381 351 q 368 297 376 329 q 358 255 360 264 q 344 207 356 246 l 285 -22 z "},"ൃ":{"ha":464,"x_min":-121,"x_max":472,"o":"m 17 -249 q 6 -261 17 -249 q -6 -308 -6 -274 q 17 -367 -6 -343 q 76 -390 40 -390 q 135 -366 111 -390 q 158 -308 158 -342 q 135 -250 158 -275 q 76 -225 111 -225 q 17 -249 40 -225 m 472 -179 q 472 -253 472 -179 q 376 -426 472 -328 q 140 -524 281 -524 q -47 -462 26 -524 q -121 -313 -121 -400 q -63 -170 -121 -226 q 78 -114 -6 -114 q 213 -166 161 -114 q 264 -294 264 -218 q 204 -417 264 -369 q 299 -331 264 -399 q 335 -176 335 -262 q 301 -1 335 -89 q 226 156 267 86 q 152 336 186 226 q 118 568 118 446 q 160 818 118 690 l 297 818 q 258 583 258 692 q 281 394 258 475 q 334 248 303 313 q 397 121 365 183 q 472 -179 472 -31 z "},"ൄ":{"ha":464,"x_min":-232,"x_max":472,"o":"m -100 -361 q -107 -323 -107 -344 q -87 -285 -107 -301 q -36 -268 -68 -268 q 21 -290 -4 -268 q 77 -268 46 -268 q 128 -285 108 -268 q 147 -323 147 -301 q 140 -361 147 -344 l 93 -361 q 101 -331 101 -347 q 75 -306 101 -306 q 43 -340 43 -306 l 43 -361 l -3 -361 l -3 -340 q -35 -306 -3 -306 q -53 -312 -46 -306 q -61 -332 -61 -319 q -51 -361 -61 -344 l -100 -361 m 23 -206 q -14 -206 23 -206 q -97 -236 -51 -206 q -143 -321 -143 -267 q -98 -406 -143 -375 q 22 -437 -53 -437 q 141 -407 97 -437 q 185 -322 185 -376 q 141 -237 185 -268 q 23 -206 97 -206 m 472 -165 q 356 -426 472 -328 q 83 -524 240 -524 q -153 -469 -74 -524 q -232 -328 -232 -415 q -160 -184 -232 -240 q 24 -128 -87 -128 q 202 -181 135 -128 q 269 -308 269 -235 q 254 -382 269 -349 q 335 -165 335 -304 q 226 156 335 -32 q 152 336 186 226 q 118 568 118 446 q 160 818 118 690 l 297 818 q 258 583 258 692 q 281 394 258 475 q 334 249 303 313 q 397 122 365 185 q 472 -165 472 -29 z "},"െ":{"ha":1038,"x_min":69,"x_max":968,"o":"m 69 360 q 197 685 69 547 q 517 824 324 824 q 840 695 711 824 q 968 379 968 567 q 860 0 968 192 l 703 0 q 797 192 767 103 q 828 389 828 282 q 736 621 828 536 q 526 706 644 706 q 319 631 407 706 q 207 422 231 557 q 283 490 231 464 q 390 517 336 517 q 578 443 506 517 q 650 258 650 369 q 574 66 650 146 q 370 -14 497 -14 q 156 92 243 -14 q 69 360 69 197 m 374 397 q 343 397 374 397 q 272 355 313 397 q 231 250 231 313 q 274 145 231 188 q 377 103 317 103 q 476 144 438 103 q 515 249 515 186 q 475 355 515 313 q 374 397 435 397 z "},"േ":{"ha":881,"x_min":58,"x_max":818,"o":"m 555 682 q 543 669 555 682 q 531 618 531 656 q 555 554 531 581 q 617 528 579 528 q 680 554 654 528 q 706 618 706 581 q 680 682 706 656 q 617 708 654 708 q 555 682 579 708 m 617 282 q 598 282 617 282 q 555 256 579 282 q 531 192 531 231 q 555 128 531 154 q 617 101 579 101 q 681 128 656 101 q 706 192 706 154 q 680 256 706 231 q 617 282 654 282 m 623 382 q 669 382 623 382 q 767 328 715 382 q 818 190 818 275 q 743 46 818 106 q 521 -14 668 -14 q 186 106 314 -14 q 58 405 58 226 q 186 703 58 583 q 521 824 314 824 q 743 764 668 824 q 818 619 818 704 q 767 481 818 535 q 623 428 715 428 q 476 478 531 428 q 422 598 422 529 q 475 710 422 667 q 276 615 357 696 q 196 404 196 535 q 276 192 196 274 q 474 101 357 111 q 422 212 422 143 q 476 331 422 281 q 623 382 531 382 z "},"ൈ":{"ha":2029,"x_min":69,"x_max":1960,"o":"m 1061 360 q 1188 685 1061 547 q 1509 824 1315 824 q 1831 695 1703 824 q 1960 379 1960 567 q 1851 0 1960 192 l 1694 0 q 1789 192 1758 103 q 1819 389 1819 282 q 1728 621 1819 536 q 1517 706 1636 706 q 1310 631 1399 706 q 1199 422 1222 557 q 1275 490 1222 464 q 1382 517 1328 517 q 1569 443 1497 517 q 1642 258 1642 369 q 1565 66 1642 146 q 1362 -14 1489 -14 q 1148 92 1235 -14 q 1061 360 1061 197 m 1365 397 q 1335 397 1365 397 q 1263 355 1304 397 q 1222 250 1222 313 q 1265 145 1222 188 q 1369 103 1308 103 q 1468 144 1429 103 q 1507 249 1507 186 q 1467 355 1507 313 q 1365 397 1426 397 m 69 360 q 197 685 69 547 q 517 824 324 824 q 840 695 711 824 q 968 379 968 567 q 860 0 968 192 l 703 0 q 797 192 767 103 q 828 389 828 282 q 736 621 828 536 q 526 706 644 706 q 319 631 407 706 q 207 422 231 557 q 283 490 231 464 q 390 517 336 517 q 578 443 506 517 q 650 258 650 369 q 574 66 650 146 q 370 -14 497 -14 q 156 92 243 -14 q 69 360 69 197 m 374 397 q 343 397 374 397 q 272 355 313 397 q 231 250 231 313 q 274 145 231 188 q 377 103 317 103 q 476 144 438 103 q 515 249 515 186 q 475 355 515 313 q 374 397 435 397 z "},"ൊ":{"ha":2535,"x_min":69,"x_max":2471,"o":"m 2365 708 q 2418 651 2365 708 q 2471 407 2471 593 q 2365 106 2471 221 q 2096 -10 2260 -10 q 1908 26 2003 -10 l 1908 149 q 2089 107 2015 107 q 2262 189 2193 107 q 2331 408 2331 271 q 2262 626 2331 546 q 2089 707 2193 707 q 1908 665 2015 707 l 1908 788 q 2096 824 2003 824 q 2365 708 2260 824 m 1775 676 q 1782 669 1775 676 q 1789 643 1789 663 q 1775 610 1789 624 q 1741 596 1761 596 q 1707 610 1721 596 q 1693 643 1693 624 q 1707 676 1693 663 q 1741 690 1721 690 q 1775 676 1761 690 m 1644 771 q 1651 764 1644 771 q 1658 738 1658 757 q 1644 704 1658 718 q 1610 690 1631 690 q 1576 704 1590 690 q 1563 738 1563 718 q 1576 771 1563 757 q 1610 785 1590 785 q 1644 771 1631 785 m 1844 511 q 1851 504 1844 511 q 1858 478 1858 497 q 1844 444 1858 458 q 1810 431 1831 431 q 1776 444 1790 431 q 1763 478 1763 458 q 1776 511 1763 497 q 1810 525 1790 525 q 1844 511 1831 525 m 1468 790 q 1475 783 1468 790 q 1482 757 1482 776 q 1468 724 1482 738 q 1434 710 1454 710 q 1400 724 1414 710 q 1386 757 1386 738 q 1400 790 1386 776 q 1434 804 1414 804 q 1468 790 1454 804 m 1831 325 q 1838 318 1831 325 q 1844 292 1844 311 q 1831 258 1844 272 q 1797 244 1817 244 q 1763 258 1776 244 q 1749 292 1749 272 q 1763 325 1749 311 q 1797 339 1776 339 q 1831 325 1817 339 m 1304 731 q 1311 724 1304 731 q 1318 697 1318 717 q 1304 664 1318 678 q 1270 650 1290 650 q 1236 664 1250 650 q 1222 697 1222 678 q 1236 731 1222 717 q 1270 744 1250 744 q 1304 731 1290 744 m 1731 189 q 1738 182 1731 189 q 1744 156 1744 175 q 1731 122 1744 136 q 1697 108 1717 108 q 1663 122 1676 108 q 1649 156 1649 136 q 1663 189 1649 175 q 1697 203 1676 203 q 1731 189 1717 203 m 1193 578 q 1200 571 1193 578 q 1207 544 1207 564 q 1193 511 1207 525 q 1159 497 1179 497 q 1125 511 1139 497 q 1111 544 1111 525 q 1125 578 1111 564 q 1159 592 1139 592 q 1193 578 1179 592 m 1563 115 q 1569 108 1563 115 q 1576 82 1576 101 q 1563 49 1576 63 q 1528 35 1549 35 q 1494 49 1508 35 q 1481 82 1481 63 q 1494 115 1481 101 q 1528 129 1508 129 q 1563 115 1549 129 m 1174 404 q 1181 397 1174 404 q 1188 371 1188 390 q 1174 338 1188 351 q 1140 324 1160 324 q 1106 338 1119 324 q 1092 371 1092 351 q 1106 404 1092 390 q 1140 418 1119 418 q 1174 404 1160 418 m 1386 136 q 1393 129 1386 136 q 1400 103 1400 122 q 1386 69 1400 83 q 1352 56 1372 56 q 1318 69 1332 56 q 1304 103 1304 83 q 1318 136 1304 122 q 1352 150 1332 150 q 1386 136 1372 150 m 1244 242 q 1251 235 1244 242 q 1258 208 1258 228 q 1244 175 1258 189 q 1210 161 1231 161 q 1176 175 1190 161 q 1163 208 1163 189 q 1176 242 1163 228 q 1210 256 1190 256 q 1244 242 1231 256 m 374 397 q 343 397 374 397 q 272 355 313 397 q 231 250 231 313 q 274 145 231 188 q 377 103 317 103 q 476 144 438 103 q 515 249 515 186 q 475 355 515 313 q 374 397 435 397 m 390 517 q 578 443 506 517 q 650 258 650 369 q 574 66 650 146 q 369 -14 497 -14 q 156 90 242 -14 q 69 371 69 193 q 197 686 69 549 q 519 824 324 824 q 842 697 715 824 q 968 381 968 571 q 860 0 968 192 l 703 0 q 797 192 767 103 q 828 389 828 282 q 736 621 828 536 q 526 706 644 706 q 319 631 407 706 q 207 422 231 557 q 283 490 231 464 q 390 517 336 517 z "},"ോ":{"ha":2372,"x_min":58,"x_max":2308,"o":"m 2203 708 q 2256 651 2203 708 q 2308 407 2308 593 q 2203 106 2308 221 q 1933 -10 2097 -10 q 1746 26 1840 -10 l 1746 149 q 1926 107 1853 107 q 2099 189 2031 107 q 2168 408 2168 271 q 2099 626 2168 546 q 1926 707 2031 707 q 1746 665 1853 707 l 1746 788 q 1933 824 1840 824 q 2203 708 2097 824 m 1624 676 q 1631 669 1624 676 q 1638 643 1638 663 q 1624 610 1638 624 q 1590 596 1610 596 q 1556 610 1569 596 q 1542 643 1542 624 q 1556 676 1542 663 q 1590 690 1569 690 q 1624 676 1610 690 m 1493 771 q 1500 764 1493 771 q 1507 738 1507 757 q 1493 704 1507 718 q 1459 690 1479 690 q 1425 704 1439 690 q 1411 738 1411 718 q 1425 771 1411 757 q 1459 785 1439 785 q 1493 771 1479 785 m 1693 511 q 1700 504 1693 511 q 1707 478 1707 497 q 1693 444 1707 458 q 1659 431 1679 431 q 1625 444 1639 431 q 1611 478 1611 458 q 1625 511 1611 497 q 1659 525 1639 525 q 1693 511 1679 525 m 1317 790 q 1324 783 1317 790 q 1331 757 1331 776 q 1317 724 1331 738 q 1283 710 1303 710 q 1249 724 1263 710 q 1235 757 1235 738 q 1249 790 1235 776 q 1283 804 1263 804 q 1317 790 1303 804 m 1679 325 q 1686 318 1679 325 q 1693 292 1693 311 q 1679 258 1693 272 q 1645 244 1665 244 q 1611 258 1625 244 q 1597 292 1597 272 q 1611 325 1597 311 q 1645 339 1625 339 q 1679 325 1665 339 m 1153 731 q 1160 724 1153 731 q 1167 697 1167 717 q 1153 664 1167 678 q 1119 650 1139 650 q 1085 664 1099 650 q 1071 697 1071 678 q 1085 731 1071 717 q 1119 744 1099 744 q 1153 731 1139 744 m 1579 189 q 1586 182 1579 189 q 1593 156 1593 175 q 1579 122 1593 136 q 1545 108 1565 108 q 1511 122 1525 108 q 1497 156 1497 136 q 1511 189 1497 175 q 1545 203 1525 203 q 1579 189 1565 203 m 1042 578 q 1049 571 1042 578 q 1056 544 1056 564 q 1042 511 1056 525 q 1008 497 1028 497 q 974 511 988 497 q 960 544 960 525 q 974 578 960 564 q 1008 592 988 592 q 1042 578 1028 592 m 1411 115 q 1418 108 1411 115 q 1425 82 1425 101 q 1411 49 1425 63 q 1377 35 1397 35 q 1343 49 1357 35 q 1329 82 1329 63 q 1343 115 1329 101 q 1377 129 1357 129 q 1411 115 1397 129 m 1022 404 q 1029 397 1022 404 q 1036 371 1036 390 q 1022 338 1036 351 q 988 324 1008 324 q 954 338 968 324 q 940 371 940 351 q 954 404 940 390 q 988 418 968 418 q 1022 404 1008 418 m 1235 136 q 1242 129 1235 136 q 1249 103 1249 122 q 1235 69 1249 83 q 1201 56 1221 56 q 1167 69 1181 56 q 1153 103 1153 83 q 1167 136 1153 122 q 1201 150 1181 150 q 1235 136 1221 150 m 1093 242 q 1100 235 1093 242 q 1107 208 1107 228 q 1093 175 1107 189 q 1059 161 1079 161 q 1025 175 1039 161 q 1011 208 1011 189 q 1025 242 1011 228 q 1059 256 1039 256 q 1093 242 1079 256 m 555 683 q 543 670 555 683 q 531 618 531 657 q 555 553 531 579 q 617 526 579 526 q 681 553 656 526 q 707 618 707 579 q 681 683 707 657 q 617 710 656 710 q 555 683 579 710 m 617 283 q 598 283 617 283 q 555 257 579 283 q 531 192 531 231 q 555 126 531 153 q 617 100 579 100 q 681 126 656 100 q 707 192 707 153 q 681 257 707 231 q 617 283 656 283 m 623 382 q 669 382 623 382 q 767 328 715 382 q 818 190 818 275 q 743 46 818 106 q 521 -14 668 -14 q 186 106 314 -14 q 58 405 58 226 q 186 703 58 583 q 521 824 314 824 q 743 764 668 824 q 818 619 818 704 q 767 481 818 535 q 623 428 715 428 q 476 478 531 428 q 422 598 422 529 q 475 710 422 667 q 278 615 358 696 q 199 404 199 533 q 278 193 199 275 q 474 101 358 111 q 422 212 422 143 q 476 331 422 281 q 623 382 531 382 z "},"ൌ":{"ha":2025,"x_min":76,"x_max":1953,"o":"m 760 674 q 767 667 760 674 q 774 640 774 660 q 760 607 774 621 q 726 593 746 593 q 692 607 706 593 q 678 640 678 621 q 692 674 678 660 q 726 688 706 688 q 760 674 746 688 m 629 768 q 636 761 629 768 q 643 735 643 754 q 629 701 643 715 q 595 688 615 688 q 561 701 575 688 q 547 735 547 715 q 561 768 547 754 q 595 782 575 782 q 629 768 615 782 m 829 508 q 836 501 829 508 q 843 475 843 494 q 829 442 843 456 q 795 428 815 428 q 761 442 775 428 q 747 475 747 456 q 761 508 747 494 q 795 522 775 522 q 829 508 815 522 m 453 788 q 460 781 453 788 q 467 754 467 774 q 453 721 467 735 q 419 707 439 707 q 385 721 399 707 q 371 754 371 735 q 385 788 371 774 q 419 801 399 801 q 453 788 439 801 m 815 322 q 822 315 815 322 q 829 289 829 308 q 815 256 829 269 q 781 242 801 242 q 747 256 761 242 q 733 289 733 269 q 747 322 733 308 q 781 336 761 336 q 815 322 801 336 m 289 728 q 296 721 289 728 q 303 694 303 714 q 289 661 303 675 q 255 647 275 647 q 221 661 235 647 q 207 694 207 675 q 221 728 207 714 q 255 742 235 742 q 289 728 275 742 m 715 186 q 722 179 715 186 q 729 153 729 172 q 715 119 729 133 q 681 106 701 106 q 647 119 661 106 q 633 153 633 133 q 647 186 633 172 q 681 200 661 200 q 715 186 701 200 m 178 575 q 185 568 178 575 q 192 542 192 561 q 178 508 192 522 q 144 494 164 494 q 110 508 124 494 q 96 542 96 522 q 110 575 96 561 q 144 589 124 589 q 178 575 164 589 m 547 113 q 554 106 547 113 q 561 79 561 99 q 547 46 561 60 q 513 32 533 32 q 479 46 493 32 q 465 79 465 60 q 479 113 465 99 q 513 126 493 126 q 547 113 533 126 m 158 401 q 165 394 158 401 q 172 368 172 388 q 158 335 172 349 q 124 321 144 321 q 90 335 104 321 q 76 368 76 349 q 90 401 76 388 q 124 415 104 415 q 158 401 144 415 m 371 133 q 378 126 371 133 q 385 100 385 119 q 371 67 385 81 q 337 53 357 53 q 303 67 317 53 q 289 100 289 81 q 303 133 289 119 q 337 147 317 147 q 371 133 357 147 m 229 239 q 236 232 229 239 q 243 206 243 225 q 229 172 243 186 q 195 158 215 158 q 161 172 175 158 q 147 206 147 186 q 161 239 147 225 q 195 253 175 253 q 229 239 215 253 m 1953 461 q 1840 136 1953 263 q 1547 10 1728 10 q 1406 33 1469 10 l 1406 158 q 1542 138 1483 138 q 1738 224 1664 138 q 1811 444 1811 310 q 1767 642 1811 579 q 1654 706 1722 706 q 1547 660 1586 706 q 1507 542 1507 614 l 1507 446 l 1368 446 l 1368 536 q 1326 661 1368 617 q 1222 706 1283 706 q 1119 657 1160 706 q 1078 538 1078 608 q 1111 385 1078 467 l 972 385 q 942 526 942 446 q 1017 739 942 654 q 1215 824 1093 824 q 1350 786 1292 824 q 1439 692 1408 749 q 1521 786 1465 749 q 1651 824 1576 824 q 1872 722 1792 824 q 1953 461 1953 621 z "},"്":{"ha":0,"x_min":-468,"x_max":101,"o":"m 101 1189 q 24 982 101 1058 q -184 906 -54 906 q -391 982 -314 906 q -468 1189 -468 1058 l -343 1189 q -301 1069 -343 1114 q -184 1024 -258 1024 q -68 1069 -110 1024 q -26 1189 -26 1114 l 101 1189 z "},"ൎ":{"ha":0,"x_min":-278,"x_max":-89,"o":"m -183 1221 q -162 1221 -183 1221 q -115 1195 -140 1221 q -89 1126 -89 1169 q -114 1058 -89 1083 q -183 1032 -139 1032 q -252 1058 -226 1032 q -278 1127 -278 1085 q -252 1195 -278 1169 q -183 1221 -226 1221 z "},"ൗ":{"ha":1132,"x_min":47,"x_max":1058,"o":"m 1058 461 q 947 136 1058 263 q 653 10 835 10 q 513 33 576 10 l 513 158 q 649 138 588 138 q 844 224 771 138 q 918 444 918 310 q 873 642 918 579 q 760 706 828 706 q 652 660 692 706 q 613 542 613 614 l 613 446 l 474 446 l 474 536 q 432 661 474 617 q 328 706 390 706 q 225 658 265 706 q 185 538 185 610 q 218 385 185 467 l 78 385 q 47 526 47 446 q 123 739 47 654 q 321 824 199 824 q 456 786 397 824 q 544 692 514 749 q 626 786 571 749 q 757 824 682 824 q 978 722 899 824 q 1058 461 1058 621 z "},"ൠ":{"ha":1254,"x_min":65,"x_max":1189,"o":"m 939 715 q 913 715 939 715 q 851 679 886 715 q 817 592 817 643 q 851 505 817 542 q 939 468 886 468 q 1025 505 992 468 q 1058 593 1058 542 q 1025 680 1058 644 q 939 715 992 715 m 316 715 q 289 715 316 715 q 230 680 263 715 q 197 593 197 644 q 231 505 197 542 q 317 468 264 468 q 403 505 369 468 q 438 593 438 542 q 403 680 438 644 q 316 715 369 715 m 375 -47 q 414 44 375 11 q 516 76 453 76 q 628 31 579 76 q 738 76 674 76 q 841 44 803 76 q 879 -47 879 11 q 865 -110 879 -78 l 774 -110 q 792 -51 792 -76 q 776 -12 792 -26 q 734 3 761 3 q 688 -15 707 3 q 669 -68 669 -33 l 669 -110 l 586 -110 l 586 -68 q 567 -16 586 -35 q 521 3 547 3 q 478 -12 494 3 q 463 -51 463 -26 q 481 -110 463 -76 l 390 -110 q 375 -47 375 -79 m 226 -26 q 624 -194 226 -194 q 920 -152 813 -194 q 1028 -25 1028 -110 q 627 135 1028 135 q 226 -26 226 135 m 1161 -31 q 1015 -240 1161 -169 q 628 -310 869 -310 q 240 -240 388 -310 q 93 -32 93 -169 q 153 115 93 58 q 311 194 213 172 q 138 333 210 240 q 65 547 65 425 q 138 746 65 668 q 321 824 211 824 q 499 754 431 824 q 567 589 567 685 q 503 432 567 493 q 364 371 440 371 q 243 403 288 371 q 394 280 299 315 q 628 244 490 244 q 1014 403 915 244 q 894 371 968 371 q 754 432 821 371 q 688 588 688 493 q 756 753 688 683 q 934 824 825 824 q 1116 745 1043 824 q 1189 545 1189 667 q 1117 332 1189 424 q 944 194 1046 240 q 1101 115 1042 172 q 1161 -31 1161 58 z "},"ൡ":{"ha":1846,"x_min":74,"x_max":1797,"o":"m 365 397 q 335 397 365 397 q 263 355 304 397 q 222 250 222 313 q 265 145 222 188 q 369 103 308 103 q 468 144 429 103 q 507 249 507 186 q 467 355 507 313 q 365 397 426 397 m 1797 100 q 1676 -212 1797 -92 q 1363 -333 1556 -333 q 1210 -317 1296 -333 l 1210 -192 q 1361 -214 1296 -214 q 1583 -128 1497 -214 q 1668 125 1668 -43 q 1665 168 1668 140 q 1564 35 1631 83 q 1410 -14 1497 -14 q 1215 63 1292 -14 q 1138 252 1138 139 q 1217 440 1138 365 q 1414 514 1296 514 q 1557 483 1488 514 q 1444 649 1524 589 q 1249 708 1365 708 q 1046 622 1133 708 q 958 393 958 536 l 958 0 l 821 0 l 822 400 q 731 619 822 533 q 523 706 639 706 q 320 630 407 706 q 208 422 233 554 q 281 490 232 464 q 383 517 331 517 q 571 443 499 517 q 643 257 643 369 q 567 65 643 144 q 364 -14 492 -14 q 155 87 236 -14 q 74 366 74 188 q 198 684 74 544 q 521 824 322 824 q 745 762 644 824 q 889 606 846 700 q 1035 762 936 700 q 1256 824 1133 824 q 1574 691 1456 824 q 1700 374 1693 558 q 1797 100 1797 256 m 1274 249 q 1274 217 1274 249 q 1312 144 1274 185 q 1418 103 1350 103 q 1532 166 1486 103 q 1578 338 1578 229 q 1415 399 1508 399 q 1313 356 1353 399 q 1274 249 1274 314 z "},"ൢ":{"ha":0,"x_min":-1092,"x_max":-112,"o":"m -286 -221 q -351 -402 -351 -278 q -286 -526 -351 -526 q -221 -383 -221 -526 q -286 -221 -221 -283 m -983 -383 q -918 -526 -983 -526 q -853 -401 -853 -526 q -918 -221 -853 -276 q -983 -383 -983 -283 m -744 -392 q -792 -558 -744 -500 q -918 -617 -839 -617 q -1044 -555 -997 -617 q -1092 -376 -1092 -493 q -1014 -183 -1092 -260 q -821 -106 -936 -106 q -688 -139 -746 -106 q -601 -215 -631 -172 q -521 -138 -576 -171 q -389 -106 -465 -106 q -193 -183 -274 -106 q -112 -376 -112 -260 q -160 -555 -112 -493 q -286 -617 -207 -617 q -412 -558 -365 -617 q -458 -392 -458 -500 q -434 -279 -458 -332 q -367 -197 -410 -226 q -494 -234 -439 -190 q -549 -353 -549 -278 l -549 -608 l -656 -608 l -656 -353 q -710 -234 -656 -278 q -836 -197 -764 -190 q -769 -279 -793 -226 q -744 -392 -744 -332 z "},"ൣ":{"ha":0,"x_min":-1164,"x_max":-79,"o":"m -1028 -401 q -1039 -412 -1028 -401 q -1050 -454 -1050 -424 q -1028 -506 -1050 -485 q -973 -528 -1006 -528 q -919 -506 -940 -528 q -899 -454 -899 -485 q -920 -401 -899 -424 q -974 -379 -942 -379 q -1028 -401 -1006 -379 m -143 -379 q -79 -563 -79 -453 q -156 -746 -79 -674 q -360 -818 -233 -818 q -461 -807 -412 -818 l -461 -711 q -361 -726 -406 -726 q -226 -679 -276 -726 q -175 -528 -175 -632 l -175 -524 q -331 -617 -229 -617 q -456 -571 -406 -617 q -506 -453 -506 -525 q -454 -337 -506 -382 q -326 -292 -403 -292 q -253 -304 -287 -292 q -421 -193 -296 -193 q -548 -243 -497 -193 q -599 -379 -599 -293 l -599 -608 l -703 -608 l -703 -372 q -757 -244 -703 -293 q -878 -196 -811 -196 q -994 -234 -946 -196 q -1058 -337 -1042 -272 q -1015 -304 -1044 -318 q -956 -290 -985 -290 q -840 -335 -883 -290 q -796 -449 -796 -379 q -845 -568 -796 -519 q -976 -617 -894 -617 q -1111 -556 -1058 -617 q -1164 -386 -1164 -494 q -1085 -192 -1164 -278 q -883 -107 -1007 -107 q -742 -142 -806 -107 q -651 -232 -678 -178 q -559 -142 -619 -176 q -422 -107 -499 -107 q -223 -185 -296 -107 q -143 -379 -150 -264 m -401 -454 q -401 -470 -401 -454 q -381 -508 -401 -486 q -322 -529 -360 -529 q -259 -498 -283 -529 q -235 -411 -235 -467 q -319 -379 -278 -379 q -381 -401 -360 -379 q -401 -454 -401 -422 z "},"൦":{"ha":833,"x_min":57,"x_max":776,"o":"m 417 -15 q 331 -15 417 -15 q 151 102 246 -15 q 57 406 57 219 q 151 708 57 592 q 417 824 246 824 q 683 708 589 824 q 776 406 776 592 q 682 102 776 219 q 417 -15 588 -15 m 252 622 q 225 580 252 622 q 197 404 197 538 q 255 186 197 271 q 419 101 313 101 q 581 185 526 101 q 636 403 636 268 q 578 622 636 538 q 414 707 521 707 q 252 622 307 707 z "},"൧":{"ha":964,"x_min":-12,"x_max":850,"o":"m 365 464 l 365 117 l 715 117 l 715 464 q 538 706 715 706 q 365 464 365 706 m 486 -272 l 214 -272 q 46 -217 104 -272 q -12 -72 -12 -161 q 53 68 -12 17 q 232 121 118 119 l 232 464 q 310 729 232 635 q 540 824 389 824 q 770 729 690 824 q 850 464 850 635 l 850 0 l 232 0 q 126 -76 126 0 q 156 -133 126 -112 q 242 -154 186 -154 l 486 -154 l 486 -272 z "},"൨":{"ha":999,"x_min":71,"x_max":1007,"o":"m 558 0 l 558 113 q 686 399 686 203 q 621 622 686 538 q 448 707 556 707 q 276 622 340 707 q 211 409 211 538 q 260 203 211 281 q 385 124 310 125 l 385 -6 q 151 113 231 -4 q 71 410 71 229 q 175 708 71 592 q 449 824 279 824 q 723 708 618 824 q 828 401 828 592 q 711 108 828 211 q 1007 117 782 117 l 1007 0 l 558 0 z "},"൩":{"ha":1426,"x_min":71,"x_max":1426,"o":"m 442 129 l 442 0 q 290 27 357 0 q 182 97 222 54 q 117 194 142 139 q 71 408 71 294 q 165 715 71 607 q 414 824 260 824 q 657 681 588 824 q 753 785 692 747 q 896 824 815 824 q 1145 708 1051 824 q 1239 403 1239 592 q 1214 242 1239 321 q 1139 113 1189 164 q 1426 117 1233 117 l 1426 0 l 971 0 l 971 113 q 1065 226 1031 151 q 1099 399 1099 301 q 1042 622 1099 536 q 903 707 985 707 q 774 649 822 707 q 726 494 726 592 l 726 0 l 590 0 l 590 494 q 542 649 590 592 q 408 707 493 707 q 267 628 324 707 q 211 411 211 549 q 271 201 211 274 q 442 129 331 129 z "},"൪":{"ha":1068,"x_min":78,"x_max":990,"o":"m 553 282 q 594 157 553 203 q 701 111 635 111 q 808 177 767 111 q 849 371 849 243 q 816 522 849 450 q 725 640 783 593 q 669 561 717 628 q 607 468 622 494 q 572 387 592 442 q 553 282 553 332 m 990 371 q 914 96 990 200 q 702 -8 838 -8 q 490 78 567 -8 q 413 282 413 164 q 435 412 413 347 q 478 512 457 476 q 547 612 500 547 q 607 699 593 676 q 533 707 572 707 q 308 611 397 707 q 218 367 218 515 q 249 181 218 265 q 349 0 281 96 l 192 0 q 78 367 78 172 q 130 586 78 483 q 288 756 182 689 q 533 824 394 824 q 663 806 597 824 q 678 894 678 849 q 622 1027 678 981 q 490 1074 567 1074 q 336 1047 413 1074 l 336 1168 q 478 1190 418 1190 q 723 1111 628 1190 q 818 894 818 1032 q 786 749 818 822 q 935 588 881 688 q 990 371 990 488 z "},"൫":{"ha":1463,"x_min":64,"x_max":1399,"o":"m 1111 108 q 995 -135 1111 -31 q 683 -239 879 -239 q 238 -58 411 -239 q 64 403 64 124 q 250 881 64 683 q 736 1074 436 1078 q 1020 1015 892 1072 q 1230 865 1149 958 q 1355 654 1311 772 q 1399 408 1399 536 q 1319 -12 1399 219 l 1172 -12 q 1260 404 1263 218 q 1110 800 1257 644 q 738 956 963 956 q 369 822 524 956 q 248 647 293 757 q 203 412 203 536 q 234 199 203 288 q 315 52 265 110 q 428 -44 364 -6 q 682 -119 547 -119 q 894 -53 817 -119 q 971 108 971 13 q 919 222 971 181 q 774 264 867 264 l 717 264 l 717 386 l 760 386 q 874 422 833 386 q 915 516 915 457 q 875 606 915 575 q 756 636 835 636 q 624 569 676 636 q 572 369 572 501 l 572 83 l 436 83 l 436 369 q 466 552 436 474 q 546 672 496 631 q 768 756 643 756 q 975 692 893 756 q 1057 517 1057 629 q 1021 393 1057 444 q 921 331 985 342 q 1058 259 1006 319 q 1111 108 1111 199 z "},"൬":{"ha":1751,"x_min":71,"x_max":1674,"o":"m 642 651 q 726 775 667 726 q 871 824 785 824 q 1017 777 957 824 q 1104 651 1076 731 q 1199 776 1133 729 q 1349 824 1264 824 q 1585 713 1496 824 q 1674 401 1674 601 q 1600 25 1674 186 q 1497 -133 1560 -67 q 1335 -240 1435 -199 q 1108 -281 1235 -281 l 1108 -154 q 1428 -7 1324 -154 q 1532 401 1532 140 q 1482 625 1532 543 q 1349 707 1432 707 q 1218 641 1265 707 q 1171 458 1171 575 l 1171 0 l 1036 0 l 1036 458 q 992 644 1036 581 q 873 707 949 707 q 753 640 797 707 q 708 460 708 574 l 708 0 l 572 0 l 572 460 q 525 642 572 576 q 394 707 478 707 q 261 625 311 707 q 211 401 211 543 q 426 129 211 129 l 426 0 q 250 39 324 0 q 139 142 176 78 q 71 401 71 258 q 159 713 71 601 q 394 824 247 824 q 545 776 479 824 q 642 651 611 729 z "},"൭":{"ha":1060,"x_min":74,"x_max":983,"o":"m 363 413 q 332 413 363 413 q 260 371 301 413 q 219 267 219 329 q 263 162 219 204 q 366 119 306 119 q 466 161 426 119 q 506 265 506 203 q 465 370 506 328 q 363 413 424 413 m 983 356 q 835 -67 983 100 q 388 -239 688 -233 l 389 -112 q 732 17 618 -112 q 846 360 846 147 q 755 609 846 514 q 525 704 664 704 q 321 631 411 704 q 206 438 231 558 q 278 506 229 479 q 381 532 328 532 q 568 458 496 532 q 640 273 640 385 q 564 81 640 161 q 361 1 488 1 q 154 99 235 1 q 74 357 74 196 q 199 685 74 546 q 525 824 325 824 q 838 710 701 824 q 944 563 904 654 q 983 356 983 471 z "},"൮":{"ha":1372,"x_min":67,"x_max":1260,"o":"m 406 0 q 270 26 331 0 q 173 94 210 53 q 111 189 136 135 q 67 399 67 285 q 174 703 67 583 q 462 824 281 824 q 749 706 643 824 q 856 401 856 588 q 758 117 856 244 l 1124 117 l 1124 818 l 1260 818 l 1260 0 q 1153 -269 1260 -174 q 838 -376 1047 -365 l 838 -250 q 1056 -178 988 -240 q 1125 0 1125 -115 l 589 0 l 589 114 q 715 399 715 221 q 646 622 715 538 q 460 707 576 707 q 276 620 344 707 q 207 399 207 533 q 269 196 207 265 q 406 126 331 126 l 406 0 z "},"൯":{"ha":1539,"x_min":71,"x_max":1461,"o":"m 1024 279 q 1024 238 1024 279 q 1065 151 1024 197 q 1173 104 1107 104 q 1280 174 1239 104 q 1321 371 1321 244 q 1288 522 1321 451 q 1196 639 1254 592 q 1149 572 1182 618 q 1101 501 1117 526 q 1064 435 1085 475 q 1024 279 1024 361 m 1461 371 q 1385 94 1461 203 q 1174 -14 1308 -14 q 961 72 1039 -14 q 883 276 883 157 q 906 408 883 342 q 949 509 928 474 q 1018 612 969 544 q 1079 699 1067 679 q 1010 707 1046 707 q 813 633 900 707 q 726 424 726 560 l 726 0 l 590 0 l 590 494 q 542 649 590 592 q 408 707 493 707 q 267 628 324 707 q 211 411 211 549 q 271 201 211 274 q 442 129 331 129 l 442 0 q 290 27 357 0 q 182 97 222 54 q 117 194 142 139 q 71 408 71 294 q 165 715 71 607 q 414 824 260 824 q 567 781 500 824 q 672 665 633 738 q 813 781 724 738 q 1014 824 901 824 q 1133 806 1078 824 q 1149 894 1149 849 q 1093 1027 1149 981 q 960 1074 1038 1074 q 807 1047 883 1074 l 807 1168 q 949 1190 889 1190 q 1194 1111 1099 1190 q 1289 894 1289 1032 q 1257 747 1289 821 q 1406 587 1350 685 q 1461 371 1461 489 z "},"൰":{"ha":1294,"x_min":113,"x_max":1224,"o":"m 404 0 q 249 53 317 0 l 249 -172 l 113 -172 l 113 824 l 249 824 l 249 247 q 313 149 271 181 q 404 117 354 117 q 522 174 478 117 q 567 329 567 231 l 567 824 l 703 824 l 703 329 q 751 174 703 232 q 885 117 800 117 q 1027 196 971 117 q 1083 413 1083 275 q 1024 622 1083 550 q 851 694 964 694 l 851 824 q 1003 797 936 824 q 1111 727 1071 769 q 1178 628 1151 685 q 1224 415 1224 531 q 1128 108 1224 217 q 879 0 1033 0 q 636 143 706 0 q 404 0 564 0 z "},"൱":{"ha":1332,"x_min":71,"x_max":1247,"o":"m 1175 11 q 1076 -151 1135 -82 q 926 -264 1017 -221 q 722 -307 835 -307 l 722 -178 q 1003 -20 900 -178 q 1106 400 1106 138 q 1049 624 1106 544 q 908 703 993 703 q 774 647 822 703 q 726 494 726 592 l 726 0 l 590 0 l 590 494 q 542 649 590 592 q 408 707 493 707 q 267 628 324 707 q 211 411 211 549 q 271 201 211 274 q 442 129 331 129 l 442 0 q 290 27 357 0 q 182 97 222 54 q 117 194 142 139 q 71 408 71 294 q 165 715 71 607 q 422 824 260 824 q 658 681 583 824 q 895 821 732 821 q 1153 712 1058 821 q 1247 394 1247 603 q 1175 11 1247 185 z "},"൲":{"ha":2047,"x_min":71,"x_max":2015,"o":"m 1669 744 q 1651 726 1669 744 q 1633 653 1633 708 q 1669 560 1633 597 q 1757 524 1704 524 q 1845 560 1810 524 q 1881 653 1881 597 q 1845 744 1881 708 q 1757 781 1810 781 q 1669 744 1704 781 m 1158 103 q 1279 171 1236 103 q 1322 360 1322 239 q 1321 397 1322 385 l 1215 397 q 1069 356 1119 397 q 1019 249 1019 314 q 1059 143 1019 183 q 1158 103 1099 103 m 1453 360 q 1372 87 1453 188 q 1163 -14 1290 -14 q 960 62 1036 -14 q 883 253 883 138 q 972 443 883 369 q 1214 517 1060 517 l 1293 517 q 1178 656 1256 606 q 993 706 1101 706 q 806 633 885 706 q 726 432 726 561 l 726 0 l 590 0 l 590 494 q 542 649 590 592 q 408 707 493 707 q 267 628 324 707 q 211 411 211 549 q 271 201 211 274 q 442 129 331 129 l 442 0 q 290 27 357 0 q 182 97 222 54 q 117 194 142 139 q 71 408 71 294 q 165 715 71 607 q 414 824 260 824 q 570 779 501 824 q 671 665 639 735 q 806 781 721 738 q 1000 824 892 824 q 1270 738 1157 824 q 1428 517 1383 651 l 1551 517 q 1500 657 1500 578 q 1573 828 1500 760 q 1758 897 1646 897 q 1943 830 1871 897 q 2015 650 2015 763 q 1931 467 2015 538 q 1704 397 1846 397 l 1451 397 q 1453 360 1453 385 z "},"൳":{"ha":971,"x_min":67,"x_max":960,"o":"m 960 818 l 960 699 l 510 699 q 288 614 369 699 q 207 368 207 529 q 251 176 207 246 q 380 106 296 106 q 508 176 464 106 q 551 350 551 246 q 521 535 551 454 l 658 535 q 693 368 693 447 q 609 89 693 192 q 379 -14 525 -14 q 150 89 233 -14 q 67 368 67 192 q 189 699 67 581 q 513 818 311 818 l 960 818 z "},"൴":{"ha":1374,"x_min":74,"x_max":1296,"o":"m 369 397 q 339 397 369 397 q 267 355 308 397 q 226 250 226 313 q 269 145 226 188 q 373 103 313 103 q 473 145 433 103 q 513 249 513 188 q 472 354 513 311 q 369 397 431 397 m 856 271 q 856 237 856 271 q 897 157 856 203 q 1006 111 939 111 q 1114 171 1072 111 q 1156 346 1156 231 q 1014 618 1156 515 q 978 568 1010 611 q 939 513 947 525 q 908 463 931 500 q 878 403 886 425 q 856 271 856 339 m 388 517 q 575 443 503 517 q 647 258 647 369 q 571 66 647 146 q 369 -14 494 -14 q 158 82 243 -14 q 74 328 74 178 q 236 689 74 554 q 686 824 399 824 q 956 779 833 824 q 981 894 981 839 q 926 1027 981 981 q 794 1074 871 1074 q 640 1047 717 1074 l 640 1168 q 782 1190 722 1190 q 1027 1111 932 1190 q 1122 894 1122 1032 q 1076 719 1122 807 q 1238 558 1181 654 q 1296 346 1296 461 q 1219 90 1296 189 q 1007 -8 1142 -8 q 794 78 872 -8 q 715 282 715 164 q 758 467 715 385 q 797 536 783 514 q 849 613 810 558 q 896 676 889 667 q 686 708 803 708 q 359 633 482 708 q 213 422 236 557 q 285 490 236 464 q 388 517 335 517 z "},"൵":{"ha":1761,"x_min":74,"x_max":1683,"o":"m 369 397 q 339 397 369 397 q 267 355 308 397 q 226 250 226 313 q 269 145 226 188 q 373 103 313 103 q 473 145 433 103 q 513 249 513 188 q 472 354 513 311 q 369 397 431 397 m 1246 268 q 1246 236 1246 268 q 1288 158 1246 204 q 1395 111 1329 111 q 1501 178 1461 111 q 1542 374 1542 246 q 1509 524 1542 453 q 1419 642 1476 594 q 1363 562 1410 628 q 1301 469 1317 496 q 1265 387 1285 442 q 1246 268 1246 332 m 388 517 q 575 443 503 517 q 647 258 647 369 q 571 66 647 146 q 369 -14 494 -14 q 158 82 243 -14 q 74 328 74 178 q 197 681 74 539 q 522 824 319 824 q 731 775 635 824 q 885 636 828 726 q 1031 774 939 724 q 1240 824 1124 824 q 1357 807 1299 824 q 1371 894 1371 853 q 1315 1027 1371 981 q 1183 1074 1260 1074 q 1029 1047 1106 1074 l 1029 1168 q 1171 1190 1111 1190 q 1416 1111 1321 1190 q 1511 894 1511 1032 q 1481 750 1511 825 q 1628 591 1572 689 q 1683 374 1683 493 q 1607 99 1683 206 q 1396 -8 1531 -8 q 1183 78 1261 -8 q 1106 282 1106 164 q 1128 413 1106 347 q 1171 513 1150 478 q 1240 614 1192 547 q 1301 700 1289 681 q 1236 707 1267 707 q 1038 631 1124 707 q 953 417 953 556 l 953 0 l 817 0 l 817 421 q 730 627 817 550 q 525 704 643 704 q 320 628 407 704 q 208 422 233 553 q 283 490 232 464 q 388 517 333 517 z "},"൹":{"ha":1717,"x_min":71,"x_max":1686,"o":"m 1158 103 q 1279 171 1236 103 q 1322 360 1322 239 q 1321 397 1322 385 l 1215 397 q 1069 356 1119 397 q 1019 249 1019 314 q 1059 143 1019 183 q 1158 103 1099 103 m 1453 360 q 1372 87 1453 188 q 1163 -14 1290 -14 q 960 62 1036 -14 q 883 253 883 138 q 972 443 883 369 q 1214 517 1060 517 l 1292 517 q 1177 656 1254 606 q 992 706 1100 706 q 806 633 885 706 q 726 432 726 561 l 726 -6 l 590 -6 l 590 489 q 541 643 590 586 q 408 700 492 700 q 267 622 324 700 q 211 406 211 543 q 271 196 211 268 q 442 124 331 124 l 442 -6 q 290 22 357 -6 q 182 91 222 49 q 117 189 142 133 q 71 403 71 289 q 165 710 71 601 q 413 818 258 818 q 569 774 500 818 q 671 663 639 731 q 1000 824 789 824 q 1269 738 1157 824 q 1426 517 1382 651 l 1686 517 l 1686 397 l 1451 397 q 1453 360 1453 385 z "},"ൺ":{"ha":2211,"x_min":74,"x_max":2132,"o":"m 365 397 q 335 397 365 397 q 263 355 304 397 q 222 250 222 313 q 265 145 222 188 q 369 103 308 103 q 469 145 429 103 q 508 249 508 188 q 467 354 508 311 q 365 397 426 397 m 1696 276 q 1737 151 1696 197 q 1844 104 1778 104 q 1951 173 1910 104 q 1992 368 1992 242 q 1960 517 1992 446 q 1871 638 1928 589 q 1814 553 1857 615 q 1752 459 1771 490 q 1715 376 1733 428 q 1696 276 1696 324 m 383 517 q 571 443 499 517 q 643 257 643 369 q 567 65 643 144 q 364 -14 492 -14 q 155 83 236 -14 q 74 342 74 181 q 197 683 74 542 q 522 824 321 824 q 728 778 633 824 q 875 651 822 733 q 965 776 903 729 q 1110 824 1028 824 q 1252 776 1192 824 q 1338 650 1313 729 q 1477 776 1388 728 q 1690 824 1567 824 q 1807 807 1749 824 q 1821 894 1821 853 q 1765 1027 1821 981 q 1633 1074 1710 1074 q 1479 1047 1556 1074 l 1479 1168 q 1621 1190 1561 1190 q 1866 1111 1771 1190 q 1961 894 1961 1032 q 1931 747 1961 825 q 2076 586 2021 686 q 2132 368 2132 486 q 2055 94 2132 201 q 1844 -14 1978 -14 q 1632 72 1710 -14 q 1554 276 1554 157 q 1576 403 1554 339 q 1622 505 1599 467 q 1692 608 1646 543 q 1754 699 1738 672 q 1686 707 1721 707 q 1490 634 1576 707 q 1403 424 1403 561 l 1403 0 l 1267 0 l 1267 460 q 1223 641 1267 575 q 1108 707 1179 707 q 995 644 1038 707 q 953 458 953 582 l 953 0 l 817 0 l 817 428 q 731 630 817 556 q 526 704 644 704 q 320 628 407 704 q 208 422 233 553 q 281 490 232 464 q 383 517 331 517 z "},"ൻ":{"ha":1532,"x_min":71,"x_max":1453,"o":"m 1019 276 q 1060 151 1019 197 q 1167 104 1101 104 q 1272 174 1232 104 q 1313 374 1313 244 q 1196 639 1313 542 q 1139 554 1182 617 q 1077 460 1096 492 q 1039 376 1058 429 q 1019 276 1019 324 m 414 824 q 573 780 507 824 q 672 664 639 736 q 1008 824 785 824 q 1131 807 1072 824 q 1144 894 1144 853 q 1089 1027 1144 981 q 956 1074 1033 1074 q 803 1047 879 1074 l 803 1168 q 944 1190 885 1190 q 1190 1111 1094 1190 q 1285 894 1285 1032 q 1254 749 1285 821 q 1399 590 1346 688 q 1453 374 1453 492 q 1378 94 1453 203 q 1168 -14 1303 -14 q 956 72 1033 -14 q 879 276 879 157 q 901 403 879 339 q 947 504 924 467 q 1015 608 969 542 q 1078 699 1061 674 q 1004 707 1043 707 q 810 633 894 707 q 726 421 726 560 l 726 0 l 590 0 l 590 494 q 542 649 590 592 q 408 707 493 707 q 267 628 324 707 q 211 411 211 549 q 271 201 211 274 q 442 129 331 129 l 442 0 q 290 27 357 0 q 182 97 222 54 q 117 194 142 139 q 71 408 71 294 q 165 715 71 607 q 414 824 260 824 z "},"ർ":{"ha":1065,"x_min":78,"x_max":986,"o":"m 553 276 q 594 151 553 197 q 700 104 635 104 q 806 174 765 104 q 846 371 846 243 q 728 638 846 539 q 671 553 714 615 q 609 459 628 490 q 572 376 590 428 q 553 276 553 324 m 986 371 q 910 94 986 203 q 701 -14 835 -14 q 490 72 567 -14 q 413 276 413 157 q 435 402 413 339 q 480 503 457 465 q 548 606 503 542 q 610 697 593 671 q 533 707 576 707 q 308 611 397 707 q 218 367 218 515 q 248 181 218 265 q 343 0 278 96 l 186 0 q 78 367 78 176 q 130 586 78 483 q 288 756 182 689 q 533 824 394 824 q 663 806 597 824 q 678 894 678 849 q 622 1027 678 981 q 490 1074 567 1074 q 336 1047 413 1074 l 336 1168 q 478 1190 418 1190 q 723 1111 628 1190 q 818 894 818 1032 q 788 746 818 824 q 933 585 879 685 q 986 371 986 486 z "},"ൽ":{"ha":1719,"x_min":71,"x_max":1642,"o":"m 1208 275 q 1208 236 1208 275 q 1249 151 1208 197 q 1356 104 1290 104 q 1462 167 1422 104 q 1501 350 1501 229 q 1369 615 1501 517 q 1282 487 1296 511 q 1246 422 1268 463 q 1208 275 1208 353 m 628 169 q 646 138 628 169 q 721 106 664 106 q 813 167 778 106 q 847 361 847 229 q 728 633 847 538 q 593 361 593 543 q 628 169 593 233 m 411 115 l 411 -14 q 160 95 250 -14 q 71 387 71 204 q 199 697 71 569 q 518 824 326 824 q 739 768 639 824 q 1024 824 867 824 q 1308 778 1182 824 q 1333 894 1333 839 q 1278 1027 1333 981 q 1145 1074 1222 1074 q 992 1047 1068 1074 l 992 1168 q 1133 1190 1074 1190 q 1378 1111 1283 1190 q 1474 894 1474 1032 q 1429 718 1474 810 q 1586 560 1531 654 q 1642 350 1642 465 q 1566 88 1642 190 q 1356 -14 1490 -14 q 1144 72 1222 -14 q 1067 276 1067 157 q 1111 458 1067 376 q 1197 599 1156 540 q 1251 676 1239 658 q 1044 708 1158 708 q 851 688 931 708 q 988 366 988 551 q 913 83 988 181 q 720 -14 839 -14 q 526 82 601 -14 q 451 354 451 178 q 614 694 451 564 q 513 708 567 708 q 299 619 385 708 q 213 392 213 531 q 265 185 213 254 q 411 115 318 115 z "},"ൾ":{"ha":1472,"x_min":71,"x_max":1394,"o":"m 958 276 q 999 151 958 197 q 1106 104 1039 104 q 1213 171 1172 104 q 1254 367 1254 238 q 1133 636 1254 533 q 1017 463 1036 496 q 978 376 997 429 q 958 276 958 324 m 697 333 q 617 76 697 167 q 390 -14 538 -14 q 157 99 243 -14 q 71 406 71 211 q 286 794 71 715 q 426 818 347 818 l 426 689 q 268 624 325 689 q 211 410 211 560 q 263 182 211 261 q 393 103 315 103 q 516 160 471 103 q 561 326 561 217 l 561 454 q 667 718 561 613 q 946 824 774 824 q 1067 806 1003 824 q 1082 894 1082 849 q 1027 1027 1082 981 q 895 1074 972 1074 q 742 1047 818 1074 l 742 1168 q 883 1190 824 1190 q 1128 1111 1033 1190 q 1224 894 1224 1032 q 1192 746 1224 821 q 1340 584 1285 683 q 1394 367 1394 485 q 1318 91 1394 196 q 1107 -14 1242 -14 q 894 72 972 -14 q 817 276 817 157 q 839 401 817 338 q 885 504 861 465 q 953 607 908 543 q 1014 699 997 671 q 944 707 981 707 q 769 642 840 707 q 697 454 697 576 l 697 333 z "},"ൿ":{"ha":1825,"x_min":69,"x_max":1746,"o":"m 583 390 q 635 174 586 250 q 781 99 685 99 q 927 174 878 99 q 979 389 976 250 l 583 390 m 972 506 q 781 713 939 713 q 590 506 624 713 l 972 506 m 1342 233 q 1342 200 1342 233 q 1378 135 1342 168 q 1475 103 1415 103 q 1571 145 1535 103 q 1607 250 1607 188 q 1400 389 1607 389 l 1394 389 q 1342 233 1342 297 m 207 253 q 207 219 207 253 q 247 144 207 185 q 340 103 286 103 q 429 138 393 103 q 469 225 465 172 q 444 390 447 297 l 394 390 q 258 356 310 390 q 207 253 207 322 m 1668 58 q 1629 22 1668 58 q 1472 -14 1590 -14 q 1278 53 1354 -14 q 1203 213 1203 119 q 1246 389 1203 306 l 1117 389 q 1025 97 1114 207 q 781 -14 936 -14 q 535 99 625 -14 q 336 -14 474 -14 q 147 59 225 -14 q 69 251 69 132 q 157 438 69 371 q 388 506 244 506 l 451 506 q 563 740 475 657 q 781 824 650 824 q 999 740 911 824 q 1110 506 1086 656 l 1317 506 q 1382 628 1360 572 q 1404 756 1404 685 q 1356 869 1404 828 q 1235 911 1308 911 q 1086 885 1163 911 l 1086 1006 q 1228 1028 1168 1028 q 1458 954 1371 1028 q 1544 758 1544 881 q 1464 503 1544 635 q 1670 426 1594 490 q 1746 246 1746 361 q 1668 58 1746 131 z "},"‌":{"ha":0,"x_min":-33,"x_max":38,"o":"m -33 1103 l 38 1103 l 38 -481 l -33 -481 l -33 1103 z "},"‍":{"ha":0,"x_min":-207,"x_max":185,"o":"m 25 -481 l -46 -481 l -46 839 l -149 738 l -207 792 l -62 924 l -207 1057 l -150 1110 l -10 972 l 129 1110 l 185 1057 l 40 924 l 185 792 l 128 738 l 25 840 l 25 -481 z "},"–":{"ha":756,"x_min":74,"x_max":682,"o":"m 682 321 l 74 321 l 74 429 l 682 429 l 682 321 z "},"—":{"ha":1147,"x_min":74,"x_max":1074,"o":"m 1074 324 l 74 324 l 74 432 l 1074 432 l 1074 324 z "},"‘":{"ha":285,"x_min":22,"x_max":307,"o":"m 183 639 l 22 639 l 194 965 l 307 965 l 183 639 z "},"’":{"ha":286,"x_min":24,"x_max":308,"o":"m 135 639 l 24 639 l 146 965 l 308 965 l 135 639 z "},"‚":{"ha":286,"x_min":-1,"x_max":283,"o":"m 111 -172 l -1 -172 l 122 153 l 283 153 l 111 -172 z "},"“":{"ha":501,"x_min":22,"x_max":524,"o":"m 403 639 l 250 639 l 414 965 l 524 965 l 403 639 m 182 639 l 22 639 l 199 965 l 307 965 l 182 639 z "},"”":{"ha":501,"x_min":24,"x_max":524,"o":"m 349 639 l 239 639 l 364 965 l 524 965 l 349 639 m 132 639 l 24 639 l 143 965 l 296 965 l 132 639 z "},"„":{"ha":501,"x_min":1,"x_max":503,"o":"m 326 -172 l 218 -172 l 343 153 l 503 153 l 326 -172 m 111 -172 l 1 -172 l 122 153 l 274 153 l 111 -172 z "},"†":{"ha":742,"x_min":53,"x_max":688,"o":"m 688 592 l 429 592 l 429 0 l 306 0 l 306 592 l 53 592 l 53 707 l 306 707 l 306 936 l 429 936 l 429 707 l 688 707 l 688 592 z "},"‡":{"ha":760,"x_min":63,"x_max":697,"o":"m 697 239 l 438 239 l 438 0 l 314 0 l 314 239 l 63 239 l 63 356 l 314 356 l 314 592 l 63 592 l 63 707 l 314 707 l 314 936 l 438 936 l 438 707 l 697 707 l 697 592 l 438 592 l 438 356 l 697 356 l 697 239 z "},"•":{"ha":614,"x_min":122,"x_max":490,"o":"m 437 626 q 464 599 437 626 q 490 494 490 572 q 438 363 490 417 q 306 310 385 310 q 175 363 228 310 q 122 494 122 415 q 174 626 122 574 q 305 679 226 679 q 437 626 383 679 z "},"…":{"ha":1088,"x_min":60,"x_max":1028,"o":"m 1001 149 q 1014 136 1001 149 q 1028 83 1028 122 q 1001 17 1028 44 q 934 -11 974 -11 q 867 17 894 -11 q 840 83 840 44 q 867 149 840 122 q 934 176 894 176 q 1001 149 974 176 m 610 149 q 624 136 610 149 q 638 83 638 122 q 610 17 638 44 q 544 -11 583 -11 q 478 17 506 -11 q 450 83 450 44 q 477 149 450 122 q 544 176 504 176 q 610 149 583 176 m 220 149 q 234 136 220 149 q 247 83 247 122 q 220 17 247 44 q 153 -11 193 -11 q 87 17 114 -11 q 60 83 60 44 q 87 149 60 122 q 153 176 114 176 q 220 149 193 176 z "},"‰":{"ha":1764,"x_min":63,"x_max":1718,"o":"m 1402 306 q 1385 288 1402 306 q 1368 222 1368 271 q 1402 139 1368 174 q 1485 104 1436 104 q 1568 139 1533 104 q 1603 222 1603 174 q 1568 306 1603 271 q 1485 340 1533 340 q 1402 306 1436 340 m 1649 387 q 1684 352 1649 387 q 1718 222 1718 318 q 1649 58 1718 126 q 1485 -10 1581 -10 q 1321 58 1389 -10 q 1253 222 1253 125 q 1321 387 1253 318 q 1485 456 1389 456 q 1649 387 1581 456 m 842 306 q 824 288 842 306 q 807 222 807 271 q 842 139 807 174 q 925 104 876 104 q 1008 139 974 104 q 1043 222 1043 174 q 1008 306 1043 271 q 925 340 974 340 q 842 306 876 340 m 924 456 q 973 456 924 456 q 1089 387 1021 456 q 1157 222 1157 318 q 1089 58 1157 125 q 924 -10 1021 -10 q 760 58 828 -10 q 692 222 692 125 q 760 387 692 318 q 924 456 828 456 m 213 805 q 195 788 213 805 q 178 722 178 771 q 213 639 178 674 q 296 604 247 604 q 378 639 344 604 q 413 722 413 674 q 378 804 413 769 q 296 839 344 839 q 213 805 247 839 m 295 954 q 343 954 295 954 q 460 886 392 954 q 528 722 528 818 q 460 557 528 625 q 295 489 392 489 q 131 557 199 489 q 63 722 63 625 q 131 886 63 818 q 295 954 199 954 m 418 -1 l 290 -1 l 796 940 l 925 940 l 418 -1 z "},"‹":{"ha":444,"x_min":39,"x_max":396,"o":"m 193 351 l 396 126 l 249 126 l 39 351 l 249 576 l 396 576 l 193 351 z "},"›":{"ha":442,"x_min":49,"x_max":406,"o":"m 406 351 l 196 126 l 49 126 l 251 351 l 49 576 l 196 576 l 406 351 z "},"⁄":{"ha":414,"x_min":-162,"x_max":568,"o":"m -49 0 l -162 0 l 454 989 l 568 989 l -49 0 z "},"€":{"ha":833,"x_min":67,"x_max":778,"o":"m 778 26 q 577 -11 706 -11 q 345 72 449 -11 q 204 299 242 156 l 67 299 l 67 392 l 189 392 q 186 450 186 428 q 189 517 186 472 l 67 517 l 67 610 l 206 610 q 350 837 246 756 q 580 918 454 918 q 778 879 706 918 l 778 744 q 617 788 711 788 q 456 742 522 788 q 357 610 389 696 l 626 610 l 626 517 l 335 517 q 331 456 331 483 q 333 392 331 428 l 626 392 l 626 299 l 354 299 q 453 164 386 211 q 614 117 519 117 q 778 163 708 117 l 778 26 z "},"₹":{"ha":758,"x_min":88,"x_max":694,"o":"m 694 588 l 557 588 q 465 409 544 475 q 250 339 385 343 l 526 0 l 354 0 l 88 339 l 88 453 l 219 453 q 418 588 396 453 l 88 588 l 88 699 l 411 699 q 217 825 374 825 l 88 825 l 88 936 l 694 936 l 694 825 l 474 825 q 550 699 531 776 l 694 699 l 694 588 z "},"₺":{"ha":808,"x_min":83,"x_max":763,"o":"m 296 0 l 201 0 l 201 358 l 83 297 l 83 413 l 201 474 l 201 593 l 83 532 l 83 647 l 201 708 l 201 910 l 338 910 l 338 778 l 482 853 l 482 738 l 338 663 l 338 543 l 482 618 l 482 503 l 338 428 l 338 119 q 550 251 469 140 q 631 504 631 361 l 763 504 q 633 145 763 290 q 296 0 504 0 z "},"₽":{"ha":794,"x_min":22,"x_max":746,"o":"m 579 118 l 299 118 l 299 0 l 157 0 l 157 118 l 22 118 l 22 224 l 157 224 l 157 344 l 22 344 l 22 450 l 157 450 l 157 910 l 401 910 q 656 831 567 910 q 746 623 746 753 q 656 419 746 493 q 410 344 567 344 l 299 344 l 299 224 l 579 224 l 579 118 m 396 794 l 299 794 l 299 450 l 399 450 q 554 494 501 450 q 607 620 607 538 q 554 749 607 703 q 396 794 501 794 z "},"ℓ":{"ha":703,"x_min":53,"x_max":640,"o":"m 640 38 q 457 -7 568 -7 q 278 61 346 -7 q 211 258 211 129 l 211 272 q 135 269 172 269 q 53 282 97 269 l 53 400 q 137 385 101 385 q 211 388 172 385 l 211 658 q 261 865 211 788 q 419 943 311 943 q 580 875 526 943 q 633 688 633 807 q 558 460 633 569 q 346 301 482 350 l 346 290 q 492 107 346 107 q 640 151 568 107 l 640 38 m 346 653 l 346 426 q 469 539 426 467 q 513 681 513 611 q 431 821 513 821 q 346 653 346 821 z "},"™":{"ha":988,"x_min":6,"x_max":951,"o":"m 224 458 l 126 458 l 126 850 l 6 850 l 6 936 l 340 936 l 340 850 l 224 850 l 224 458 m 482 460 l 385 460 l 424 936 l 540 936 q 663 578 650 632 q 793 936 678 628 l 911 936 l 951 460 l 856 460 l 840 658 l 836 824 q 782 657 824 769 l 710 468 l 618 468 l 551 657 l 499 824 q 482 460 501 767 z "},"Ω":{"ha":1088,"x_min":71,"x_max":1018,"o":"m 482 0 l 71 0 l 71 119 l 278 119 q 118 479 118 236 q 232 824 118 693 q 543 954 346 954 q 853 824 740 954 q 965 479 965 694 q 810 119 965 235 l 1018 119 l 1018 0 l 607 0 l 607 119 q 763 238 711 140 q 815 486 815 335 q 744 729 815 638 q 543 821 674 821 q 340 729 413 821 q 268 488 268 638 q 324 240 268 339 q 482 119 379 142 l 482 0 z "},"℮":{"ha":1160,"x_min":31,"x_max":1110,"o":"m 272 489 l 867 489 l 867 756 q 740 851 818 815 q 569 888 661 888 q 400 851 478 888 q 272 751 322 814 l 272 489 m 569 -14 q 188 124 344 -14 q 31 460 31 261 q 188 805 31 660 q 569 950 346 950 q 951 805 793 950 q 1110 458 1110 660 l 1110 429 l 272 429 l 272 183 q 574 44 388 44 q 886 197 761 44 l 1019 197 q 822 42 939 99 q 569 -14 706 -14 z "},"∂":{"ha":731,"x_min":53,"x_max":667,"o":"m 193 292 q 193 252 193 292 q 235 163 193 213 q 357 113 278 113 q 485 185 436 113 q 536 388 533 258 q 356 471 467 471 q 239 422 285 471 q 193 292 193 372 m 667 396 q 583 98 667 208 q 353 -12 499 -12 q 130 76 207 -12 q 53 296 53 164 q 138 509 53 428 q 335 590 224 590 q 518 522 446 590 q 387 758 482 647 q 181 936 292 868 l 371 936 q 578 699 490 854 q 667 396 667 544 z "},"∆":{"ha":883,"x_min":44,"x_max":839,"o":"m 443 829 q 197 118 335 521 l 686 118 l 603 367 l 443 829 m 44 0 l 44 106 l 350 936 l 539 936 l 839 106 l 839 0 l 44 0 z "},"∏":{"ha":846,"x_min":-44,"x_max":747,"o":"m 272 13 q 214 -190 272 -122 q 47 -257 156 -257 q -44 -240 0 -257 l -44 -112 q 28 -129 -8 -129 q 131 4 131 -129 l 131 936 l 747 936 l 747 -250 l 604 -250 l 604 811 l 272 811 l 272 13 z "},"∑":{"ha":631,"x_min":42,"x_max":671,"o":"m 671 -158 l 671 -278 l 42 -278 l 42 -158 l 278 339 l 42 817 l 42 936 l 671 936 l 671 817 l 197 817 l 429 339 l 196 -158 l 671 -158 z "},"−":{"ha":783,"x_min":74,"x_max":708,"o":"m 708 411 l 74 411 l 74 533 l 708 533 l 708 411 z "},"∕":{"ha":550,"x_min":-67,"x_max":664,"o":"m 47 0 l -67 0 l 550 989 l 664 989 l 47 0 z "},"∙":{"ha":365,"x_min":89,"x_max":276,"o":"m 249 535 q 263 521 249 535 q 276 468 276 507 q 249 401 276 429 q 183 374 222 374 q 117 401 144 374 q 89 468 89 428 q 117 535 89 508 q 183 563 144 563 q 249 535 222 563 z "},"√":{"ha":1076,"x_min":43,"x_max":1140,"o":"m 672 -272 l 494 -272 l 217 489 l 43 489 l 69 601 l 331 601 l 469 208 q 585 -150 561 -56 q 618 -7 585 -135 q 679 214 651 121 l 997 1250 l 1140 1250 l 672 -272 z "},"∞":{"ha":1157,"x_min":67,"x_max":1092,"o":"m 710 416 q 721 405 710 416 q 767 376 732 394 q 850 357 801 357 q 932 390 899 357 q 965 478 965 424 q 931 569 965 533 q 838 604 897 604 q 657 476 746 604 q 710 416 689 438 m 224 568 q 207 551 224 568 q 190 481 190 535 q 225 390 190 426 q 319 354 260 354 q 500 481 411 354 q 319 601 403 601 q 224 568 258 601 m 310 244 q 130 306 193 244 q 67 474 67 368 q 135 646 67 581 q 317 711 203 711 q 459 672 399 711 q 579 560 519 632 q 847 714 700 714 q 1027 651 963 714 q 1092 485 1092 589 q 1023 314 1092 381 q 842 247 954 247 q 698 286 758 247 q 578 397 638 325 q 457 285 519 326 q 310 244 394 244 z "},"∫":{"ha":442,"x_min":-12,"x_max":458,"o":"m 290 -8 q 231 -181 290 -118 q 65 -244 172 -244 q -12 -233 25 -244 l -12 -114 q 53 -128 19 -128 q 154 -7 154 -128 l 154 746 q 213 918 154 856 q 379 981 272 981 q 458 971 424 981 l 458 851 q 392 864 425 864 q 290 744 290 864 l 290 -8 z "},"≈":{"ha":846,"x_min":58,"x_max":786,"o":"m 296 319 q 146 231 211 319 l 58 304 q 272 435 153 435 q 438 390 347 435 q 567 346 528 346 q 693 425 639 346 l 786 356 q 583 228 703 228 q 426 274 517 228 q 296 319 335 319 m 296 599 q 146 510 211 599 l 58 583 q 272 714 153 714 q 438 669 347 714 q 567 625 528 625 q 693 704 639 625 l 786 635 q 583 508 704 508 q 426 553 517 508 q 296 599 335 599 z "},"≠":{"ha":783,"x_min":74,"x_max":708,"o":"m 708 268 l 342 268 l 288 150 l 203 150 l 256 268 l 74 268 l 74 383 l 308 383 l 389 563 l 74 563 l 74 676 l 442 676 l 494 794 l 581 794 l 526 676 l 708 676 l 708 563 l 475 563 l 393 383 l 708 383 l 708 268 z "},"≤":{"ha":776,"x_min":67,"x_max":701,"o":"m 701 151 l 67 151 l 67 265 l 701 265 l 701 151 m 701 667 l 131 567 l 701 467 l 701 343 l 67 474 l 67 660 l 701 790 l 701 667 z "},"≥":{"ha":776,"x_min":74,"x_max":708,"o":"m 708 151 l 74 151 l 74 265 l 708 265 l 708 151 m 708 660 l 708 474 l 74 343 l 74 467 l 644 567 l 74 667 l 74 790 l 708 660 z "},"◊":{"ha":799,"x_min":63,"x_max":736,"o":"m 475 0 l 319 0 l 63 468 l 319 936 l 475 936 l 736 468 l 475 0 m 210 468 l 399 111 q 538 368 440 197 l 592 468 q 399 825 429 765 q 263 568 357 739 l 210 468 z "},"◌":{"ha":917,"x_min":61,"x_max":856,"o":"m 374 733 q 366 742 374 733 q 357 778 357 750 q 374 822 357 806 q 418 839 392 839 q 462 822 444 839 q 479 778 479 806 q 462 733 479 750 q 418 717 444 717 q 374 733 392 717 m 594 696 q 581 696 594 696 q 550 714 568 696 q 532 758 532 732 q 549 801 532 783 q 594 819 567 819 q 638 802 621 819 q 654 758 654 785 q 637 714 654 732 q 594 696 619 696 m 681 619 q 673 627 681 619 q 664 663 664 636 q 681 707 664 689 q 725 725 699 725 q 769 708 751 725 q 786 663 786 690 q 769 619 786 636 q 725 601 751 601 q 681 619 699 601 m 750 455 q 742 464 750 455 q 733 499 733 472 q 750 542 733 525 q 794 560 767 560 q 838 542 821 560 q 856 499 856 525 q 838 455 856 472 q 794 438 821 438 q 750 455 767 438 m 738 269 q 728 277 738 269 q 719 313 719 286 q 738 357 719 339 q 781 375 756 375 q 824 357 807 375 q 842 313 842 339 q 824 269 842 286 q 781 251 807 251 q 738 269 756 251 m 635 133 q 627 141 635 133 q 618 176 618 150 q 635 220 618 203 q 679 238 653 238 q 724 220 706 238 q 742 176 742 203 q 724 133 742 150 q 679 115 706 115 q 635 133 653 115 m 467 58 q 458 67 467 58 q 450 103 450 75 q 467 147 450 131 q 511 164 483 164 q 556 147 539 164 q 574 103 574 129 q 556 59 574 76 q 511 42 539 42 q 467 58 483 42 m 336 61 q 323 61 336 61 q 292 79 310 61 q 274 124 274 97 q 292 168 274 150 q 336 186 310 186 q 380 168 363 186 q 397 124 397 150 q 380 79 397 97 q 336 61 363 61 m 150 185 q 142 194 150 185 q 133 229 133 203 q 151 273 133 256 q 194 290 168 290 q 238 273 221 290 q 256 229 256 256 q 238 185 256 203 q 194 168 221 168 q 150 185 167 168 m 78 347 q 70 356 78 347 q 61 390 61 364 q 78 435 61 417 q 122 453 96 453 q 166 435 149 453 q 183 391 183 418 q 166 347 183 364 q 122 331 149 331 q 78 347 96 331 m 97 522 q 88 530 97 522 q 79 565 79 539 q 97 609 79 592 q 142 626 115 626 q 186 609 168 626 q 204 565 204 592 q 186 522 204 539 q 142 504 168 504 q 97 522 115 504 m 254 656 q 241 656 254 656 q 210 673 228 656 q 193 717 193 690 q 210 762 193 744 q 254 779 228 779 q 298 762 281 779 q 315 717 315 744 q 298 673 315 690 q 254 656 281 656 z "},"ﬁ":{"ha":739,"x_min":42,"x_max":653,"o":"m 290 0 l 154 0 l 154 599 l 42 599 l 42 704 l 154 704 l 154 758 q 214 932 154 869 q 385 994 274 994 q 596 943 496 994 l 596 825 q 396 878 483 878 q 290 757 290 878 l 290 704 l 653 704 l 653 0 l 517 0 l 517 599 l 290 599 l 290 0 z "},"ﬂ":{"ha":742,"x_min":42,"x_max":646,"o":"m 439 599 l 290 599 l 290 0 l 154 0 l 154 599 l 42 599 l 42 704 l 154 704 l 154 758 q 214 932 154 869 q 391 994 274 994 q 646 921 508 994 l 646 0 l 510 0 l 510 858 q 403 878 454 878 q 290 757 290 878 l 290 704 l 439 704 l 439 599 z "}}}
